<svg width="10" height="10" viewBox="0 0 10 10" fill="none" xmlns="http://www.w3.org/2000/svg">
<path d="M5.79998 4.70898L8.85511 1.65385C9.00011 1.50911 9.08167 1.3127 9.08185 1.10783C9.08203 0.902954 9.00082 0.706399 8.85608 0.561403C8.71134 0.416407 8.51493 0.334848 8.31005 0.334667C8.10518 0.334486 7.90862 0.415698 7.76363 0.560438L4.7085 3.61557L1.65337 0.560438C1.50837 0.415442 1.31171 0.333984 1.10666 0.333984C0.901602 0.333984 0.704946 0.415442 0.55995 0.560438C0.414954 0.705434 0.333496 0.902091 0.333496 1.10715C0.333496 1.3122 0.414954 1.50886 0.55995 1.65385L3.61508 4.70898L0.55995 7.76412C0.414954 7.90911 0.333496 8.10577 0.333496 8.31082C0.333496 8.51588 0.414954 8.71253 0.55995 8.85753C0.704946 9.00253 0.901602 9.08399 1.10666 9.08399C1.31171 9.08399 1.50837 9.00253 1.65337 8.85753L4.7085 5.8024L7.76363 8.85753C7.90862 9.00253 8.10528 9.08399 8.31034 9.08399C8.51539 9.08399 8.71205 9.00253 8.85704 8.85753C9.00204 8.71253 9.0835 8.51588 9.0835 8.31082C9.0835 8.10577 9.00204 7.90911 8.85704 7.76412L5.79998 4.70898Z" fill="#1F1F22"/>
</svg>
