<svg width="104" height="95" viewBox="0 0 104 95" fill="none" xmlns="http://www.w3.org/2000/svg">
  <path d="M23.3715 3C18.5382 5.83333 8.97154 13.4 9.37154 21" stroke="#CE81B5" strokeWidth="1.9" stroke-linecap="round" stroke-linejoin="round"/>
  <path d="M10.5266 1.64056C7.39806 4.39864 1.55302 11.0032 3.20134 15.3566" stroke="#CE81B5" strokeWidth="1.9" stroke-linecap="round" stroke-linejoin="round"/>
  <path d="M40.7215 10.1678C51.3414 11.9845 59.6686 30.1456 59.6686 30.1456L70.8339 10.1678C70.8339 10.1678 78.0084 0.440346 84.3675 1.02537C89.9883 1.54246 92.2814 5.57208 95.5328 10.1678C101.126 18.0734 100.2 25.1224 98.944 34.6749L98.9162 34.8861C97.5877 44.9968 94.0899 50.3161 88.5028 58.813L88.4276 58.9272C80.107 71.5813 59.6686 85 59.6686 85C59.6686 85 45.6974 73.7714 37.001 64.5C28.5093 55.4468 22.4865 49.6275 20.4223 37.4114C19.001 29 17.3586 22.8226 23.0008 15.5C28.6431 8.17743 37.7264 9.65538 40.7215 10.1678Z" fill="#CE81B5" stroke="black" strokeWidth="1.33" stroke-linejoin="round"/>
  <path d="M75.3594 90C78.1927 88.6667 81.8594 89 83.8594 83" stroke="#CE81B5" strokeWidth="1.9" stroke-linecap="round" stroke-linejoin="round"/>
  <path d="M82.3594 93.5C85.526 93 92.0594 90.9 92.8594 86.5" stroke="#CE81B5" strokeWidth="1.9" stroke-linecap="round" stroke-linejoin="round"/>
</svg>
