<svg width="95" height="139" viewBox="0 0 95 139" fill="none" xmlns="http://www.w3.org/2000/svg">
  <path d="M33.5991 90.5487C27.9258 95.4348 3.8144 100.321 2.0415 98.8175C7.71478 120.993 26.5075 137.531 28.635 137.531C30.337 137.531 43.0546 128.259 49.2006 123.624C45.8912 116.483 38.1377 99.8699 33.5991 90.5487Z" fill="#8533FF" stroke="#1F1F22" strokeWidth="0.755256"/>
  <path d="M33.599 90.4843C33.599 90.4843 34.9383 85.5906 37.4993 80.4557C37.4993 79.7049 49.1452 61.0054 61.6106 58.5991C71.3416 56.7207 74.5908 59.5411 72.8838 64.6106C76.9976 63.5437 81.1136 63.5395 83.1361 66.6605C85.0163 69.562 85.2363 75.3948 85.2363 75.3948C85.2363 75.3948 88.594 77.9702 89.0967 80.4552C89.5871 82.8793 87.6432 86.6138 87.6432 86.6138C87.6432 86.6138 91.2018 89.0773 91.3143 91.5199C91.4305 94.042 87.8877 96.8691 87.8877 96.8691C87.8877 96.8691 90.0068 98.5343 90.5025 100.117C91.2203 102.408 89.0272 106.098 89.0272 106.098C89.0272 106.098 81.4367 110.761 76.5016 113.612C71.5391 116.479 69.8232 117.979 65.1566 119.862C59.044 122.327 48.7838 123.595 48.7838 123.595L33.599 90.4843Z" fill="#F9CF6B"/>
  <path d="M85.2363 75.3948C85.2363 75.3948 85.0163 69.562 83.1361 66.6605C81.1136 63.5395 76.9976 63.5437 72.8838 64.6106M85.2363 75.3948L65.5111 81.1482M85.2363 75.3948C85.2363 75.3948 88.594 77.9702 89.0967 80.4552C89.5871 82.8793 87.6432 86.6138 87.6432 86.6138M65.5111 81.1482C65.5111 81.1482 55.2689 81.8749 54.5191 80.0206C53.4554 77.3896 57.101 73.1767 59.1287 71.7518C60.8524 70.5406 65.5111 68.3691 65.5111 68.3691M65.5111 81.1482C65.5111 81.1482 58.5293 87.5958 60.5334 90.4857C61.7397 92.2252 63.8101 92.1973 67.1586 91.7327C70.5072 91.2682 87.6432 86.6138 87.6432 86.6138M87.6432 86.6138C87.6432 86.6138 91.2018 89.0773 91.3143 91.5199C91.4305 94.042 87.8877 96.8691 87.8877 96.8691M87.8877 96.8691C87.8877 96.8691 71.5449 101.052 68.3419 101.316C66.3956 101.477 63.9134 101.418 63.4432 100.26C62.0571 96.848 69.3734 93.1197 69.3734 93.1197M87.8877 96.8691C87.8877 96.8691 90.0068 98.5343 90.5025 100.117C91.2203 102.408 89.0272 106.098 89.0272 106.098M87.8877 96.8691L71.3416 102.164C71.3416 102.164 68.3825 103.472 67.5424 104.496C62.1865 111.026 89.0272 106.098 89.0272 106.098M89.0272 106.098C89.0272 106.098 81.4367 110.761 76.5016 113.612C71.5391 116.479 69.8232 117.979 65.1566 119.862C59.044 122.327 48.7838 123.595 48.7838 123.595L33.599 90.4843C33.599 90.4843 34.9383 85.5906 37.4993 80.4557C37.4993 79.7049 49.1452 61.0054 61.6106 58.5991C71.3416 56.7207 74.5908 59.5411 72.8838 64.6106M72.8838 64.6106L69.0569 66.114" stroke="#1F1F22" strokeWidth="1.00312" stroke-linecap="round" stroke-linejoin="round"/>
  <path d="M83.5717 31.1631C83.5717 42.1531 74.3853 51.0817 63.0291 51.0817C51.6729 51.0817 42.4865 42.1531 42.4865 31.1631C42.4865 20.1731 51.6729 11.2446 63.0291 11.2446C74.3853 11.2446 83.5717 20.1731 83.5717 31.1631ZM63.0291 47.3267C72.2132 47.3267 79.678 40.1007 79.678 31.1631C79.678 22.2255 72.2132 14.9996 63.0291 14.9996C53.845 14.9996 46.3802 22.2255 46.3802 31.1631C46.3802 40.1007 53.845 47.3267 63.0291 47.3267Z" fill="#8CC9EC" stroke="#1F1F22" strokeWidth="0.755256"/>
  <path d="M62.3199 51.4589L63.7383 69.1235C67.6386 67.6184 70.2389 65.7391 71.1844 64.9874C70.8299 58.5978 70.8299 49.5768 69.7661 49.9538C68.9154 50.2552 64.5656 51.3336 62.3199 51.4589Z" fill="#8CC9EC"/>
  <path d="M78.6306 126.253L76.8577 107.837H69.4115C69.6479 111.72 70.2625 121.142 70.8299 127.757C75.0848 133.47 77.8033 129.135 78.6306 126.253Z" fill="#8CC9EC"/>
  <path d="M62.3199 51.4589L63.7383 69.1235C67.6386 67.6184 70.2389 65.7391 71.1844 64.9874C70.8299 58.5978 70.8299 49.5768 69.7661 49.9538C68.9154 50.2552 64.5656 51.3336 62.3199 51.4589Z" stroke="#1F1F22" strokeWidth="0.755256"/>
  <path d="M78.6306 126.253L76.8577 107.837H69.4115C69.6479 111.72 70.2625 121.142 70.8299 127.757C75.0848 133.47 77.8033 129.135 78.6306 126.253Z" stroke="#1F1F22" strokeWidth="0.755256"/>
  <path d="M41.0452 41.3116C39.9814 41.3116 31.1169 42.815 31.8261 46.5736M43.1727 46.5736C42.1089 46.5736 37.4994 51.8355 39.2723 55.2182M77.9215 10.4915C78.2761 9.73976 80.049 1.47095 83.9494 1.47095M81.1127 15.7534C82.1765 14.6259 87.1406 8.61219 90.3318 10.4915" stroke="#F9CF6B" strokeWidth="1.51051" stroke-linecap="round"/>
</svg>
