<svg width="486" height="158" viewBox="0 0 486 158" fill="none" xmlns="http://www.w3.org/2000/svg">
<g clipPath="url(#clip0_3410_61033)">
<rect width="486" height="158" fill="#F3F3F8"/>
<path d="M419.815 109.908C411.545 138.735 405.294 164.583 397.024 193.41H365.76C365.76 193.41 329.427 134.438 337.498 135.526C350.705 137.307 359.709 151.46 359.709 151.46C359.709 151.46 350.031 84.4958 356.687 89.1341C369.432 98.0159 370.402 135.526 370.402 135.526C370.402 135.526 374.637 80.9437 380.284 81.0666C385.528 81.1807 387.746 137.14 387.746 137.14C387.746 137.14 398.801 71.6214 402.47 87.5205C405.495 100.63 403.075 110.718 402.47 120.803C401.865 130.887 400.856 141.577 400.856 141.577C400.856 141.577 428.085 81.0804 419.815 109.908Z" fill="#F9CF6B"/>
<path d="M397.024 193.41C405.294 164.583 411.545 138.735 419.815 109.908C428.085 81.0804 400.856 141.577 400.856 141.577C400.856 141.577 401.865 130.887 402.47 120.803C403.075 110.718 405.495 100.63 402.47 87.5205C398.801 71.6214 387.746 137.14 387.746 137.14C387.746 137.14 385.528 81.1807 380.284 81.0666C374.637 80.9437 370.402 135.526 370.402 135.526C370.402 135.526 369.432 98.0159 356.687 89.1341C350.031 84.4958 359.709 151.46 359.709 151.46M359.709 151.46C359.709 151.46 350.705 137.307 337.498 135.526C329.427 134.438 365.76 193.41 365.76 193.41M359.709 151.46C359.709 151.46 365.982 154.223 368.801 157.388C371.898 160.865 373.83 168.199 373.83 168.199" stroke="#1F1F22" strokeWidth="1.32819" stroke-linecap="round" stroke-linejoin="round"/>
<path d="M341.611 74.6133C336.709 77.4096 327.619 85.5676 330.48 95.83" stroke="#F9CF6B" strokeWidth="2.42024" stroke-linecap="round" stroke-linejoin="round"/>
<path d="M351.716 76.5324C344.245 80.7933 330.394 93.2246 334.755 108.863" stroke="#F9CF6B" strokeWidth="2.42024" stroke-linecap="round" stroke-linejoin="round"/>
<path d="M419.717 187.519C425.158 180.859 433.619 164.282 423.932 151.254" stroke="#F9CF6B" strokeWidth="2.42024" stroke-linecap="round" stroke-linejoin="round"/>
<path d="M310.533 2.30825C302.263 31.1358 296.013 56.9831 287.743 85.8106H256.478C256.478 85.8106 220.146 26.8382 228.217 27.9265C241.424 29.7072 250.428 43.8603 250.428 43.8603C250.428 43.8603 240.75 -23.1038 247.405 -18.4655C260.151 -9.58376 261.12 27.9265 261.12 27.9265C261.12 27.9265 265.355 -26.6559 271.003 -26.533C276.246 -26.4189 278.465 29.5405 278.465 29.5405C278.465 29.5405 289.52 -35.9782 293.188 -20.0791C296.213 -6.96948 293.793 3.11883 293.188 13.2032C292.583 23.2875 291.575 33.9771 291.575 33.9771C291.575 33.9771 318.804 -26.5193 310.533 2.30825Z" fill="#F9CF6B"/>
<path d="M287.743 85.8106C296.013 56.9831 302.263 31.1358 310.533 2.30826C318.804 -26.5193 291.575 33.9771 291.575 33.9771C291.575 33.9771 292.583 23.2875 293.188 13.2032C293.793 3.11883 296.213 -6.96948 293.188 -20.0791C289.52 -35.9782 278.465 29.5405 278.465 29.5405C278.465 29.5405 276.246 -26.4189 271.003 -26.533C265.355 -26.6559 261.12 27.9265 261.12 27.9265C261.12 27.9265 260.151 -9.58376 247.405 -18.4655C240.75 -23.1038 250.428 43.8603 250.428 43.8603M250.428 43.8603C250.428 43.8603 241.424 29.7072 228.217 27.9265C220.146 26.8382 256.478 85.8106 256.478 85.8106M250.428 43.8603C250.428 43.8603 256.701 46.6233 259.52 49.7887C262.617 53.2659 264.549 60.5998 264.549 60.5998" stroke="#1F1F22" strokeWidth="1.32819" stroke-linecap="round" stroke-linejoin="round"/>
<path d="M320.555 78.0811C324.126 73.7102 329.679 62.8313 323.321 54.282" stroke="#F9CF6B" strokeWidth="2.42024" stroke-linecap="round" stroke-linejoin="round"/>
<path d="M242.435 -31.0672C234.964 -26.8063 221.113 -14.375 225.473 1.26293" stroke="#F9CF6B" strokeWidth="2.42024" stroke-linecap="round" stroke-linejoin="round"/>
<path d="M310.436 79.9198C315.877 73.2595 324.338 56.6821 314.65 43.6547" stroke="#F9CF6B" strokeWidth="2.42024" stroke-linecap="round" stroke-linejoin="round"/>
<path d="M121.928 144.832C121.928 144.832 132.699 138.517 137.167 132.212C141.27 126.422 142.986 122.353 143.834 115.307C145.062 105.096 127.815 94.1097 137.167 89.8293C143.557 86.9042 149.116 90.5717 154.31 95.3058C160.396 100.852 160.977 115.307 160.977 115.307C160.977 115.307 186.438 104.539 191.931 115.307C194.059 119.478 193.36 127.212 193.36 127.212C193.36 127.212 197.61 131.224 197.884 134.593C198.151 137.881 194.788 142.451 194.788 142.451C194.788 142.451 199.339 146.352 199.074 149.594C198.801 152.942 193.36 156.023 193.36 156.023C193.36 156.023 196.035 158.607 196.455 160.785C197.063 163.939 193.36 168.405 193.36 168.405C193.36 168.405 182.329 174.51 174.549 176.024C166.791 177.533 154.31 176.024 154.31 176.024L134.071 184.12L121.928 144.832Z" fill="#F9CF6B"/>
<path d="M193.36 127.212C193.36 127.212 194.059 119.478 191.931 115.307C186.438 104.539 160.977 115.307 160.977 115.307C160.977 115.307 160.396 100.852 154.31 95.3058C149.116 90.5717 143.557 86.9042 137.167 89.8293C127.815 94.1097 145.062 105.096 143.834 115.307C142.986 122.353 141.27 126.422 137.167 132.212C132.699 138.517 121.928 144.832 121.928 144.832L134.071 184.12L154.31 176.024C154.31 176.024 166.791 177.533 174.549 176.024C182.329 174.51 193.36 168.405 193.36 168.405M193.36 127.212L165.263 132.212M193.36 127.212C193.36 127.212 197.61 131.224 197.884 134.593C198.151 137.881 194.788 142.451 194.788 142.451M165.263 132.212C165.263 132.212 157.044 133.275 155.739 130.93C154.395 128.514 157.896 125.387 160.977 123.879C163.596 122.596 174.549 118.164 174.549 118.164M165.263 132.212C165.263 132.212 153.912 138.419 156.215 142.597C157.601 145.113 160.501 145.455 165.263 145.455C170.025 145.455 194.788 142.451 194.788 142.451M194.788 142.451C194.788 142.451 199.339 146.352 199.074 149.594C198.801 152.942 193.36 156.023 193.36 156.023M193.36 156.023C193.36 156.023 169.787 158.55 165.263 158.312C162.514 158.168 159.054 157.636 158.596 156.023C157.247 151.268 168.12 147.689 168.12 147.689M193.36 156.023C193.36 156.023 196.035 158.607 196.455 160.785C197.063 163.939 193.36 168.405 193.36 168.405M193.36 156.023L169.311 159.979C169.311 159.979 164.948 161.163 163.596 162.36C154.98 169.994 193.36 168.405 193.36 168.405" stroke="black" strokeWidth="1.32819" stroke-linecap="round" stroke-linejoin="round"/>
<path d="M168.336 68.2287C166.037 68.9491 160.966 71.764 159.072 77.2607" stroke="#F9CF6B" strokeWidth="1.90485" stroke-linecap="round" stroke-linejoin="round"/>
<path d="M135.065 63.0709C133.485 64.8885 130.639 69.9423 131.904 75.617" stroke="#F9CF6B" strokeWidth="1.90485" stroke-linecap="round" stroke-linejoin="round"/>
<path d="M169.034 74.7768C166.666 75.9519 161.406 80.0842 159.306 87.2125" stroke="#F9CF6B" strokeWidth="1.90485" stroke-linecap="round" stroke-linejoin="round"/>
<path d="M139.09 68.2825C137.446 69.7125 134.387 73.5028 135.3 77.2245" stroke="#F9CF6B" strokeWidth="1.90485" stroke-linecap="round" stroke-linejoin="round"/>
<path d="M113.362 110.391C116.476 108.191 124.262 104.71 130.497 108.393" stroke="#F9CF6B" strokeWidth="1.90485" stroke-linecap="round" stroke-linejoin="round"/>
<path d="M114.827 100.374C116.612 99.0319 121.456 97.4494 126.555 101.853" stroke="#F9CF6B" strokeWidth="1.90485" stroke-linecap="round" stroke-linejoin="round"/>
<path d="M458.178 55.7265C458.178 55.7265 468.949 49.4114 473.417 43.1069C477.52 37.3163 479.236 33.2474 480.084 26.2013C481.312 15.9903 464.065 5.00427 473.417 0.723878C479.807 -2.20128 485.366 1.46619 490.56 6.20033C496.646 11.7462 497.227 26.2013 497.227 26.2013C497.227 26.2013 522.688 15.4333 528.181 26.2013C530.309 30.3725 529.61 38.1066 529.61 38.1066C529.61 38.1066 533.86 42.1181 534.134 45.4879C534.401 48.7752 531.038 53.3455 531.038 53.3455C531.038 53.3455 535.589 57.2462 535.324 60.4887C535.051 63.8367 529.61 66.9176 529.61 66.9176C529.61 66.9176 532.285 69.5017 532.705 71.6797C533.313 74.8333 529.61 79.2991 529.61 79.2991C529.61 79.2991 518.579 85.4049 510.799 86.9185C503.041 88.428 490.56 86.9185 490.56 86.9185L470.321 95.0142L458.178 55.7265Z" fill="#F9CF6B"/>
<path d="M529.61 38.1066C529.61 38.1066 530.309 30.3725 528.181 26.2013C522.688 15.4333 497.227 26.2013 497.227 26.2013C497.227 26.2013 496.646 11.7462 490.56 6.20033C485.366 1.46619 479.807 -2.20128 473.417 0.723878C464.065 5.00427 481.312 15.9903 480.084 26.2013C479.236 33.2474 477.52 37.3163 473.417 43.1069C468.949 49.4114 458.178 55.7265 458.178 55.7265L470.321 95.0142L490.56 86.9185C490.56 86.9185 503.041 88.428 510.799 86.9185C518.579 85.4049 529.61 79.2991 529.61 79.2991M529.61 38.1066L501.513 43.1069M529.61 38.1066C529.61 38.1066 533.86 42.1181 534.134 45.4879C534.401 48.7752 531.038 53.3455 531.038 53.3455M501.513 43.1069C501.513 43.1069 493.294 44.1697 491.989 41.8246C490.645 39.4087 494.146 36.2816 497.227 34.7731C499.846 33.4908 510.799 29.0586 510.799 29.0586M501.513 43.1069C501.513 43.1069 490.162 49.3131 492.465 53.4918C493.851 56.0071 496.751 56.3491 501.513 56.3491C506.275 56.3491 531.038 53.3455 531.038 53.3455M531.038 53.3455C531.038 53.3455 535.589 57.2462 535.324 60.4887C535.051 63.8367 529.61 66.9176 529.61 66.9176M529.61 66.9176C529.61 66.9176 506.037 69.445 501.513 69.2069C498.764 69.0622 495.304 68.5302 494.846 66.9176C493.497 62.1629 504.37 58.5838 504.37 58.5838M529.61 66.9176C529.61 66.9176 532.285 69.5017 532.705 71.6797C533.313 74.8333 529.61 79.2991 529.61 79.2991M529.61 66.9176L505.561 70.8736C505.561 70.8736 501.198 72.0574 499.846 73.2547C491.23 80.8883 529.61 79.2991 529.61 79.2991" stroke="black" strokeWidth="1.32819" stroke-linecap="round" stroke-linejoin="round"/>
<path d="M449.612 21.2858C452.726 19.0851 460.512 15.6044 466.747 19.287" stroke="#F9CF6B" strokeWidth="1.90485" stroke-linecap="round" stroke-linejoin="round"/>
<path d="M451.077 11.2682C452.862 9.92648 457.706 8.34395 462.805 12.7477" stroke="#F9CF6B" strokeWidth="1.90485" stroke-linecap="round" stroke-linejoin="round"/>
<path d="M16.0098 60.7695C16.0098 60.7695 26.7813 54.4544 31.2486 48.1498C35.3517 42.3593 37.0681 38.2904 37.9156 31.2443C39.1437 21.0333 21.8971 10.0472 31.2486 5.76685C37.6393 2.84169 43.1976 6.50916 48.3923 11.2433C54.4777 16.7891 55.0593 31.2443 55.0593 31.2443C55.0593 31.2443 80.5198 20.4763 86.0132 31.2443C88.1411 35.4155 87.4418 43.1496 87.4418 43.1496C87.4418 43.1496 91.6919 47.1611 91.9658 50.5309C92.233 53.8181 88.8704 58.3884 88.8704 58.3884C88.8704 58.3884 93.4207 62.2892 93.1564 65.5316C92.8834 68.8796 87.4418 71.9605 87.4418 71.9605C87.4418 71.9605 90.1172 74.5447 90.5372 76.7227C91.1453 79.8763 87.4418 84.3421 87.4418 84.3421C87.4418 84.3421 76.4112 90.4478 68.6314 91.9615C60.873 93.471 48.3923 91.9615 48.3923 91.9615L28.1532 100.057L16.0098 60.7695Z" fill="#F9CF6B"/>
<path d="M87.4418 43.1496C87.4418 43.1496 88.1411 35.4155 86.0132 31.2443C80.5198 20.4763 55.0593 31.2443 55.0593 31.2443C55.0593 31.2443 54.4777 16.7891 48.3923 11.2433C43.1976 6.50916 37.6393 2.84169 31.2486 5.76685C21.8971 10.0472 39.1437 21.0333 37.9156 31.2443C37.0681 38.2904 35.3517 42.3593 31.2486 48.1498C26.7813 54.4544 16.0098 60.7695 16.0098 60.7695L28.1532 100.057L48.3923 91.9615C48.3923 91.9615 60.873 93.471 68.6314 91.9615C76.4112 90.4478 87.4418 84.3421 87.4418 84.3421M87.4418 43.1496L59.3452 48.1498M87.4418 43.1496C87.4418 43.1496 91.6919 47.1611 91.9658 50.5309C92.233 53.8181 88.8704 58.3884 88.8704 58.3884M59.3452 48.1498C59.3452 48.1498 51.1259 49.2127 49.8209 46.8675C48.4766 44.4517 51.9782 41.3245 55.0593 39.8161C57.6784 38.5338 68.6314 34.1015 68.6314 34.1015M59.3452 48.1498C59.3452 48.1498 47.9939 54.3561 50.2971 58.5348C51.6835 61.0501 54.5831 61.3921 59.3452 61.3921C64.1073 61.3921 88.8704 58.3884 88.8704 58.3884M88.8704 58.3884C88.8704 58.3884 93.4207 62.2892 93.1564 65.5316C92.8834 68.8796 87.4418 71.9605 87.4418 71.9605M87.4418 71.9605C87.4418 71.9605 63.8692 74.4879 59.3452 74.2498C56.5962 74.1051 53.1358 73.5732 52.6782 71.9605C51.3292 67.2059 62.2025 63.6268 62.2025 63.6268M87.4418 71.9605C87.4418 71.9605 90.1172 74.5447 90.5372 76.7227C91.1453 79.8763 87.4418 84.3421 87.4418 84.3421M87.4418 71.9605L63.393 75.9166C63.393 75.9166 59.0298 77.1003 57.6784 78.2976C49.0624 85.9312 87.4418 84.3421 87.4418 84.3421" stroke="black" strokeWidth="1.32819" stroke-linecap="round" stroke-linejoin="round"/>
<path d="M63.116 -9.2857C60.7485 -8.11058 55.4883 -3.97828 53.3877 3.15004" stroke="#F9CF6B" strokeWidth="1.90485" stroke-linecap="round" stroke-linejoin="round"/>
<path d="M7.44423 26.3288C10.5581 24.1281 18.3444 20.6473 24.5789 24.33" stroke="#F9CF6B" strokeWidth="1.90485" stroke-linecap="round" stroke-linejoin="round"/>
<path d="M8.90906 16.3112C10.6938 14.9694 15.5381 13.3869 20.637 17.7907" stroke="#F9CF6B" strokeWidth="1.90485" stroke-linecap="round" stroke-linejoin="round"/>
</g>
<defs>
<clipPath id="clip0_3410_61033">
<rect width="486" height="158" fill="white"/>
</clipPath>
</defs>
</svg>
