<svg width="36" height="36" viewBox="0 0 36 36" fill="none" xmlns="http://www.w3.org/2000/svg">
<circle cx="18" cy="18" r="18" fill="#677CE8"/>
<path fill-rule="evenodd" clip-rule="evenodd" d="M12 11.1426H24C25.1046 11.1426 26 12.1659 26 13.4283V22.5711C26 23.8335 25.1046 24.8569 24 24.8569H12C10.8954 24.8569 10 23.8335 10 22.5711V13.4283C10 12.1659 10.8954 11.1426 12 11.1426ZM12.8571 12.8569C12.8571 13.1724 12.6013 13.4283 12.2857 13.4283C11.9701 13.4283 11.7143 13.1724 11.7143 12.8569C11.7143 12.5413 11.9701 12.2854 12.2857 12.2854C12.6013 12.2854 12.8571 12.5413 12.8571 12.8569ZM14.5714 13.4283C14.887 13.4283 15.1429 13.1724 15.1429 12.8569C15.1429 12.5413 14.887 12.2854 14.5714 12.2854C14.2558 12.2854 14 12.5413 14 12.8569C14 13.1724 14.2558 13.4283 14.5714 13.4283ZM11.7143 16.8573C11.7143 16.5417 11.9701 16.2859 12.2857 16.2859H23.7143C24.0299 16.2859 24.2857 16.5417 24.2857 16.8573C24.2857 17.1729 24.0299 17.4287 23.7143 17.4287H12.2857C11.9701 17.4287 11.7143 17.1729 11.7143 16.8573ZM12.2857 19.714C11.9701 19.714 11.7143 19.9698 11.7143 20.2854C11.7143 20.601 11.9701 20.8569 12.2857 20.8569H20.2857C20.6013 20.8569 20.8571 20.601 20.8571 20.2854C20.8571 19.9698 20.6013 19.714 20.2857 19.714H12.2857Z" fill="white"/>
</svg>
