<svg width="160" height="121" viewBox="0 0 160 121" fill="none" xmlns="http://www.w3.org/2000/svg">
    <path d="M123.556 70.9877C123.556 70.9877 127.114 72.0881 128.218 73.9387C129.294 75.744 128.655 79.3031 128.655 79.3031C128.655 79.3031 132.354 80.2558 133.114 82.1848C133.898 84.1766 131.651 87.4679 131.651 87.4679C131.651 87.4679 133.908 88.1944 134.76 89.3222C135.994 90.9552 135.13 94.5503 135.13 94.5503C135.13 94.5503 130.536 101.142 126.511 104.194C122.497 107.237 114.934 109.881 114.934 109.881L105.632 120.198L87.6466 101.137L91.4868 80.1268C96.4269 78.3299 103.423 73.5224 108.689 74.2582L116.288 48.6373C116.574 47.0701 117.65 43.8333 119.664 43.424C121.678 43.0146 122.574 45.3595 122.77 46.5831L118.215 74.904L119.276 74.1262L123.556 70.9877Z"
          fill="#F9CF6B"/>
    <path d="M128.655 79.3031C128.655 79.3031 129.294 75.744 128.218 73.9387C127.114 72.0881 123.556 70.9877 123.556 70.9877L119.276 74.1262L118.215 74.904M128.655 79.3031C128.655 79.3031 115.334 87.979 112.61 89.3171C109.886 90.6551 108.131 91.2742 106.632 90.225C104.14 88.4819 108.889 81.7424 108.889 81.7424L118.215 74.904M128.655 79.3031C128.655 79.3031 132.354 80.2558 133.114 82.1848C133.898 84.1766 131.651 87.4679 131.651 87.4679M131.651 87.4679C131.651 87.4679 118.877 95.537 116.223 96.6719C114.61 97.3616 112.481 98.0296 111.766 97.2357C109.658 94.895 114.872 89.7926 114.872 89.7926M131.651 87.4679C131.651 87.4679 133.908 88.1944 134.76 89.3222C135.994 90.9552 135.13 94.5503 135.13 94.5503M131.651 87.4679L119.006 96.488C119.006 96.488 116.843 98.3911 116.407 99.4556C113.623 106.243 135.13 94.5503 135.13 94.5503M135.13 94.5503C135.13 94.5503 130.536 101.142 126.511 104.194C122.497 107.237 114.934 109.881 114.934 109.881L105.632 120.198L87.6466 101.137L91.4868 80.1268C96.4269 78.3299 103.423 73.5224 108.689 74.2582M98.5086 92.7414L98.2661 86.6954C104.005 84.8365 113.71 78.0507 110.114 75.043C109.471 74.5056 109.835 74.4183 108.689 74.2582M118.215 74.904L122.77 46.5831C122.574 45.3595 121.678 43.0146 119.664 43.424C117.65 43.8333 116.574 47.0701 116.288 48.6373L108.689 74.2582"
          stroke="#6E6D79" stroke-width="0.872947" stroke-linecap="round" stroke-linejoin="round"/>
    <path d="M38.4192 73.2055L28.6687 57.2144L21.6045 59.2525L9.68164 48.3682L101.823 18.6606L97.2931 33.5253L92.7721 34.8435L94.0162 52.9212L38.4192 73.2055Z"
          fill="#29292F"/>
    <path d="M28.6687 57.2144L38.4192 73.2055L94.0162 52.9212L92.7672 34.7721L91.5225 35.2079M28.6687 57.2144L21.6045 59.2525L9.68164 48.3682L101.823 18.6606L97.2931 33.5253L91.5225 35.2079M28.6687 57.2144L91.5225 35.2079"
          stroke="#6E6D79" stroke-width="0.963081"/>
    <path d="M37.0466 46.651C26.8204 43.5572 10.2899 45.749 25.9782 79.2675C29.579 89.6239 29.3633 98.2648 28.8053 101.291M28.8053 101.291C27.3979 101.301 24.3177 102.416 23.2561 106.795M28.8053 101.291C27.4708 102.811 24.9284 106.199 25.435 107.586M28.8053 101.291C29.215 103.585 30.1714 108.26 30.7203 108.604M28.8053 101.291C29.9086 102.173 32.3761 103.948 33.4196 103.99"
          stroke="#F9CF6B" stroke-width="0.963081" stroke-linecap="round"/>
    <path d="M142.988 12.5001C140.064 4.84361 131.495 1.00441 123.847 3.92475C116.199 6.8451 112.361 15.4786 115.313 23.1244C116.779 26.9228 119.632 29.7744 123.075 31.317C125.754 32.5173 128.085 34.3803 129.81 36.7557L132.508 40.4612L141.583 36.9958L141.144 32.6765C140.839 29.6947 141.375 26.6889 142.617 23.959C144.214 20.4759 144.467 16.3739 142.988 12.5001Z"
          fill="#F9CF6B"/>
    <path fill-rule="evenodd" clip-rule="evenodd"
          d="M141.523 36.8405L141.091 32.5387C140.791 29.569 141.331 26.5741 142.577 23.853C144.177 20.3811 144.437 16.2947 142.964 12.4382C140.054 4.81589 131.495 1.00441 123.847 3.92475C116.199 6.8451 112.35 15.4506 115.289 23.0623C116.749 26.8437 119.596 29.68 123.035 31.2114C125.71 32.4031 128.037 34.2554 129.758 36.6189L132.448 40.3059L141.523 36.8405ZM132.678 39.5179L140.826 36.4066L140.444 32.6022C140.131 29.5096 140.694 26.3983 141.985 23.5779L141.986 23.5764C143.516 20.2569 143.763 16.3539 142.357 12.6702C139.577 5.39066 131.398 1.74154 124.08 4.53581C116.764 7.32981 113.089 15.5598 115.895 22.828C117.29 26.4407 120.009 29.1501 123.296 30.6141C126.073 31.8506 128.492 33.7746 130.282 36.2341L132.678 39.5179Z"
          fill="#1F1F22"/>
    <path fill-rule="evenodd" clip-rule="evenodd"
          d="M132 39.606L141.441 36.0008L141.549 36.3603C141.647 36.688 141.775 37.0646 141.914 37.4753C141.977 37.6605 142.042 37.8526 142.108 38.0503C142.317 38.6782 142.53 39.3516 142.676 39.987C142.821 40.616 142.909 41.2406 142.847 41.7604C142.784 42.2921 142.553 42.7716 142.019 42.9754L136.665 45.0199C136.173 45.313 135.463 45.1939 134.709 44.4832C133.942 43.7605 133.058 42.3754 132.124 39.9308L132 39.606ZM132.871 40.0177C133.74 42.2142 134.531 43.3932 135.151 43.9785C135.799 44.5891 136.189 44.5017 136.331 44.4105L136.358 44.3927L141.771 42.3258C141.999 42.2388 142.138 42.0393 142.183 41.656C142.23 41.2608 142.165 40.7342 142.026 40.1279C141.887 39.528 141.684 38.8818 141.476 38.2578C141.414 38.0705 141.351 37.8841 141.289 37.7018C141.195 37.4234 141.103 37.1542 141.023 36.9049L132.871 40.0177Z"
          fill="#1F1F22"/>
    <path fill-rule="evenodd" clip-rule="evenodd"
          d="M133.415 25.7294C133.165 26.6281 132.583 27.3568 131.514 27.633C130.516 27.8907 129.637 27.5324 128.93 26.917C128.774 27.5169 128.578 28.0582 128.389 28.4863C128.267 28.7623 128.146 28.9971 128.036 29.1727C128.004 29.224 127.971 29.2724 127.939 29.3165C129.353 31.4207 130.922 33.7625 132.165 35.631C132.808 36.5982 133.364 37.4392 133.765 38.055C133.966 38.3627 134.129 38.6152 134.245 38.7996C134.303 38.8916 134.35 38.9682 134.385 39.0269C134.413 39.0736 134.45 39.1371 134.469 39.1857C134.533 39.3539 134.45 39.5417 134.284 39.6052C134.118 39.6687 133.931 39.5838 133.867 39.4156C133.868 39.42 133.869 39.4225 133.869 39.4225C133.869 39.4225 133.86 39.4052 133.832 39.3587C133.801 39.307 133.758 39.2358 133.701 39.1457C133.587 38.9657 133.427 38.7166 133.227 38.4098C132.827 37.7965 132.272 36.9575 131.63 35.9907C130.344 34.0575 128.708 31.6166 127.256 29.4566C126.522 28.3635 125.834 27.3425 125.263 26.4959C125.163 26.3467 125.2 26.1444 125.347 26.0441C125.494 25.9438 125.695 25.9834 125.796 26.1326C126.303 26.8847 126.902 27.7743 127.545 28.7298C127.621 28.5962 127.708 28.4235 127.799 28.2175C128.013 27.7329 128.239 27.0845 128.396 26.3706C127.834 25.7033 127.394 24.8736 127.094 24.0883C126.913 23.6155 126.781 23.1509 126.702 22.7364C126.624 22.3276 126.595 21.9463 126.638 21.6487C126.659 21.5007 126.701 21.348 126.786 21.2215C126.877 21.0853 127.018 20.9793 127.206 20.9602C127.379 20.9426 127.543 21.0036 127.684 21.0875C127.828 21.1731 127.977 21.2997 128.132 21.4607C129.345 22.7227 129.384 24.6166 129.094 26.1818C129.126 26.2152 129.159 26.2479 129.192 26.2799C129.828 26.8998 130.552 27.2081 131.349 27.0022C132.164 26.7917 132.595 26.261 132.793 25.5489C132.853 25.3365 132.891 25.1084 132.91 24.869C132.563 24.406 132.273 23.8021 132.039 23.1888C131.711 22.3294 131.472 21.3954 131.34 20.6642C131.274 20.2995 131.233 19.9763 131.223 19.7331C131.218 19.6137 131.219 19.499 131.234 19.4034C131.241 19.3567 131.253 19.2976 131.279 19.2401C131.303 19.1886 131.361 19.0856 131.488 19.037C131.621 18.9863 131.737 19.0289 131.795 19.0582C131.855 19.089 131.902 19.1308 131.936 19.1642C132.005 19.2328 132.073 19.325 132.137 19.4239C132.268 19.6262 132.418 19.9135 132.571 20.2545C132.876 20.9381 133.203 21.8721 133.398 22.8453C133.516 23.44 133.588 24.0623 133.569 24.6574C133.627 24.7235 133.687 24.7828 133.747 24.8347C133.943 25.0047 134.121 25.0735 134.283 25.0695C134.445 25.0656 134.654 24.9878 134.909 24.7382C135.439 24.2202 135.809 23.5243 136.044 22.785C136.033 22.7666 136.021 22.7482 136.01 22.7298C135.555 22.005 135.187 21.2035 135.017 20.4776C134.852 19.7738 134.851 19.0347 135.288 18.5533C135.48 18.3421 135.724 18.1849 136.008 18.2136C136.29 18.2421 136.488 18.4425 136.615 18.6488C136.869 19.0597 137.001 19.7361 137.018 20.475C137.034 21.1442 136.955 21.9196 136.749 22.6824C137.133 23.2435 137.564 23.7364 137.979 24.0749C138.222 24.2737 138.448 24.4095 138.645 24.48C138.732 24.5108 138.808 24.5278 138.876 24.5336L138.762 22.0815C138.754 21.9018 138.891 21.7505 139.069 21.7435C139.247 21.7364 139.399 21.8764 139.407 22.056L139.535 24.8096L139.708 37.3062C139.71 37.486 139.568 37.6326 139.39 37.6338C139.212 37.6349 139.065 37.49 139.063 37.3103L138.895 25.1863C138.739 25.1812 138.584 25.147 138.434 25.0934C138.144 24.9899 137.854 24.807 137.575 24.5798C137.206 24.2783 136.837 23.8817 136.499 23.4375C136.237 24.0965 135.865 24.7142 135.36 25.2075C135.03 25.5307 134.676 25.7113 134.304 25.7204C133.999 25.7278 133.723 25.6189 133.482 25.4477C133.463 25.5432 133.441 25.6372 133.415 25.7294ZM136.264 21.887C136.349 21.4034 136.383 20.9241 136.373 20.4849C136.357 19.7824 136.229 19.2496 136.068 18.9899C136.031 18.9291 135.998 18.8947 135.976 18.8769C135.965 18.8685 135.958 18.8646 135.954 18.863C135.95 18.8615 135.949 18.8614 135.949 18.8614C135.949 18.8614 135.946 18.8611 135.941 18.8622C135.936 18.8633 135.925 18.8663 135.91 18.8742C135.878 18.8907 135.829 18.9257 135.766 18.9953C135.556 19.2265 135.491 19.675 135.645 20.3326C135.758 20.8158 135.977 21.3557 136.264 21.887ZM132.85 23.4646C132.827 23.3002 132.798 23.1346 132.765 22.9689C132.582 22.0506 132.271 21.1635 131.983 20.5181C131.975 20.5009 131.967 20.4839 131.96 20.4671C131.965 20.4951 131.97 20.5235 131.975 20.5523C132.101 21.2494 132.33 22.1432 132.641 22.9589C132.708 23.1341 132.778 23.3034 132.85 23.4646ZM131.48 19.6216L131.481 19.6226ZM128.545 25.5008C128.705 24.166 128.535 22.8117 127.67 21.9119C127.539 21.775 127.436 21.6927 127.36 21.6477C127.338 21.6345 127.32 21.6258 127.307 21.62C127.297 21.6459 127.285 21.6866 127.277 21.747C127.249 21.9416 127.264 22.2413 127.336 22.6187C127.406 22.9906 127.528 23.4176 127.696 23.8584C127.911 24.4228 128.199 24.997 128.545 25.5008Z"
          fill="#1F1F22"/>
</svg>
