<svg width="782" height="29" viewBox="0 0 782 29" fill="none" xmlns="http://www.w3.org/2000/svg">
  <circle cx="774" cy="24" r="4" stroke="#F9CF6B" stroke-width="2"/>
  <line x1="13" y1="24" x2="767" y2="23.9999" stroke="#F9CF6B" stroke-width="2" stroke-linecap="round" stroke-dasharray="5 5"/>
  <path d="M768.5 15C768.367 15 768.24 14.9473 768.146 14.8536C768.053 14.7598 768 14.6326 768 14.5V2.12906C768 1.99806 768.034 1.86935 768.1 1.75574C768.165 1.64214 768.259 1.54761 768.372 1.48156C768.75 1.26187 769.512 1 771 1C772.163 1 773.463 1.45969 774.611 1.865C775.535 2.19156 776.408 2.5 777 2.5C777.762 2.49766 778.517 2.34363 779.219 2.04688C779.304 2.01078 779.397 1.99641 779.49 2.00503C779.582 2.01366 779.671 2.04502 779.748 2.09632C779.826 2.14762 779.889 2.21726 779.933 2.29904C779.977 2.38082 780 2.47218 780 2.565V9.42C780 9.5415 779.964 9.66033 779.898 9.76196C779.831 9.86358 779.736 9.94359 779.625 9.99219C779.353 10.1112 778.359 10.5 777 10.5C776.246 10.5 775.301 10.2769 774.3 10.0403C773.176 9.77469 772.013 9.5 771 9.5C769.848 9.5 769.258 9.67437 769 9.78469V14.5C769 14.6326 768.947 14.7598 768.854 14.8536C768.76 14.9473 768.633 15 768.5 15Z" fill="#8533FF"/>
  <path d="M12.125 14C11.5564 14 11.0005 13.8314 10.5277 13.5155C10.0549 13.1996 9.68645 12.7506 9.46885 12.2252C9.25125 11.6999 9.19431 11.1218 9.30524 10.5641C9.41618 10.0064 9.68999 9.49414 10.0921 9.09207C10.4941 8.68999 11.0064 8.41618 11.5641 8.30524C12.1218 8.19431 12.6999 8.25125 13.2252 8.46885C13.7506 8.68645 14.1996 9.05495 14.5155 9.52774C14.8314 10.0005 15 10.5564 15 11.125C14.9992 11.8872 14.696 12.618 14.157 13.157C13.618 13.696 12.8872 13.9992 12.125 14ZM12.125 9.25C11.7542 9.25 11.3916 9.35997 11.0833 9.566C10.775 9.77202 10.5346 10.0649 10.3927 10.4075C10.2508 10.7501 10.2137 11.1271 10.286 11.4908C10.3584 11.8545 10.537 12.1886 10.7992 12.4508C11.0614 12.713 11.3955 12.8916 11.7592 12.964C12.1229 13.0363 12.4999 12.9992 12.8425 12.8573C13.1851 12.7154 13.478 12.475 13.684 12.1667C13.89 11.8584 14 11.4958 14 11.125C13.9994 10.6279 13.8017 10.1513 13.4502 9.79982C13.0987 9.44831 12.6221 9.25058 12.125 9.25ZM3.875 14C3.30638 14 2.75053 13.8314 2.27774 13.5155C1.80495 13.1996 1.43645 12.7506 1.21885 12.2252C1.00125 11.6999 0.944311 11.1218 1.05524 10.5641C1.16618 10.0064 1.43999 9.49414 1.84207 9.09207C2.24415 8.68999 2.75642 8.41618 3.31412 8.30524C3.87181 8.19431 4.44988 8.25125 4.97522 8.46885C5.50055 8.68645 5.94957 9.05495 6.26548 9.52774C6.58139 10.0005 6.75 10.5564 6.75 11.125C6.74917 11.8872 6.44601 12.618 5.90702 13.157C5.36803 13.696 4.63724 13.9992 3.875 14ZM3.875 9.25C3.50416 9.25 3.14165 9.35997 2.83331 9.566C2.52497 9.77202 2.28464 10.0649 2.14273 10.4075C2.00081 10.7501 1.96368 11.1271 2.03603 11.4908C2.10838 11.8545 2.28695 12.1886 2.54918 12.4508C2.8114 12.713 3.14549 12.8916 3.50921 12.964C3.87292 13.0363 4.24992 12.9992 4.59253 12.8573C4.93514 12.7154 5.22798 12.475 5.43401 12.1667C5.64003 11.8584 5.75 11.4958 5.75 11.125C5.74942 10.6279 5.55169 10.1513 5.20019 9.79982C4.84868 9.44831 4.3721 9.25058 3.875 9.25ZM10 4C10.1317 4.00046 10.2622 3.9748 10.3839 3.92451C10.5057 3.87422 10.6162 3.8003 10.7092 3.70702C10.8022 3.61374 10.8758 3.50295 10.9257 3.38106C10.9756 3.25916 11.0009 3.12859 11 2.99688C11.0015 2.86582 10.9768 2.73579 10.9274 2.61439C10.878 2.49299 10.8049 2.38266 10.7124 2.28984C10.6199 2.19702 10.5097 2.12358 10.3885 2.07381C10.2673 2.02405 10.1373 1.99895 10.0063 2C9.87493 1.99959 9.74481 2.02505 9.62333 2.07493C9.50185 2.1248 9.39138 2.19812 9.29823 2.29068C9.20508 2.38325 9.13108 2.49326 9.08044 2.61443C9.02981 2.7356 9.00354 2.86555 9.00313 2.99688C9.00272 3.1282 9.02818 3.25831 9.07805 3.3798C9.12793 3.50128 9.20124 3.61175 9.29381 3.7049C9.38638 3.79805 9.49639 3.87205 9.61756 3.92268C9.73872 3.97332 9.86868 3.99959 10 4Z" fill="#8533FF"/>
  <path d="M11.4859 6H10.1184C10.096 6.00001 10.074 5.99397 10.0547 5.98254C10.0354 5.9711 10.0195 5.95468 10.0087 5.935L9.01688 4.11719C8.94699 3.9821 8.84628 3.86536 8.72289 3.77643C8.5995 3.6875 8.45691 3.62886 8.30665 3.60528C8.15639 3.5817 8.00269 3.59383 7.85799 3.64069C7.71329 3.68755 7.58166 3.76782 7.47375 3.875L5.29063 6.075C5.10722 6.2622 5.00311 6.51295 5 6.775C5 7.31875 5.39375 7.5125 5.57812 7.62188C6.46875 8.135 7.09594 8.51031 7.44 8.71875C7.45829 8.72989 7.47342 8.74553 7.48392 8.76419C7.49443 8.78285 7.49996 8.8039 7.5 8.82531V10.9853C7.5 11.2544 7.70687 11.4853 7.97594 11.4988C8.04349 11.502 8.111 11.4915 8.17438 11.4679C8.23777 11.4443 8.29571 11.4081 8.3447 11.3615C8.39369 11.3149 8.43271 11.2588 8.45941 11.1967C8.4861 11.1345 8.49991 11.0676 8.5 11V8.3125C8.50005 8.23313 8.48119 8.15488 8.445 8.08424C8.40881 8.0136 8.35632 7.95259 8.29187 7.90625L7.13562 7.07469C7.12111 7.0643 7.10899 7.05093 7.10008 7.03547C7.09116 7.02001 7.08566 7.00282 7.08394 6.98506C7.08223 6.9673 7.08433 6.94937 7.09012 6.93249C7.09591 6.91561 7.10524 6.90016 7.1175 6.88719L8.43 5.4875C8.44346 5.4731 8.46013 5.46209 8.47865 5.45536C8.49718 5.44863 8.51703 5.44638 8.5366 5.44878C8.55616 5.45119 8.57487 5.45819 8.59122 5.46921C8.60756 5.48023 8.62106 5.49496 8.63062 5.51219L9.3125 6.74281C9.35584 6.82082 9.41926 6.88581 9.49619 6.93104C9.57313 6.97626 9.66076 7.00008 9.75 7H11.5C11.5677 7.00008 11.6348 6.98639 11.6971 6.95978C11.7594 6.93316 11.8156 6.89416 11.8623 6.84515C11.9091 6.79614 11.9454 6.73815 11.9691 6.67468C11.9927 6.61121 12.0033 6.5436 12 6.47594C11.9869 6.20688 11.755 6 11.4859 6Z" fill="#8533FF"/>
  <path d="M199 20L203 24.2105L199 28" stroke="#F9CF6B" stroke-width="2" stroke-linecap="round" stroke-linejoin="round"/>
  <path d="M389 20L393 24.2105L389 28" stroke="#F9CF6B" stroke-width="2" stroke-linecap="round" stroke-linejoin="round"/>
  <path d="M579 20L583 24.2105L579 28" stroke="#F9CF6B" stroke-width="2" stroke-linecap="round" stroke-linejoin="round"/>
</svg>
