<svg width="188" height="104" viewBox="0 0 188 104" fill="none" xmlns="http://www.w3.org/2000/svg">
    <rect x="2" y="2" width="184" height="100" rx="18" stroke="black" stroke-width="4"/>
    <path
        d="M25.9219 30.7949H23.5879V36H20.6582V21.7812H25.9414C27.6211 21.7812 28.9167 22.1556 29.8281 22.9043C30.7396 23.653 31.1953 24.7109 31.1953 26.0781C31.1953 27.0482 30.9837 27.8587 30.5605 28.5098C30.1439 29.1543 29.5091 29.6686 28.6562 30.0527L31.7324 35.8633V36H28.5879L25.9219 30.7949ZM23.5879 28.4219H25.9512C26.6868 28.4219 27.2565 28.2363 27.6602 27.8652C28.0638 27.4876 28.2656 26.9701 28.2656 26.3125C28.2656 25.6419 28.0736 25.1146 27.6895 24.7305C27.3118 24.3464 26.7292 24.1543 25.9414 24.1543H23.5879V28.4219ZM38.1094 36.1953C36.5599 36.1953 35.2969 35.7201 34.3203 34.7695C33.3503 33.819 32.8652 32.5527 32.8652 30.9707V30.6973C32.8652 29.6361 33.0703 28.6888 33.4805 27.8555C33.8906 27.0156 34.4701 26.3711 35.2188 25.9219C35.974 25.4661 36.8333 25.2383 37.7969 25.2383C39.2422 25.2383 40.3783 25.694 41.2051 26.6055C42.0384 27.5169 42.4551 28.8092 42.4551 30.4824V31.6348H35.7266C35.8177 32.3249 36.0911 32.8783 36.5469 33.2949C37.0091 33.7116 37.5918 33.9199 38.2949 33.9199C39.3822 33.9199 40.2318 33.526 40.8438 32.7383L42.2305 34.291C41.8073 34.89 41.2344 35.3587 40.5117 35.6973C39.7891 36.0293 38.9883 36.1953 38.1094 36.1953ZM37.7871 27.5234C37.2272 27.5234 36.7715 27.7122 36.4199 28.0898C36.0749 28.4674 35.8535 29.0078 35.7559 29.7109H39.6816V29.4863C39.6686 28.8613 39.4993 28.3796 39.1738 28.041C38.8483 27.696 38.3861 27.5234 37.7871 27.5234ZM53.5781 30.8145C53.5781 32.4421 53.207 33.7474 52.4648 34.7305C51.7292 35.707 50.7331 36.1953 49.4766 36.1953C48.4089 36.1953 47.5462 35.8242 46.8887 35.082V40.0625H44.0664V25.4336H46.6836L46.7812 26.4688C47.4648 25.6484 48.3568 25.2383 49.457 25.2383C50.7591 25.2383 51.7715 25.7201 52.4941 26.6836C53.2168 27.6471 53.5781 28.9753 53.5781 30.668V30.8145ZM50.7559 30.6094C50.7559 29.6263 50.5801 28.8678 50.2285 28.334C49.8835 27.8001 49.3789 27.5332 48.7148 27.5332C47.8294 27.5332 47.2207 27.8717 46.8887 28.5488V32.875C47.2337 33.5716 47.849 33.9199 48.7344 33.9199C50.082 33.9199 50.7559 32.8164 50.7559 30.6094ZM58.3145 36H55.4824V21H58.3145V36ZM66.7715 36C66.6413 35.7461 66.5469 35.4303 66.4883 35.0527C65.8047 35.8145 64.916 36.1953 63.8223 36.1953C62.7871 36.1953 61.9277 35.8958 61.2441 35.2969C60.5671 34.6979 60.2285 33.9427 60.2285 33.0312C60.2285 31.9115 60.6419 31.0521 61.4688 30.4531C62.3021 29.8542 63.5033 29.5514 65.0723 29.5449H66.3711V28.9395C66.3711 28.4512 66.2441 28.0605 65.9902 27.7676C65.7428 27.4746 65.349 27.3281 64.8086 27.3281C64.3333 27.3281 63.959 27.4421 63.6855 27.6699C63.4186 27.8978 63.2852 28.2103 63.2852 28.6074H60.4629C60.4629 27.9954 60.6517 27.429 61.0293 26.9082C61.4069 26.3874 61.9408 25.9805 62.6309 25.6875C63.321 25.388 64.0957 25.2383 64.9551 25.2383C66.2572 25.2383 67.2891 25.5671 68.0508 26.2246C68.819 26.8757 69.2031 27.7936 69.2031 28.9785V33.5586C69.2096 34.5612 69.3496 35.3197 69.623 35.834V36H66.7715ZM64.4375 34.0371C64.8542 34.0371 65.2383 33.946 65.5898 33.7637C65.9414 33.5749 66.2018 33.3242 66.3711 33.0117V31.1953H65.3164C63.9036 31.1953 63.1517 31.6836 63.0605 32.6602L63.0508 32.8262C63.0508 33.1777 63.1745 33.4674 63.4219 33.6953C63.6693 33.9232 64.0078 34.0371 64.4375 34.0371ZM75.7656 33.9199C76.2865 33.9199 76.7096 33.7767 77.0352 33.4902C77.3607 33.2038 77.5299 32.8229 77.543 32.3477H80.1895C80.1829 33.0638 79.9876 33.7214 79.6035 34.3203C79.2194 34.9128 78.6921 35.375 78.0215 35.707C77.3574 36.0326 76.6217 36.1953 75.8145 36.1953C74.304 36.1953 73.1126 35.7168 72.2402 34.7598C71.3678 33.7962 70.9316 32.4681 70.9316 30.7754V30.5898C70.9316 28.9622 71.3646 27.6634 72.2305 26.6934C73.0964 25.7233 74.2845 25.2383 75.7949 25.2383C77.1165 25.2383 78.1745 25.6159 78.9688 26.3711C79.7695 27.1198 80.1764 28.1191 80.1895 29.3691H77.543C77.5299 28.8223 77.3607 28.3796 77.0352 28.041C76.7096 27.696 76.2799 27.5234 75.7461 27.5234C75.0885 27.5234 74.5905 27.7643 74.252 28.2461C73.9199 28.7214 73.7539 29.4961 73.7539 30.5703V30.8633C73.7539 31.9505 73.9199 32.7318 74.252 33.207C74.584 33.6823 75.0885 33.9199 75.7656 33.9199ZM86.6641 36.1953C85.1146 36.1953 83.8516 35.7201 82.875 34.7695C81.9049 33.819 81.4199 32.5527 81.4199 30.9707V30.6973C81.4199 29.6361 81.625 28.6888 82.0352 27.8555C82.4453 27.0156 83.0247 26.3711 83.7734 25.9219C84.5286 25.4661 85.388 25.2383 86.3516 25.2383C87.7969 25.2383 88.9329 25.694 89.7598 26.6055C90.5931 27.5169 91.0098 28.8092 91.0098 30.4824V31.6348H84.2812C84.3724 32.3249 84.6458 32.8783 85.1016 33.2949C85.5638 33.7116 86.1465 33.9199 86.8496 33.9199C87.9368 33.9199 88.7865 33.526 89.3984 32.7383L90.7852 34.291C90.362 34.89 89.7891 35.3587 89.0664 35.6973C88.3438 36.0293 87.543 36.1953 86.6641 36.1953ZM86.3418 27.5234C85.7819 27.5234 85.3262 27.7122 84.9746 28.0898C84.6296 28.4674 84.4082 29.0078 84.3105 29.7109H88.2363V29.4863C88.2233 28.8613 88.054 28.3796 87.7285 28.041C87.403 27.696 86.9408 27.5234 86.3418 27.5234ZM100.248 25.4336L100.336 26.6152C101.085 25.6973 102.097 25.2383 103.373 25.2383C104.734 25.2383 105.668 25.7754 106.176 26.8496C106.918 25.7754 107.976 25.2383 109.35 25.2383C110.495 25.2383 111.348 25.5736 111.908 26.2441C112.468 26.9082 112.748 27.9108 112.748 29.252V36H109.916V29.2617C109.916 28.6628 109.799 28.2266 109.564 27.9531C109.33 27.6732 108.917 27.5332 108.324 27.5332C107.478 27.5332 106.892 27.9368 106.566 28.7441L106.576 36H103.754V29.2715C103.754 28.6595 103.633 28.2168 103.393 27.9434C103.152 27.6699 102.742 27.5332 102.162 27.5332C101.361 27.5332 100.782 27.8652 100.424 28.5293V36H97.6016V25.4336H100.248ZM119.789 36.1953C118.24 36.1953 116.977 35.7201 116 34.7695C115.03 33.819 114.545 32.5527 114.545 30.9707V30.6973C114.545 29.6361 114.75 28.6888 115.16 27.8555C115.57 27.0156 116.15 26.3711 116.898 25.9219C117.654 25.4661 118.513 25.2383 119.477 25.2383C120.922 25.2383 122.058 25.694 122.885 26.6055C123.718 27.5169 124.135 28.8092 124.135 30.4824V31.6348H117.406C117.497 32.3249 117.771 32.8783 118.227 33.2949C118.689 33.7116 119.271 33.9199 119.975 33.9199C121.062 33.9199 121.911 33.526 122.523 32.7383L123.91 34.291C123.487 34.89 122.914 35.3587 122.191 35.6973C121.469 36.0293 120.668 36.1953 119.789 36.1953ZM119.467 27.5234C118.907 27.5234 118.451 27.7122 118.1 28.0898C117.755 28.4674 117.533 29.0078 117.436 29.7109H121.361V29.4863C121.348 28.8613 121.179 28.3796 120.854 28.041C120.528 27.696 120.066 27.5234 119.467 27.5234ZM139.916 32.1621L141.303 25.4336H144.027L141.332 36H138.969L136.967 29.3496L134.965 36H132.611L129.916 25.4336H132.641L134.018 32.1523L135.951 25.4336H137.992L139.916 32.1621ZM148.412 36H145.58V25.4336H148.412V36ZM145.414 22.6992C145.414 22.276 145.554 21.9277 145.834 21.6543C146.12 21.3809 146.508 21.2441 146.996 21.2441C147.478 21.2441 147.862 21.3809 148.148 21.6543C148.435 21.9277 148.578 22.276 148.578 22.6992C148.578 23.1289 148.432 23.4805 148.139 23.7539C147.852 24.0273 147.471 24.1641 146.996 24.1641C146.521 24.1641 146.137 24.0273 145.844 23.7539C145.557 23.4805 145.414 23.1289 145.414 22.6992ZM154.125 22.8359V25.4336H155.932V27.5039H154.125V32.7773C154.125 33.168 154.2 33.4479 154.35 33.6172C154.499 33.7865 154.786 33.8711 155.209 33.8711C155.521 33.8711 155.798 33.8483 156.039 33.8027V35.9414C155.486 36.1107 154.916 36.1953 154.33 36.1953C152.351 36.1953 151.342 35.196 151.303 33.1973V27.5039H149.76V25.4336H151.303V22.8359H154.125ZM160.258 26.5859C161.007 25.6875 161.947 25.2383 163.08 25.2383C165.372 25.2383 166.534 26.5697 166.566 29.2324V36H163.744V29.3105C163.744 28.7051 163.614 28.2591 163.354 27.9727C163.093 27.6797 162.66 27.5332 162.055 27.5332C161.228 27.5332 160.629 27.8522 160.258 28.4902V36H157.436V21H160.258V26.5859ZM22.3379 56.0801C22.3379 55.735 22.1654 55.4648 21.8203 55.2695C21.4818 55.0677 20.9349 54.8887 20.1797 54.7324C17.6667 54.2051 16.4102 53.1374 16.4102 51.5293C16.4102 50.5918 16.7975 49.8105 17.5723 49.1855C18.3535 48.554 19.3724 48.2383 20.6289 48.2383C21.9701 48.2383 23.041 48.554 23.8418 49.1855C24.6491 49.8171 25.0527 50.6374 25.0527 51.6465H22.2305C22.2305 51.2428 22.1003 50.9108 21.8398 50.6504C21.5794 50.3835 21.1725 50.25 20.6191 50.25C20.1439 50.25 19.776 50.3574 19.5156 50.5723C19.2552 50.7871 19.125 51.0605 19.125 51.3926C19.125 51.7051 19.2715 51.959 19.5645 52.1543C19.8639 52.3431 20.3652 52.5091 21.0684 52.6523C21.7715 52.7891 22.3639 52.9453 22.8457 53.1211C24.3366 53.668 25.082 54.6152 25.082 55.9629C25.082 56.9264 24.6686 57.7077 23.8418 58.3066C23.015 58.8991 21.9473 59.1953 20.6387 59.1953C19.7533 59.1953 18.9655 59.0391 18.2754 58.7266C17.5918 58.4076 17.0547 57.9746 16.6641 57.4277C16.2734 56.8743 16.0781 56.2786 16.0781 55.6406H18.7539C18.7799 56.1419 18.9655 56.526 19.3105 56.793C19.6556 57.0599 20.1178 57.1934 20.6973 57.1934C21.2376 57.1934 21.6445 57.0924 21.918 56.8906C22.1979 56.6823 22.3379 56.4121 22.3379 56.0801ZM30.8633 55.5527L32.8262 48.4336H35.7754L32.2109 59H29.5156L25.9512 48.4336H28.9004L30.8633 55.5527ZM36.4785 53.6387C36.4785 52.0176 36.8626 50.7122 37.6309 49.7227C38.4056 48.7331 39.4473 48.2383 40.7559 48.2383C41.9147 48.2383 42.8164 48.6354 43.4609 49.4297L43.5781 48.4336H46.1367V58.6484C46.1367 59.5729 45.9251 60.377 45.502 61.0605C45.0853 61.7441 44.4961 62.265 43.7344 62.623C42.9727 62.9811 42.0807 63.1602 41.0586 63.1602C40.2839 63.1602 39.5286 63.0039 38.793 62.6914C38.0573 62.3854 37.5007 61.9883 37.123 61.5L38.373 59.7812C39.0762 60.569 39.929 60.9629 40.9316 60.9629C41.6803 60.9629 42.263 60.7611 42.6797 60.3574C43.0964 59.9603 43.3047 59.3939 43.3047 58.6582V58.0918C42.6536 58.8275 41.7975 59.1953 40.7363 59.1953C39.4668 59.1953 38.4382 58.7005 37.6504 57.7109C36.8691 56.7148 36.4785 55.3965 36.4785 53.7559V53.6387ZM39.3008 53.8438C39.3008 54.8008 39.4928 55.5527 39.877 56.0996C40.2611 56.64 40.7884 56.9102 41.459 56.9102C42.3184 56.9102 42.9336 56.5879 43.3047 55.9434V51.5C42.9271 50.8555 42.3184 50.5332 41.4785 50.5332C40.8014 50.5332 40.2676 50.8099 39.877 51.3633C39.4928 51.9167 39.3008 52.7435 39.3008 53.8438ZM57.6895 56.9199C58.2103 56.9199 58.6335 56.7767 58.959 56.4902C59.2845 56.2038 59.4538 55.8229 59.4668 55.3477H62.1133C62.1068 56.0638 61.9115 56.7214 61.5273 57.3203C61.1432 57.9128 60.6159 58.375 59.9453 58.707C59.2812 59.0326 58.5456 59.1953 57.7383 59.1953C56.2279 59.1953 55.0365 58.7168 54.1641 57.7598C53.2917 56.7962 52.8555 55.4681 52.8555 53.7754V53.5898C52.8555 51.9622 53.2884 50.6634 54.1543 49.6934C55.0202 48.7233 56.2083 48.2383 57.7188 48.2383C59.0404 48.2383 60.0983 48.6159 60.8926 49.3711C61.6934 50.1198 62.1003 51.1191 62.1133 52.3691H59.4668C59.4538 51.8223 59.2845 51.3796 58.959 51.041C58.6335 50.696 58.2038 50.5234 57.6699 50.5234C57.0124 50.5234 56.5143 50.7643 56.1758 51.2461C55.8438 51.7214 55.6777 52.4961 55.6777 53.5703V53.8633C55.6777 54.9505 55.8438 55.7318 56.1758 56.207C56.5078 56.6823 57.0124 56.9199 57.6895 56.9199ZM63.2852 53.6191C63.2852 52.571 63.487 51.6367 63.8906 50.8164C64.2943 49.9961 64.8737 49.3613 65.6289 48.9121C66.3906 48.4629 67.2728 48.2383 68.2754 48.2383C69.7012 48.2383 70.8633 48.6745 71.7617 49.5469C72.6667 50.4193 73.1712 51.6042 73.2754 53.1016L73.2949 53.8242C73.2949 55.4453 72.8424 56.7474 71.9375 57.7305C71.0326 58.707 69.8184 59.1953 68.2949 59.1953C66.7715 59.1953 65.554 58.707 64.6426 57.7305C63.7376 56.7539 63.2852 55.4258 63.2852 53.7461V53.6191ZM66.1074 53.8242C66.1074 54.8268 66.2962 55.5951 66.6738 56.1289C67.0514 56.6562 67.5918 56.9199 68.2949 56.9199C68.9785 56.9199 69.5124 56.6595 69.8965 56.1387C70.2806 55.6113 70.4727 54.7715 70.4727 53.6191C70.4727 52.6361 70.2806 51.8743 69.8965 51.334C69.5124 50.7936 68.972 50.5234 68.2754 50.5234C67.5853 50.5234 67.0514 50.7936 66.6738 51.334C66.2962 51.8678 66.1074 52.6979 66.1074 53.8242ZM74.5938 53.6387C74.5938 51.9915 74.9616 50.6797 75.6973 49.7031C76.4395 48.7266 77.4518 48.2383 78.7344 48.2383C79.763 48.2383 80.6126 48.6224 81.2832 49.3906V44H84.1152V59H81.5664L81.4297 57.877C80.7266 58.7559 79.8216 59.1953 78.7148 59.1953C77.4714 59.1953 76.472 58.707 75.7168 57.7305C74.9681 56.7474 74.5938 55.3835 74.5938 53.6387ZM77.416 53.8438C77.416 54.8333 77.5885 55.5918 77.9336 56.1191C78.2786 56.6465 78.7799 56.9102 79.4375 56.9102C80.3099 56.9102 80.9251 56.5423 81.2832 55.8066V51.6367C80.9316 50.901 80.3229 50.5332 79.457 50.5332C78.0964 50.5332 77.416 51.6367 77.416 53.8438ZM91.166 59.1953C89.6165 59.1953 88.3535 58.7201 87.377 57.7695C86.4069 56.819 85.9219 55.5527 85.9219 53.9707V53.6973C85.9219 52.6361 86.127 51.6888 86.5371 50.8555C86.9473 50.0156 87.5267 49.3711 88.2754 48.9219C89.0306 48.4661 89.89 48.2383 90.8535 48.2383C92.2988 48.2383 93.4349 48.694 94.2617 49.6055C95.0951 50.5169 95.5117 51.8092 95.5117 53.4824V54.6348H88.7832C88.8743 55.3249 89.1478 55.8783 89.6035 56.2949C90.0658 56.7116 90.6484 56.9199 91.3516 56.9199C92.4388 56.9199 93.2884 56.526 93.9004 55.7383L95.2871 57.291C94.8639 57.89 94.291 58.3587 93.5684 58.6973C92.8457 59.0293 92.0449 59.1953 91.166 59.1953ZM90.8438 50.5234C90.2839 50.5234 89.8281 50.7122 89.4766 51.0898C89.1315 51.4674 88.9102 52.0078 88.8125 52.7109H92.7383V52.4863C92.7253 51.8613 92.556 51.3796 92.2305 51.041C91.9049 50.696 91.4427 50.5234 90.8438 50.5234ZM102.875 59V50.5039H101.303V48.4336H102.875V47.5352C102.875 46.3503 103.214 45.4323 103.891 44.7812C104.574 44.1237 105.528 43.7949 106.752 43.7949C107.143 43.7949 107.621 43.86 108.188 43.9902L108.158 46.1777C107.924 46.1191 107.637 46.0898 107.299 46.0898C106.238 46.0898 105.707 46.5879 105.707 47.584V48.4336H107.807V50.5039H105.707V59H102.875ZM108.832 53.6191C108.832 52.571 109.034 51.6367 109.438 50.8164C109.841 49.9961 110.421 49.3613 111.176 48.9121C111.938 48.4629 112.82 48.2383 113.822 48.2383C115.248 48.2383 116.41 48.6745 117.309 49.5469C118.214 50.4193 118.718 51.6042 118.822 53.1016L118.842 53.8242C118.842 55.4453 118.389 56.7474 117.484 57.7305C116.579 58.707 115.365 59.1953 113.842 59.1953C112.318 59.1953 111.101 58.707 110.189 57.7305C109.285 56.7539 108.832 55.4258 108.832 53.7461V53.6191ZM111.654 53.8242C111.654 54.8268 111.843 55.5951 112.221 56.1289C112.598 56.6562 113.139 56.9199 113.842 56.9199C114.525 56.9199 115.059 56.6595 115.443 56.1387C115.827 55.6113 116.02 54.7715 116.02 53.6191C116.02 52.6361 115.827 51.8743 115.443 51.334C115.059 50.7936 114.519 50.5234 113.822 50.5234C113.132 50.5234 112.598 50.7936 112.221 51.334C111.843 51.8678 111.654 52.6979 111.654 53.8242ZM126.518 51.0801C126.133 51.028 125.795 51.002 125.502 51.002C124.434 51.002 123.734 51.3633 123.402 52.0859V59H120.58V48.4336H123.246L123.324 49.6934C123.891 48.7233 124.675 48.2383 125.678 48.2383C125.99 48.2383 126.283 48.2806 126.557 48.3652L126.518 51.0801ZM136.811 55.0059L138.764 48.4336H141.791L137.543 60.6406L137.309 61.1973C136.677 62.5775 135.635 63.2676 134.184 63.2676C133.773 63.2676 133.357 63.2057 132.934 63.082V60.9434L133.363 60.9531C133.897 60.9531 134.294 60.8717 134.555 60.709C134.822 60.5462 135.03 60.276 135.18 59.8984L135.512 59.0293L131.811 48.4336H134.848L136.811 55.0059ZM142.309 53.6191C142.309 52.571 142.51 51.6367 142.914 50.8164C143.318 49.9961 143.897 49.3613 144.652 48.9121C145.414 48.4629 146.296 48.2383 147.299 48.2383C148.725 48.2383 149.887 48.6745 150.785 49.5469C151.69 50.4193 152.195 51.6042 152.299 53.1016L152.318 53.8242C152.318 55.4453 151.866 56.7474 150.961 57.7305C150.056 58.707 148.842 59.1953 147.318 59.1953C145.795 59.1953 144.577 58.707 143.666 57.7305C142.761 56.7539 142.309 55.4258 142.309 53.7461V53.6191ZM145.131 53.8242C145.131 54.8268 145.32 55.5951 145.697 56.1289C146.075 56.6562 146.615 56.9199 147.318 56.9199C148.002 56.9199 148.536 56.6595 148.92 56.1387C149.304 55.6113 149.496 54.7715 149.496 53.6191C149.496 52.6361 149.304 51.8743 148.92 51.334C148.536 50.7936 147.995 50.5234 147.299 50.5234C146.609 50.5234 146.075 50.7936 145.697 51.334C145.32 51.8678 145.131 52.6979 145.131 53.8242ZM160.385 57.9258C159.688 58.7721 158.725 59.1953 157.494 59.1953C156.361 59.1953 155.495 58.8698 154.896 58.2188C154.304 57.5677 154.001 56.6139 153.988 55.3574V48.4336H156.811V55.2598C156.811 56.36 157.312 56.9102 158.314 56.9102C159.271 56.9102 159.929 56.5781 160.287 55.9141V48.4336H163.119V59H160.463L160.385 57.9258ZM171.186 51.0801C170.801 51.028 170.463 51.002 170.17 51.002C169.102 51.002 168.402 51.3633 168.07 52.0859V59H165.248V48.4336H167.914L167.992 49.6934C168.559 48.7233 169.343 48.2383 170.346 48.2383C170.658 48.2383 170.951 48.2806 171.225 48.3652L171.186 51.0801ZM46.3223 82H43.4902V71.4336H46.3223V82ZM43.3242 68.6992C43.3242 68.276 43.4642 67.9277 43.7441 67.6543C44.0306 67.3809 44.418 67.2441 44.9062 67.2441C45.388 67.2441 45.7721 67.3809 46.0586 67.6543C46.3451 67.9277 46.4883 68.276 46.4883 68.6992C46.4883 69.1289 46.3418 69.4805 46.0488 69.7539C45.7624 70.0273 45.3815 70.1641 44.9062 70.1641C44.431 70.1641 44.0469 70.0273 43.7539 69.7539C43.4674 69.4805 43.3242 69.1289 43.3242 68.6992ZM53.0508 79.9199C53.5716 79.9199 53.9948 79.7767 54.3203 79.4902C54.6458 79.2038 54.8151 78.8229 54.8281 78.3477H57.4746C57.4681 79.0638 57.2728 79.7214 56.8887 80.3203C56.5046 80.9128 55.9772 81.375 55.3066 81.707C54.6426 82.0326 53.9069 82.1953 53.0996 82.1953C51.5892 82.1953 50.3978 81.7168 49.5254 80.7598C48.653 79.7962 48.2168 78.4681 48.2168 76.7754V76.5898C48.2168 74.9622 48.6497 73.6634 49.5156 72.6934C50.3815 71.7233 51.5697 71.2383 53.0801 71.2383C54.4017 71.2383 55.4596 71.6159 56.2539 72.3711C57.0547 73.1198 57.4616 74.1191 57.4746 75.3691H54.8281C54.8151 74.8223 54.6458 74.3796 54.3203 74.041C53.9948 73.696 53.5651 73.5234 53.0312 73.5234C52.3737 73.5234 51.8757 73.7643 51.5371 74.2461C51.2051 74.7214 51.0391 75.4961 51.0391 76.5703V76.8633C51.0391 77.9505 51.2051 78.7318 51.5371 79.207C51.8691 79.6823 52.3737 79.9199 53.0508 79.9199ZM58.6465 76.6191C58.6465 75.571 58.8483 74.6367 59.252 73.8164C59.6556 72.9961 60.235 72.3613 60.9902 71.9121C61.752 71.4629 62.6341 71.2383 63.6367 71.2383C65.0625 71.2383 66.2246 71.6745 67.123 72.5469C68.028 73.4193 68.5326 74.6042 68.6367 76.1016L68.6562 76.8242C68.6562 78.4453 68.2038 79.7474 67.2988 80.7305C66.3939 81.707 65.1797 82.1953 63.6562 82.1953C62.1328 82.1953 60.9154 81.707 60.0039 80.7305C59.099 79.7539 58.6465 78.4258 58.6465 76.7461V76.6191ZM61.4688 76.8242C61.4688 77.8268 61.6576 78.5951 62.0352 79.1289C62.4128 79.6562 62.9531 79.9199 63.6562 79.9199C64.3398 79.9199 64.8737 79.6595 65.2578 79.1387C65.6419 78.6113 65.834 77.7715 65.834 76.6191C65.834 75.6361 65.6419 74.8743 65.2578 74.334C64.8737 73.7936 64.3333 73.5234 63.6367 73.5234C62.9466 73.5234 62.4128 73.7936 62.0352 74.334C61.6576 74.8678 61.4688 75.6979 61.4688 76.8242ZM72.9922 71.4336L73.0801 72.6543C73.8353 71.7103 74.8477 71.2383 76.1172 71.2383C77.237 71.2383 78.0703 71.5671 78.6172 72.2246C79.1641 72.8822 79.444 73.8652 79.457 75.1738V82H76.6348V75.2422C76.6348 74.6432 76.5046 74.2103 76.2441 73.9434C75.9837 73.6699 75.5508 73.5332 74.9453 73.5332C74.151 73.5332 73.5553 73.8717 73.1582 74.5488V82H70.3359V71.4336H72.9922ZM96.0977 76.8145C96.0977 78.4421 95.7266 79.7474 94.9844 80.7305C94.2487 81.707 93.2526 82.1953 91.9961 82.1953C90.9284 82.1953 90.0658 81.8242 89.4082 81.082V86.0625H86.5859V71.4336H89.2031L89.3008 72.4688C89.9844 71.6484 90.8763 71.2383 91.9766 71.2383C93.2786 71.2383 94.291 71.7201 95.0137 72.6836C95.7363 73.6471 96.0977 74.9753 96.0977 76.668V76.8145ZM93.2754 76.6094C93.2754 75.6263 93.0996 74.8678 92.748 74.334C92.403 73.8001 91.8984 73.5332 91.2344 73.5332C90.349 73.5332 89.7402 73.8717 89.4082 74.5488V78.875C89.7533 79.5716 90.3685 79.9199 91.2539 79.9199C92.6016 79.9199 93.2754 78.8164 93.2754 76.6094ZM100.834 82H98.002V67H100.834V82ZM108.031 82.1953C106.482 82.1953 105.219 81.7201 104.242 80.7695C103.272 79.819 102.787 78.5527 102.787 76.9707V76.6973C102.787 75.6361 102.992 74.6888 103.402 73.8555C103.812 73.0156 104.392 72.3711 105.141 71.9219C105.896 71.4661 106.755 71.2383 107.719 71.2383C109.164 71.2383 110.3 71.694 111.127 72.6055C111.96 73.5169 112.377 74.8092 112.377 76.4824V77.6348H105.648C105.74 78.3249 106.013 78.8783 106.469 79.2949C106.931 79.7116 107.514 79.9199 108.217 79.9199C109.304 79.9199 110.154 79.526 110.766 78.7383L112.152 80.291C111.729 80.89 111.156 81.3587 110.434 81.6973C109.711 82.0293 108.91 82.1953 108.031 82.1953ZM107.709 73.5234C107.149 73.5234 106.693 73.7122 106.342 74.0898C105.997 74.4674 105.775 75.0078 105.678 75.7109H109.604V75.4863C109.59 74.8613 109.421 74.3796 109.096 74.041C108.77 73.696 108.308 73.5234 107.709 73.5234ZM120.111 82C119.981 81.7461 119.887 81.4303 119.828 81.0527C119.145 81.8145 118.256 82.1953 117.162 82.1953C116.127 82.1953 115.268 81.8958 114.584 81.2969C113.907 80.6979 113.568 79.9427 113.568 79.0312C113.568 77.9115 113.982 77.0521 114.809 76.4531C115.642 75.8542 116.843 75.5514 118.412 75.5449H119.711V74.9395C119.711 74.4512 119.584 74.0605 119.33 73.7676C119.083 73.4746 118.689 73.3281 118.148 73.3281C117.673 73.3281 117.299 73.4421 117.025 73.6699C116.758 73.8978 116.625 74.2103 116.625 74.6074H113.803C113.803 73.9954 113.992 73.429 114.369 72.9082C114.747 72.3874 115.281 71.9805 115.971 71.6875C116.661 71.388 117.436 71.2383 118.295 71.2383C119.597 71.2383 120.629 71.5671 121.391 72.2246C122.159 72.8757 122.543 73.7936 122.543 74.9785V79.5586C122.549 80.5612 122.689 81.3197 122.963 81.834V82H120.111ZM117.777 80.0371C118.194 80.0371 118.578 79.946 118.93 79.7637C119.281 79.5749 119.542 79.3242 119.711 79.0117V77.1953H118.656C117.243 77.1953 116.492 77.6836 116.4 78.6602L116.391 78.8262C116.391 79.1777 116.514 79.4674 116.762 79.6953C117.009 79.9232 117.348 80.0371 117.777 80.0371ZM130.434 79.0801C130.434 78.735 130.261 78.4648 129.916 78.2695C129.577 78.0677 129.031 77.8887 128.275 77.7324C125.762 77.2051 124.506 76.1374 124.506 74.5293C124.506 73.5918 124.893 72.8105 125.668 72.1855C126.449 71.554 127.468 71.2383 128.725 71.2383C130.066 71.2383 131.137 71.554 131.938 72.1855C132.745 72.8171 133.148 73.6374 133.148 74.6465H130.326C130.326 74.2428 130.196 73.9108 129.936 73.6504C129.675 73.3835 129.268 73.25 128.715 73.25C128.24 73.25 127.872 73.3574 127.611 73.5723C127.351 73.7871 127.221 74.0605 127.221 74.3926C127.221 74.7051 127.367 74.959 127.66 75.1543C127.96 75.3431 128.461 75.5091 129.164 75.6523C129.867 75.7891 130.46 75.9453 130.941 76.1211C132.432 76.668 133.178 77.6152 133.178 78.9629C133.178 79.9264 132.764 80.7077 131.938 81.3066C131.111 81.8991 130.043 82.1953 128.734 82.1953C127.849 82.1953 127.061 82.0391 126.371 81.7266C125.688 81.4076 125.15 80.9746 124.76 80.4277C124.369 79.8743 124.174 79.2786 124.174 78.6406H126.85C126.876 79.1419 127.061 79.526 127.406 79.793C127.751 80.0599 128.214 80.1934 128.793 80.1934C129.333 80.1934 129.74 80.0924 130.014 79.8906C130.294 79.6823 130.434 79.4121 130.434 79.0801ZM139.867 82.1953C138.318 82.1953 137.055 81.7201 136.078 80.7695C135.108 79.819 134.623 78.5527 134.623 76.9707V76.6973C134.623 75.6361 134.828 74.6888 135.238 73.8555C135.648 73.0156 136.228 72.3711 136.977 71.9219C137.732 71.4661 138.591 71.2383 139.555 71.2383C141 71.2383 142.136 71.694 142.963 72.6055C143.796 73.5169 144.213 74.8092 144.213 76.4824V77.6348H137.484C137.576 78.3249 137.849 78.8783 138.305 79.2949C138.767 79.7116 139.35 79.9199 140.053 79.9199C141.14 79.9199 141.99 79.526 142.602 78.7383L143.988 80.291C143.565 80.89 142.992 81.3587 142.27 81.6973C141.547 82.0293 140.746 82.1953 139.867 82.1953ZM139.545 73.5234C138.985 73.5234 138.529 73.7122 138.178 74.0898C137.833 74.4674 137.611 75.0078 137.514 75.7109H141.439V75.4863C141.426 74.8613 141.257 74.3796 140.932 74.041C140.606 73.696 140.144 73.5234 139.545 73.5234Z"
        fill="black"/>
</svg>

