<svg width="25" height="25" viewBox="0 0 25 25" fill="none" xmlns="http://www.w3.org/2000/svg">
    <path d="M10.75 23C10.75 23.6904 11.3096 24.25 12 24.25C12.6904 24.25 13.25 23.6904 13.25 23H10.75ZM12.8839 1.11612C12.3957 0.627961 11.6043 0.627961 11.1161 1.11612L3.16117 9.07107C2.67301 9.55922 2.67301 10.3507 3.16117 10.8388C3.64932 11.327 4.44078 11.327 4.92893 10.8388L12 3.76777L19.0711 10.8388C19.5592 11.327 20.3507 11.327 20.8388 10.8388C21.327 10.3507 21.327 9.55922 20.8388 9.07107L12.8839 1.11612ZM13.25 23L13.25 2H10.75L10.75 23H13.25Z" fill="white"/>
</svg>
