<svg width="16" height="16" viewBox="0 0 16 16" fill="none" xmlns="http://www.w3.org/2000/svg">
<path fill-rule="evenodd" clip-rule="evenodd" d="M4.92376 1.71195C4.29439 2.01886 3.70917 2.42106 3.19053 2.91155C1.84068 4.18542 1.05291 5.94417 1.00035 7.79962L1 7.81504V8.71894C1 9.80923 1.88378 10.6921 2.97432 10.6921H4.45523C4.95109 10.6921 5.35303 11.0943 5.35303 11.5904C5.35303 11.6731 5.34147 11.7558 5.31799 11.837L5.13261 12.4845C4.96265 13.0787 5.0818 13.7191 5.45431 14.2138C5.82681 14.7085 6.41028 14.9986 7.02949 15H8.00018C11.8647 15 14.9979 11.8679 15 8.00423V7.81223L14.9996 7.79962C14.8612 4.10414 11.8973 1.14159 8.20202 1.00285C7.75908 0.990235 7.31964 1.01966 6.88931 1.08833C6.20493 1.19904 5.54297 1.40925 4.92376 1.71195ZM5.12946 5.84888C5.52579 5.84888 5.84714 5.52796 5.84714 5.13136C5.84714 4.73477 5.52579 4.41385 5.12946 4.41385C4.73312 4.41385 4.41178 4.73477 4.41178 5.13136C4.41178 5.33456 4.49658 5.51815 4.63255 5.64848C4.76151 5.7732 4.93672 5.84888 5.12946 5.84888ZM8.71785 3.69633C8.71785 4.09293 8.39651 4.41385 8.00018 4.41385C7.60384 4.41385 7.2825 4.09293 7.2825 3.69633C7.2825 3.29974 7.60384 2.97882 8.00018 2.97882C8.39651 2.97882 8.71785 3.29974 8.71785 3.69633ZM10.8709 5.84888C11.2672 5.84888 11.5886 5.52796 11.5886 5.13136C11.5886 4.94357 11.5164 4.7726 11.3983 4.64508C11.2672 4.50354 11.0794 4.41385 10.8709 4.41385C10.4746 4.41385 10.1532 4.73477 10.1532 5.13136C10.1532 5.52796 10.4746 5.84888 10.8709 5.84888ZM13.0239 8.00142C13.0239 8.39802 12.7026 8.71894 12.3063 8.71894C11.9099 8.71894 11.5886 8.39802 11.5886 8.00142C11.5886 7.79962 11.672 7.61744 11.8058 7.48711C11.9351 7.36098 12.1118 7.28391 12.3063 7.28391C12.7026 7.28391 13.0239 7.60483 13.0239 8.00142ZM10.8709 11.589C11.2672 11.589 11.5886 11.2681 11.5886 10.8715C11.5886 10.6332 11.4722 10.4216 11.2928 10.2913C11.1744 10.2044 11.0286 10.154 10.8709 10.154C10.4746 10.154 10.1532 10.4749 10.1532 10.8715C10.1532 11.0985 10.258 11.3003 10.4216 11.432C10.5446 11.5301 10.7009 11.589 10.8709 11.589Z" fill="white"/>
</svg>
