<svg width="16" height="16" viewBox="0 0 16 16" fill="none" xmlns="http://www.w3.org/2000/svg">
<path fillRule="evenodd" clipRule="evenodd" d="M14.1348 11.4062L10.231 5.2225C10.0799 4.98259 9.99969 4.70481 9.99978 4.42125V2H10.486C10.7551 2 10.986 1.79313 10.9995 1.52406C11.0027 1.45643 10.9922 1.38884 10.9686 1.3254C10.9449 1.26195 10.9086 1.20397 10.8619 1.15496C10.8152 1.10596 10.759 1.06696 10.6967 1.04032C10.6345 1.01368 10.5675 0.999964 10.4998 1H5.51384C5.24478 1 5.01384 1.20688 5.0004 1.47594C4.99714 1.54354 5.00765 1.6111 5.03127 1.67453C5.0549 1.73796 5.09115 1.79593 5.13785 1.84492C5.18454 1.89392 5.24069 1.93293 5.3029 1.95959C5.36512 1.98625 5.43209 1.99999 5.49978 2H5.99978V4.42125C5.99996 4.70477 5.91966 4.98251 5.76821 5.22219L1.86478 11.4062C1.63903 11.7574 1.51257 12.1632 1.49881 12.5805C1.48506 12.9977 1.58452 13.4109 1.78665 13.7762C2.20103 14.5372 3.01103 15 3.87884 15H12.1207C12.9885 15 13.7985 14.5372 14.2129 13.7747C14.4147 13.4096 14.514 12.9967 14.5003 12.5797C14.4865 12.1627 14.3602 11.7573 14.1348 11.4062ZM6.61415 5.75625C6.86636 5.35668 7.00008 4.89376 6.99978 4.42125V2.125C6.99978 2.09185 7.01295 2.06005 7.03639 2.03661C7.05983 2.01317 7.09162 2 7.12478 2H8.87478C8.90793 2 8.93972 2.01317 8.96316 2.03661C8.98661 2.06005 8.99978 2.09185 8.99978 2.125V4.42125C8.99957 4.8938 9.13339 5.35671 9.38571 5.75625L11.192 8.61656C11.2159 8.65441 11.2291 8.69798 11.2304 8.74272C11.2317 8.78747 11.221 8.83174 11.1994 8.87091C11.1777 8.91009 11.146 8.94273 11.1074 8.96544C11.0688 8.98815 11.0248 9.00008 10.9801 9H5.01946C4.97473 9.00003 4.93081 8.98805 4.89228 8.96532C4.85375 8.94259 4.82203 8.90994 4.80042 8.87077C4.77881 8.83161 4.7681 8.78736 4.76942 8.74265C4.77074 8.69793 4.78402 8.65439 4.8079 8.61656L6.61415 5.75625ZM11.9998 12.5C11.9998 12.7761 11.7759 13 11.4998 13C11.2236 13 10.9998 12.7761 10.9998 12.5C10.9998 12.2239 11.2236 12 11.4998 12C11.7759 12 11.9998 12.2239 11.9998 12.5ZM9.49979 12C9.77593 12 9.99979 11.7761 9.99979 11.5C9.99979 11.2239 9.77593 11 9.49979 11C9.22364 11 8.99979 11.2239 8.99979 11.5C8.99979 11.7761 9.22364 12 9.49979 12Z" fill="white"/>
</svg>
