<svg width="14" height="14" viewBox="0 0 14 14" fill="none" xmlns="http://www.w3.org/2000/svg">
<g clipPath="url(#clip0_4910_95932)">
<path fillRule="evenodd" clipRule="evenodd" d="M13.0604 1.04107C13.0554 1.01689 13.0436 0.994628 13.0264 0.976902C13.0092 0.959177 12.9873 0.94672 12.9633 0.940992C11.3618 0.549429 7.66135 1.94478 5.65651 3.9488C5.29893 4.3035 4.97294 4.68868 4.68225 5.09998C4.06401 5.04529 3.44577 5.09095 2.91885 5.32064C1.43217 5.97498 0.999321 7.68232 0.878735 8.41677C0.871895 8.45697 0.874475 8.49821 0.886272 8.53724C0.898068 8.57628 0.91876 8.61204 0.94672 8.64173C0.97468 8.67141 1.00915 8.6942 1.0474 8.70831C1.08566 8.72241 1.12667 8.72745 1.16721 8.72302L3.55459 8.4597C3.5563 8.6397 3.56716 8.81949 3.58713 8.99837C3.59915 9.1226 3.65429 9.2387 3.74299 9.3265L4.66748 10.2488C4.75537 10.3374 4.87142 10.3925 4.99561 10.4047C5.1735 10.4246 5.35228 10.4354 5.53127 10.4372L5.26932 12.8216C5.26495 12.8621 5.27003 12.9031 5.28416 12.9413C5.29828 12.9796 5.32107 13.014 5.35074 13.0419C5.38041 13.0699 5.41615 13.0906 5.45516 13.1024C5.49416 13.1142 5.53538 13.1168 5.57557 13.1101C6.30866 12.9925 8.01901 12.5596 8.66952 11.0729C8.8992 10.546 8.94623 9.9308 8.89319 9.31556C9.30548 9.02485 9.69167 8.69878 10.0474 8.34103C12.0585 6.34002 13.4459 2.72216 13.0604 1.04107ZM7.68144 5.28191C7.73215 5.53654 7.85724 5.7704 8.04088 5.95392C8.16266 6.07587 8.30728 6.17261 8.46647 6.23862C8.62567 6.30463 8.79632 6.33861 8.96866 6.33861C9.14099 6.33861 9.31164 6.30463 9.47084 6.23862C9.63003 6.17261 9.77466 6.07587 9.89643 5.95392C10.0801 5.7704 10.2052 5.53654 10.2559 5.28191C10.3066 5.02729 10.2806 4.76334 10.1813 4.52347C10.082 4.28359 9.91379 4.07855 9.69793 3.9343C9.48207 3.79004 9.22828 3.71304 8.96866 3.71304C8.70903 3.71304 8.45524 3.79004 8.23938 3.9343C8.02352 4.07855 7.8553 4.28359 7.75598 4.52347C7.65667 4.76334 7.63073 5.02729 7.68144 5.28191Z" fill="white"/>
<path d="M4.60469 10.9168C4.45484 11.0669 4.21449 11.1254 3.9252 11.1755C3.27523 11.2862 2.70129 10.7246 2.81805 10.0675C2.86262 9.81839 2.99441 9.46921 3.07645 9.38718C3.09438 9.36959 3.10631 9.34681 3.11055 9.32206C3.1148 9.2973 3.11113 9.27184 3.10009 9.24929C3.08904 9.22674 3.07116 9.20824 3.049 9.19643C3.02684 9.18461 3.00152 9.18008 2.97664 9.18347C2.61318 9.22794 2.27504 9.39273 2.01605 9.65159C1.3732 10.295 1.3125 12.6824 1.3125 12.6824C1.3125 12.6824 3.70125 12.6217 4.3441 11.9783C4.60377 11.7195 4.76877 11.3808 4.8125 11.0169C4.82262 10.9026 4.68344 10.8345 4.60469 10.9168Z" fill="white"/>
</g>
<defs>
<clipPath id="clip0_4910_95932">
<rect width="14" height="14" fill="white"/>
</clipPath>
</defs>
</svg>
