<svg width="16" height="16" viewBox="0 0 16 16" fill="none" xmlns="http://www.w3.org/2000/svg">
<path fill-rule="evenodd" clip-rule="evenodd" d="M4.37089 1.57844C3.80616 1.01369 2.95684 0.844729 2.21896 1.15036C1.48107 1.456 1 2.17604 1 2.97469V13.0254C1 14.1159 1.88406 15 2.9746 15H13.0254C13.824 15 14.544 14.5189 14.8496 13.781C15.1553 13.0432 14.9863 12.1939 14.4216 11.6292L13.7075 10.9151C13.9152 11.1256 13.9143 11.4645 13.7049 11.6738L12.6908 12.688C12.4805 12.8982 12.1397 12.8982 11.9294 12.688C11.7192 12.4777 11.7192 12.1369 11.9294 11.9266L12.9436 10.9125C13.1529 10.7031 13.4919 10.7022 13.7023 10.9099L11.5535 8.7611C11.7608 8.97157 11.7598 9.31023 11.5506 9.51949L10.5364 10.5336C10.3262 10.7439 9.98533 10.7439 9.77508 10.5336C9.56484 10.3234 9.56484 9.98252 9.77508 9.77227L10.7892 8.75813C10.9985 8.54888 11.3371 8.54789 11.5476 8.75519L9.39839 6.60595C9.60648 6.81637 9.60576 7.15562 9.39624 7.36515L8.38209 8.37929C8.17185 8.58953 7.83098 8.58953 7.62073 8.37929C7.41049 8.16905 7.41049 7.82817 7.62073 7.61793L8.63488 6.60379C8.8444 6.39427 9.18366 6.39355 9.39408 6.60164L7.24426 4.45182C7.45214 4.66225 7.45135 5.00135 7.2419 5.2108L6.22774 6.22495C6.0175 6.43519 5.67663 6.43519 5.46638 6.22495C5.25614 6.0147 5.25614 5.67383 5.46638 5.46359L6.48054 4.44944C6.68999 4.23999 7.02909 4.2392 7.23952 4.44708L5.09825 2.3058C5.30727 2.51614 5.30686 2.8561 5.09702 3.06594L4.07339 4.08956C3.86315 4.2998 3.52227 4.2998 3.31203 4.08956C3.10179 3.87931 3.10179 3.53844 3.31203 3.3282L4.33567 2.30458C4.5455 2.09474 4.88546 2.09434 5.0958 2.30336L4.37089 1.57844ZM5.40458 7.72313C5.14792 7.46646 4.76192 7.38966 4.42656 7.52857C4.09115 7.66749 3.87256 7.99478 3.87256 8.35771V11.2294C3.87256 11.7251 4.27435 12.1269 4.76998 12.1269H7.64173C8.00465 12.1269 8.33192 11.9083 8.47086 11.5729C8.60978 11.2376 8.533 10.8515 8.27633 10.5949L5.40458 7.72313Z" fill="white"/>
</svg>
