<svg width="320" height="160" viewBox="0 0 320 160" fill="none" xmlns="http://www.w3.org/2000/svg">
<rect width="320" height="160" fill="#F3F3F8"/>
<ellipse cx="252.447" cy="87.0061" rx="46.5393" ry="46.5697" fill="#8533FF"/>
<path d="M221.421 96.1679C224.029 74.7746 247.233 71.9047 247.233 71.9047L266.005 70.8611C266.005 70.8611 279.001 75.5597 287.254 82.471C299.247 92.5154 302.507 115.735 302.507 115.735L284.043 116.648L285.56 129.693H274.479C274.479 129.693 257.084 135.873 247.233 134.65C231.068 132.644 224.029 123.431 224.029 123.431V108.039C224.029 108.039 220.701 102.069 221.421 96.1679Z" fill="#FEF1E4"/>
<path d="M282.04 99.4291L284.043 116.648M284.043 116.648L285.56 129.693H274.479C274.479 129.693 257.084 135.873 247.233 134.65C231.068 132.644 224.029 123.431 224.029 123.431V108.039C224.029 108.039 220.701 102.069 221.421 96.1679C224.029 74.7746 247.233 71.9047 247.233 71.9047L266.005 70.8611C266.005 70.8611 279.001 75.5597 287.254 82.471C299.247 92.5154 302.507 115.735 302.507 115.735L284.043 116.648Z" stroke="#1F1F22" strokeWidth="0.521789" stroke-linecap="round" stroke-linejoin="round"/>
<path d="M243.062 31.4661H263.92L266.527 50.2505C266.527 50.2505 269.561 47.3131 271.48 48.1633C272.636 48.6756 272.783 49.2069 272.783 50.6418C272.783 52.7552 271.582 54.0219 270.176 55.5988C268.417 57.5722 265.58 57.5555 265.58 57.5555C265.412 58.8291 265.243 60.0994 265.093 61.2081C264.049 68.9045 265.613 70.9916 265.613 70.9916C265.613 70.9916 264.039 73.2723 262.486 74.2528C259.435 76.1791 256.867 76.5357 253.36 75.6877C250.653 75.033 247.233 72.0352 247.233 72.0352V67.4013C246.852 67.3053 246.461 67.1979 246.06 67.0782C246.06 67.0782 240.584 65.3824 239.151 58.4687C237.718 51.555 239.151 40.0756 239.151 40.0756L243.062 31.4661Z" fill="#FFB4DC"/>
<path d="M260.27 65.3824C260.27 65.3824 256.424 69.7113 247.233 67.4013M247.233 67.4013C246.852 67.3053 246.461 67.1979 246.06 67.0782C246.06 67.0782 240.584 65.3824 239.151 58.4687C237.718 51.555 239.151 40.0756 239.151 40.0756L243.062 31.4661H263.92L266.527 50.2505C266.527 50.2505 269.561 47.3131 271.48 48.1633C272.636 48.6756 272.783 49.2069 272.783 50.6418C272.783 52.7552 271.582 54.0219 270.176 55.5988C268.417 57.5722 265.58 57.5555 265.58 57.5555C265.412 58.8291 265.243 60.0994 265.093 61.2081C264.049 68.9045 265.613 70.9916 265.613 70.9916C265.613 70.9916 264.039 73.2723 262.486 74.2528C259.435 76.1791 256.867 76.5357 253.36 75.6877C250.653 75.033 247.233 72.0352 247.233 72.0352V67.4013Z" stroke="#1F1F22" strokeWidth="0.521789" stroke-linecap="round" stroke-linejoin="round"/>
<path d="M300.159 128.65V115.866L283.994 116.518V118.736C280.799 118.018 275.782 117.04 275.782 117.04C275.782 117.04 272.109 114.929 269.655 113.779C267.215 112.635 263.267 111.17 263.267 111.17C263.267 111.17 262.561 110.88 262.354 111.17C262.206 111.377 262.354 111.822 262.354 111.822L266.265 116.824L255.836 115.866C255.836 115.866 255.516 117.431 255.836 118.345C256.056 118.971 256.749 119.78 256.749 119.78C256.749 119.78 256.81 120.955 257.14 121.606C257.482 122.281 258.443 123.041 258.443 123.041C258.443 123.041 258.395 124.216 258.704 124.867C259.091 125.681 260.399 126.432 260.399 126.432C260.399 126.432 260.132 127.374 260.399 127.867C260.661 128.352 261.572 128.65 261.572 128.65C261.572 128.65 265.673 129.61 268.351 129.824C270.685 130.011 274.348 129.824 274.348 129.824C274.348 129.824 280.342 133.212 284.516 134.52C287.546 135.47 292.468 136.216 292.468 136.216C292.468 136.216 295.974 136.584 297.682 135.433C300.02 133.858 300.159 128.65 300.159 128.65Z" fill="#FFB4DC"/>
<path d="M260.399 126.432C260.399 126.432 260.132 127.374 260.399 127.867C260.661 128.352 261.572 128.65 261.572 128.65C261.572 128.65 265.673 129.61 268.351 129.824C270.685 130.011 274.348 129.824 274.348 129.824C274.348 129.824 280.342 133.212 284.516 134.52C287.546 135.47 292.468 136.216 292.468 136.216C292.468 136.216 295.974 136.584 297.682 135.433C300.02 133.858 300.159 128.65 300.159 128.65V115.866L283.994 116.518V118.736M260.399 126.432H265.874M260.399 126.432C260.399 126.432 259.091 125.681 258.704 124.867C258.395 124.216 258.443 123.041 258.443 123.041M258.443 123.041C258.443 123.041 258.996 123.215 259.356 123.302C259.958 123.446 260.92 123.562 260.92 123.562H266.004M258.443 123.041C258.443 123.041 257.482 122.281 257.14 121.606C256.81 120.955 256.749 119.78 256.749 119.78M256.749 119.78C256.749 119.78 257.359 120.223 257.792 120.432C258.459 120.753 259.617 120.954 259.617 120.954H266.265M256.749 119.78C256.749 119.78 256.056 118.971 255.836 118.345C255.516 117.431 255.836 115.866 255.836 115.866L266.265 116.824M268.612 117.04L266.265 116.824M266.265 116.824L262.354 111.822C262.354 111.822 262.206 111.377 262.354 111.17C262.561 110.88 263.267 111.17 263.267 111.17C263.267 111.17 267.215 112.635 269.655 113.779C272.109 114.929 275.782 117.04 275.782 117.04C275.782 117.04 280.799 118.018 283.994 118.736M283.994 118.736C286.958 119.402 291.555 120.562 291.555 120.562" stroke="#1F1F22" strokeWidth="0.521789" stroke-linecap="round" stroke-linejoin="round"/>
<path fillRule="evenodd" clipRule="evenodd" d="M196.261 85.0799L207.342 118.214H261.181L260.549 116.126L251.143 85.0799H196.261Z" fill="#1F1F22"/>
<path d="M261.181 118.214L271.61 116.648L260.549 116.126L261.181 118.214Z" fill="#6E6D79"/>
<path d="M196.261 85.0799V84.819C196.177 84.819 196.098 84.8594 196.049 84.9275C196 84.9956 195.987 85.0831 196.013 85.1627L196.261 85.0799ZM207.342 118.214L207.094 118.296C207.13 118.403 207.229 118.474 207.342 118.474V118.214ZM261.181 118.214V118.474C261.194 118.474 261.207 118.473 261.22 118.472L261.181 118.214ZM251.143 85.0799L251.393 85.0043C251.36 84.8943 251.258 84.819 251.143 84.819V85.0799ZM271.61 116.648L271.649 116.906C271.782 116.886 271.878 116.769 271.871 116.635C271.864 116.501 271.756 116.394 271.622 116.388L271.61 116.648ZM260.549 116.126L260.299 116.202L260.549 116.126ZM196.013 85.1627L207.094 118.296L207.589 118.131L196.508 84.9972L196.013 85.1627ZM207.342 118.474H261.181V117.953H207.342V118.474ZM251.143 84.819H196.261V85.3408H251.143V84.819ZM261.22 118.472L271.649 116.906L271.571 116.39L261.142 117.956L261.22 118.472ZM261.431 118.138L260.799 116.051L260.299 116.202L260.931 118.289L261.431 118.138ZM260.799 116.051L251.393 85.0043L250.894 85.1556L260.299 116.202L260.799 116.051ZM271.622 116.388L260.561 115.866L260.537 116.387L271.598 116.909L271.622 116.388Z" fill="#1F1F22"/>
<path d="M268.221 30.2918L267.178 31.9876C267.178 31.9876 270.698 33.9448 270.698 39.4231C270.698 42.4404 270.525 44.3121 269.133 46.989C268.246 48.6976 266.135 50.9025 266.135 50.9025C266.135 50.9025 262.463 46.8385 261.572 43.8584C260.682 40.8782 261.572 35.6401 261.572 35.6401C259.617 37.2056 258.169 38.5015 256.097 39.4231C252.491 41.0269 248.667 41.3798 248.667 41.3798L248.927 39.2926L238.629 46.3368C238.629 46.3368 237.01 40.9856 237.586 37.5968C238.224 33.845 239.198 31.3882 242.149 28.9873C256.097 17.6389 268.221 30.2918 268.221 30.2918Z" fill="#1F1F22"/>
<path d="M267.178 31.9876L266.956 31.8509C266.919 31.9115 266.908 31.9848 266.926 32.0536C266.944 32.1225 266.989 32.181 267.051 32.2156L267.178 31.9876ZM268.221 30.2918L268.443 30.4284C268.505 30.3273 268.491 30.197 268.409 30.1113L268.221 30.2918ZM242.149 28.9873L241.984 28.7849L242.149 28.9873ZM237.586 37.5968L237.843 37.6405L237.586 37.5968ZM238.629 46.3368L238.379 46.4123C238.403 46.4919 238.464 46.5553 238.542 46.5829C238.621 46.6105 238.707 46.5991 238.776 46.5521L238.629 46.3368ZM248.927 39.2926L249.186 39.325C249.199 39.2231 249.151 39.1233 249.063 39.0699C248.976 39.0165 248.865 39.0194 248.78 39.0773L248.927 39.2926ZM248.667 41.3798L248.408 41.3475C248.398 41.4259 248.424 41.5045 248.479 41.5613C248.534 41.6181 248.612 41.6469 248.691 41.6396L248.667 41.3798ZM266.135 50.9025L265.942 51.0774C265.99 51.1311 266.059 51.1623 266.131 51.1633C266.204 51.1644 266.273 51.1352 266.324 51.0829L266.135 50.9025ZM269.133 46.989L268.902 46.8687V46.8687L269.133 46.989ZM261.572 35.6401L261.83 35.6839C261.848 35.5771 261.798 35.4702 261.705 35.4153C261.612 35.3604 261.494 35.3688 261.409 35.4364L261.572 35.6401ZM261.572 43.8584L261.822 43.7836L261.572 43.8584ZM256.097 39.4231L255.991 39.1847L256.097 39.4231ZM267.4 32.1243L268.443 30.4284L267.999 30.1551L266.956 31.8509L267.4 32.1243ZM268.221 30.2918C268.409 30.1113 268.409 30.1111 268.409 30.1109C268.409 30.1108 268.409 30.1106 268.408 30.1103C268.408 30.1098 268.407 30.1091 268.406 30.1082C268.405 30.1064 268.402 30.1039 268.399 30.1006C268.393 30.0941 268.383 30.0846 268.371 30.0722C268.347 30.0476 268.311 30.0117 268.263 29.9656C268.169 29.8736 268.03 29.7409 267.848 29.5766C267.484 29.2481 266.949 28.7928 266.264 28.2828C264.896 27.2635 262.922 26.0221 260.505 25.1388C255.658 23.3675 249.04 23.0442 241.984 28.7849L242.313 29.1897C249.206 23.582 255.624 23.9109 260.326 25.6289C262.683 26.4903 264.612 27.7029 265.953 28.7013C266.623 29.2002 267.144 29.6448 267.498 29.9639C267.675 30.1234 267.809 30.2515 267.899 30.3392C267.944 30.3831 267.978 30.4169 268 30.4394C268.012 30.4507 268.02 30.4591 268.025 30.4647C268.028 30.4674 268.03 30.4695 268.031 30.4707C268.032 30.4714 268.032 30.4718 268.032 30.4721C268.032 30.4722 268.033 30.4723 268.033 30.4723C268.033 30.4723 268.033 30.4723 268.221 30.2918ZM241.984 28.7849C240.483 30.0056 239.477 31.2482 238.766 32.6687C238.058 34.0855 237.649 35.6667 237.329 37.5531L237.843 37.6405C238.16 35.7751 238.558 34.252 239.233 32.9022C239.906 31.5561 240.863 30.3698 242.313 29.1897L241.984 28.7849ZM237.329 37.5531C237.032 39.2961 237.301 41.5199 237.635 43.286C237.803 44.1736 237.988 44.9541 238.132 45.5128C238.204 45.7922 238.266 46.0164 238.309 46.1711C238.331 46.2484 238.348 46.3084 238.36 46.3492C238.366 46.3696 238.371 46.3852 238.374 46.3958C238.376 46.4011 238.377 46.4051 238.378 46.4079C238.378 46.4093 238.378 46.4104 238.379 46.4111C238.379 46.4115 238.379 46.4118 238.379 46.412C238.379 46.4121 238.379 46.4122 238.379 46.4122C238.379 46.4123 238.379 46.4123 238.629 46.3368C238.878 46.2613 238.878 46.2613 238.878 46.2613C238.878 46.2612 238.878 46.2612 238.878 46.2611C238.878 46.261 238.878 46.2608 238.878 46.2605C238.878 46.26 238.878 46.2591 238.877 46.2579C238.877 46.2555 238.876 46.2518 238.874 46.2469C238.871 46.237 238.867 46.2222 238.861 46.2026C238.85 46.1633 238.833 46.105 238.811 46.0294C238.769 45.8782 238.708 45.6579 238.637 45.3827C238.496 44.8321 238.313 44.063 238.148 43.1892C237.816 41.4325 237.563 39.2863 237.843 37.6405L237.329 37.5531ZM238.776 46.5521L249.075 39.508L248.78 39.0773L238.481 46.1215L238.776 46.5521ZM248.668 39.2603L248.408 41.3475L248.925 41.4121L249.186 39.325L248.668 39.2603ZM266.135 50.9025C266.324 51.0829 266.324 51.0828 266.324 51.0828C266.324 51.0828 266.324 51.0827 266.324 51.0827C266.324 51.0826 266.324 51.0825 266.324 51.0823C266.324 51.082 266.325 51.0816 266.325 51.081C266.326 51.0798 266.328 51.0781 266.33 51.0759C266.334 51.0715 266.341 51.0651 266.349 51.0566C266.365 51.0396 266.388 51.0147 266.418 50.9825C266.478 50.918 266.565 50.8243 266.672 50.7065C266.886 50.4711 267.179 50.1394 267.502 49.7537C268.142 48.9863 268.907 47.99 269.365 47.1093L268.902 46.8687C268.472 47.6966 267.738 48.657 267.101 49.4192C266.785 49.7983 266.495 50.1245 266.286 50.356C266.181 50.4716 266.096 50.5635 266.037 50.6263C266.008 50.6577 265.985 50.6818 265.97 50.698C265.962 50.7061 265.956 50.7122 265.952 50.7162C265.95 50.7182 265.949 50.7197 265.948 50.7207C265.947 50.7212 265.947 50.7216 265.947 50.7218C265.947 50.7219 265.947 50.722 265.947 50.722C265.947 50.722 265.947 50.7221 265.947 50.7221C265.947 50.7221 265.947 50.7221 266.135 50.9025ZM269.365 47.1094C270.784 44.3791 270.959 42.4592 270.959 39.4231H270.437C270.437 42.4215 270.265 44.2451 268.902 46.8687L269.365 47.1094ZM270.959 39.4231C270.959 36.6234 270.058 34.7103 269.147 33.4945C268.692 32.888 268.237 32.4572 267.893 32.1768C267.721 32.0366 267.577 31.9338 267.474 31.8654C267.423 31.8311 267.382 31.8055 267.353 31.788C267.339 31.7792 267.327 31.7725 267.319 31.7678C267.315 31.7654 267.312 31.7636 267.309 31.7622C267.308 31.7615 267.307 31.761 267.307 31.7605C267.306 31.7603 267.306 31.7601 267.306 31.76C267.305 31.7599 267.305 31.7598 267.305 31.7597C267.305 31.7597 267.305 31.7596 267.178 31.9876C267.051 32.2156 267.051 32.2155 267.051 32.2155C267.051 32.2155 267.051 32.2154 267.051 32.2154C267.051 32.2154 267.051 32.2153 267.051 32.2154C267.051 32.2154 267.051 32.2156 267.052 32.2158C267.053 32.2164 267.054 32.2174 267.057 32.2189C267.062 32.222 267.071 32.2269 267.082 32.2338C267.105 32.2477 267.14 32.2694 267.184 32.2994C267.274 32.3594 267.405 32.4523 267.563 32.5812C267.879 32.839 268.304 33.2398 268.729 33.8074C269.578 34.9398 270.437 36.7445 270.437 39.4231H270.959ZM261.572 35.6401C261.315 35.5964 261.315 35.5964 261.315 35.5965C261.315 35.5965 261.315 35.5966 261.315 35.5967C261.315 35.5969 261.315 35.5972 261.315 35.5976C261.315 35.5983 261.315 35.5994 261.315 35.6007C261.314 35.6034 261.313 35.6074 261.313 35.6126C261.311 35.6229 261.308 35.6382 261.305 35.6581C261.299 35.698 261.289 35.7565 261.278 35.8319C261.255 35.9826 261.224 36.2007 261.188 36.4716C261.118 37.0132 261.034 37.7667 260.978 38.6145C260.866 40.2998 260.863 42.3949 261.322 43.9331L261.822 43.7836C261.391 42.3417 261.388 40.3276 261.499 38.6489C261.554 37.8146 261.637 37.0723 261.706 36.5386C261.74 36.2719 261.771 36.0575 261.794 35.9102C261.805 35.8365 261.814 35.7796 261.82 35.7412C261.823 35.7221 261.826 35.7075 261.827 35.6979C261.828 35.6931 261.829 35.6895 261.829 35.6871C261.829 35.686 261.829 35.6851 261.83 35.6846C261.83 35.6843 261.83 35.6841 261.83 35.684C261.83 35.6839 261.83 35.6839 261.83 35.6839C261.83 35.6838 261.83 35.6839 261.572 35.6401ZM261.322 43.9331C261.782 45.4704 262.948 47.2629 263.978 48.6533C264.497 49.3527 264.987 49.958 265.347 50.3884C265.528 50.6037 265.676 50.7755 265.779 50.8936C265.831 50.9527 265.871 50.9984 265.899 51.0294C265.912 51.045 265.923 51.0568 265.93 51.0649C265.934 51.0689 265.937 51.0719 265.939 51.074C265.939 51.0751 265.94 51.0759 265.941 51.0764C265.941 51.0767 265.941 51.0769 265.941 51.0771C265.941 51.0772 265.941 51.0772 265.941 51.0773C265.942 51.0773 265.942 51.0774 266.135 50.9025C266.329 50.7276 266.329 50.7276 266.329 50.7276C266.329 50.7275 266.329 50.7275 266.329 50.7275C266.329 50.7274 266.328 50.7272 266.328 50.727C266.328 50.7266 266.327 50.7259 266.326 50.725C266.325 50.7231 266.322 50.7203 266.319 50.7166C266.312 50.709 266.302 50.6977 266.289 50.6827C266.262 50.6528 266.223 50.6083 266.172 50.5504C266.071 50.4347 265.925 50.2656 265.747 50.0534C265.392 49.6287 264.908 49.0317 264.397 48.3426C263.37 46.956 262.254 45.2265 261.822 43.7836L261.322 43.9331ZM248.667 41.3798C248.691 41.6396 248.691 41.6396 248.691 41.6396C248.691 41.6396 248.691 41.6396 248.691 41.6396C248.691 41.6395 248.691 41.6395 248.692 41.6395C248.692 41.6394 248.693 41.6394 248.694 41.6393C248.696 41.6391 248.699 41.6388 248.703 41.6384C248.711 41.6376 248.722 41.6365 248.737 41.635C248.767 41.6319 248.811 41.6272 248.868 41.6207C248.981 41.6077 249.147 41.5874 249.357 41.558C249.776 41.4992 250.372 41.4041 251.082 41.2585C252.5 40.9675 254.377 40.4736 256.203 39.6615L255.991 39.1847C254.211 39.9764 252.373 40.4609 250.977 40.7473C250.28 40.8904 249.695 40.9837 249.284 41.0412C249.079 41.07 248.918 41.0898 248.808 41.1023C248.753 41.1086 248.712 41.113 248.684 41.1159C248.67 41.1174 248.659 41.1184 248.652 41.1191C248.649 41.1194 248.646 41.1197 248.645 41.1198C248.644 41.1199 248.643 41.1199 248.643 41.12C248.643 41.12 248.643 41.12 248.643 41.12C248.643 41.12 248.643 41.12 248.643 41.12C248.643 41.12 248.643 41.12 248.667 41.3798ZM256.203 39.6615C258.314 38.7226 259.794 37.398 261.735 35.8438L261.409 35.4364C259.44 37.0131 258.025 38.2803 255.991 39.1847L256.203 39.6615Z" fill="#1F1F22"/>
<path d="M247.884 47.6415C247.884 47.6415 247.7 49.5892 247.102 51.2941C246.66 52.5558 245.538 55.3379 245.538 55.3379C245.538 55.3379 246.566 56.2752 247.363 56.2511C248.114 56.2283 249.058 55.3379 249.058 55.3379" stroke="#1F1F22" strokeWidth="0.521789" stroke-linecap="round" stroke-linejoin="round"/>
<path d="M251.274 45.6853C252.403 45.2505 255.054 44.8505 256.619 46.7289" stroke="#1F1F22" strokeWidth="0.521789" stroke-linecap="round" stroke-linejoin="round"/>
<path d="M245.147 45.4239C244.495 44.9456 242.904 44.2759 241.757 45.4239" stroke="#1F1F22" strokeWidth="0.521789" stroke-linecap="round" stroke-linejoin="round"/>
<ellipse cx="243.322" cy="49.3373" rx="0.912535" ry="1.04358" fill="#1F1F22"/>
<ellipse cx="253.229" cy="49.3373" rx="0.912535" ry="1.04358" fill="#1F1F22"/>
<path d="M247.624 58.4686C248.71 59.1644 251.117 59.7992 252.056 56.7728" stroke="#1F1F22" strokeWidth="0.521789" stroke-linecap="round" stroke-linejoin="round"/>
<ellipse cx="285.689" cy="85.5717" rx="10.429" ry="10.4358" fill="#FBCAD8"/>
<path d="M285.827 90.1049C285.679 90.1047 285.536 90.0602 285.414 89.9772C283.612 88.7539 282.831 87.9151 282.401 87.3907C281.484 86.2728 281.045 85.1252 281.057 83.8823C281.072 82.4581 282.214 81.2997 283.604 81.2997C284.615 81.2997 285.315 81.8691 285.723 82.3433C285.736 82.3581 285.752 82.3701 285.77 82.3782C285.787 82.3864 285.807 82.3906 285.827 82.3906C285.846 82.3906 285.866 82.3864 285.884 82.3782C285.902 82.3701 285.918 82.3581 285.93 82.3433C286.338 81.8686 287.038 81.2997 288.049 81.2997C289.439 81.2997 290.582 82.4581 290.596 83.8826C290.608 85.1256 290.169 86.2733 289.252 87.3909C288.822 87.9153 288.041 88.7541 286.239 89.9774C286.118 90.0604 285.974 90.1048 285.827 90.1049Z" fill="#F23C5B"/>
<ellipse cx="289.339" cy="53.7415" rx="10.429" ry="10.4358" fill="#FDF1D2"/>
<g clipPath="url(#clip0_2382_53902)">
<path d="M290.064 58.4051H288.629C288.533 58.4051 288.442 58.4429 288.375 58.5102C288.308 58.5775 288.27 58.6687 288.27 58.7639C288.27 58.859 288.308 58.9503 288.375 59.0175C288.442 59.0848 288.533 59.1226 288.629 59.1226H290.064C290.159 59.1226 290.25 59.0848 290.317 59.0175C290.384 58.9503 290.422 58.859 290.422 58.7639C290.422 58.6687 290.384 58.5775 290.317 58.5102C290.25 58.4429 290.159 58.4051 290.064 58.4051ZM290.422 57.329H288.27C288.175 57.329 288.084 57.3667 288.016 57.434C287.949 57.5013 287.911 57.5925 287.911 57.6877C287.911 57.7828 287.949 57.8741 288.016 57.9413C288.084 58.0086 288.175 58.0464 288.27 58.0464H290.422C290.517 58.0464 290.609 58.0086 290.676 57.9413C290.743 57.8741 290.781 57.7828 290.781 57.6877C290.781 57.5925 290.743 57.5013 290.676 57.434C290.609 57.3667 290.517 57.329 290.422 57.329ZM291.889 49.4075C291.215 48.7324 290.312 48.3607 289.346 48.3607C288.875 48.3596 288.408 48.4516 287.972 48.6315C287.536 48.8114 287.14 49.0756 286.807 49.4089C286.474 49.7422 286.209 50.1381 286.03 50.5739C285.85 51.0096 285.758 51.4766 285.759 51.948C285.759 52.9932 286.159 53.971 286.857 54.6304L286.955 54.7221C287.359 55.0997 287.911 55.6169 287.911 56.0734V56.6115C287.911 56.7066 287.949 56.7979 288.016 56.8652C288.084 56.9324 288.175 56.9702 288.27 56.9702H288.808C288.856 56.9702 288.901 56.9513 288.935 56.9177C288.968 56.8841 288.987 56.8384 288.987 56.7909V54.1636C288.987 54.1273 288.976 54.0919 288.956 54.062C288.935 54.0321 288.906 54.0091 288.872 53.9961C288.665 53.9116 288.468 53.8037 288.286 53.6744C288.245 53.6482 288.21 53.6139 288.182 53.5736C288.155 53.5334 288.136 53.488 288.127 53.4402C288.117 53.3924 288.118 53.3432 288.128 53.2956C288.139 53.248 288.159 53.2031 288.187 53.1635C288.215 53.1239 288.251 53.0904 288.293 53.0652C288.335 53.04 288.381 53.0235 288.429 53.0168C288.477 53.01 288.527 53.0132 288.574 53.026C288.62 53.0389 288.664 53.0611 288.702 53.0915C288.868 53.2089 289.188 53.3829 289.346 53.3829C289.504 53.3829 289.824 53.2085 289.99 53.0915C290.068 53.0428 290.161 53.0255 290.251 53.0432C290.34 53.0609 290.42 53.1123 290.473 53.1867C290.526 53.2612 290.549 53.3532 290.537 53.4438C290.524 53.5345 290.478 53.617 290.406 53.6744C290.224 53.8034 290.027 53.9112 289.82 53.9955C289.786 54.0085 289.757 54.0314 289.736 54.0613C289.716 54.0912 289.705 54.1267 289.705 54.1629V56.7909C289.705 56.8384 289.724 56.8841 289.757 56.9177C289.791 56.9513 289.837 56.9702 289.884 56.9702H290.422C290.517 56.9702 290.609 56.9324 290.676 56.8652C290.743 56.7979 290.781 56.7066 290.781 56.6115V56.0734C290.781 55.6277 291.327 55.1109 291.726 54.7333L291.836 54.6288C292.554 53.9434 292.933 53.0154 292.933 51.948C292.936 51.4765 292.845 51.0093 292.665 50.5732C292.486 50.1372 292.222 49.741 291.889 49.4075Z" fill="#F9CF6B"/>
</g>
<ellipse cx="221.03" cy="49.3064" rx="10.429" ry="10.4358" fill="#8CC9EC"/>
<g clipPath="url(#clip1_2382_53902)">
<path d="M223.958 46.796H217.039C216.473 46.796 216.014 47.2547 216.014 47.8206V50.7936C216.014 51.3594 216.473 51.8182 217.039 51.8182H223.958C224.524 51.8182 224.982 51.3594 224.982 50.7936V47.8206C224.982 47.2547 224.524 46.796 223.958 46.796Z" stroke="#F8FCFE" strokeWidth="0.782684" stroke-miterlimit="10" stroke-linecap="square"/>
<path d="M223.689 48.0275H217.307C217.258 48.0275 217.218 48.0677 217.218 48.1172V50.4969C217.218 50.5465 217.258 50.5866 217.307 50.5866H223.689C223.739 50.5866 223.779 50.5465 223.779 50.4969V48.1172C223.779 48.0677 223.739 48.0275 223.689 48.0275Z" fill="#F8FCFE" stroke="#F8FCFE" strokeWidth="0.782684" stroke-miterlimit="10" stroke-linecap="square"/>
<path d="M226.059 48.4698V50.1437" stroke="#F8FCFE" strokeWidth="0.782684" stroke-miterlimit="10" stroke-linecap="round"/>
</g>
<ellipse cx="241.627" cy="118.183" rx="10.429" ry="10.4358" fill="#3B58F1"/>
<path d="M246.297 118.047C246.294 117.991 246.272 117.938 246.233 117.897C246.195 117.857 246.143 117.831 246.087 117.824L245.513 117.731C245.487 117.727 245.463 117.715 245.445 117.696C245.427 117.677 245.415 117.653 245.412 117.627C245.401 117.556 245.389 117.483 245.374 117.413C245.369 117.388 245.372 117.362 245.382 117.338C245.393 117.315 245.41 117.295 245.433 117.282L245.943 116.998C245.994 116.973 246.033 116.929 246.054 116.876C246.075 116.823 246.075 116.764 246.055 116.711L245.967 116.466C245.947 116.413 245.909 116.368 245.859 116.341C245.809 116.314 245.75 116.307 245.695 116.32L245.122 116.432C245.096 116.437 245.07 116.433 245.047 116.422C245.023 116.411 245.004 116.392 244.992 116.369C244.958 116.307 244.922 116.243 244.884 116.181C244.87 116.158 244.864 116.132 244.865 116.106C244.867 116.08 244.877 116.055 244.894 116.035L245.275 115.595C245.314 115.553 245.336 115.499 245.338 115.442C245.339 115.385 245.32 115.33 245.284 115.286L245.117 115.086C245.081 115.043 245.03 115.014 244.974 115.005C244.917 114.997 244.86 115.01 244.813 115.042L244.311 115.343C244.289 115.356 244.263 115.362 244.237 115.359C244.212 115.357 244.187 115.346 244.168 115.328C244.113 115.28 244.056 115.233 244.003 115.19C243.982 115.174 243.968 115.151 243.961 115.126C243.954 115.101 243.955 115.075 243.964 115.05L244.172 114.503C244.194 114.451 244.197 114.393 244.179 114.339C244.161 114.284 244.124 114.239 244.075 114.21L243.849 114.078C243.8 114.05 243.742 114.041 243.686 114.052C243.63 114.064 243.581 114.096 243.547 114.142L243.181 114.602C243.168 114.622 243.148 114.637 243.125 114.644C243.102 114.651 243.077 114.65 243.055 114.641C243.042 114.635 242.926 114.588 242.836 114.558C242.811 114.55 242.79 114.534 242.775 114.513C242.76 114.492 242.752 114.467 242.752 114.441L242.761 113.856C242.764 113.799 242.746 113.743 242.711 113.698C242.676 113.653 242.625 113.623 242.569 113.612L242.312 113.567C242.256 113.558 242.199 113.569 242.15 113.598C242.102 113.628 242.066 113.674 242.049 113.728L241.858 114.284C241.849 114.309 241.833 114.33 241.811 114.345C241.79 114.36 241.764 114.367 241.738 114.366H241.519C241.493 114.367 241.468 114.359 241.447 114.344C241.425 114.33 241.409 114.308 241.4 114.284L241.211 113.731C241.194 113.676 241.158 113.63 241.109 113.6C241.061 113.57 241.003 113.559 240.947 113.568L240.69 113.613C240.634 113.623 240.584 113.654 240.548 113.698C240.513 113.742 240.495 113.798 240.498 113.855L240.507 114.442C240.507 114.468 240.499 114.494 240.483 114.515C240.467 114.536 240.445 114.552 240.42 114.559C240.369 114.579 240.257 114.622 240.207 114.641C240.162 114.657 240.113 114.639 240.074 114.594L239.709 114.145C239.676 114.099 239.626 114.067 239.571 114.055C239.515 114.043 239.457 114.052 239.407 114.08L239.182 114.211C239.132 114.24 239.094 114.286 239.077 114.34C239.059 114.395 239.062 114.454 239.085 114.506L239.292 115.052C239.301 115.076 239.302 115.103 239.296 115.128C239.289 115.153 239.274 115.175 239.254 115.192C239.2 115.237 239.144 115.281 239.088 115.331C239.069 115.348 239.045 115.359 239.019 115.362C238.994 115.364 238.968 115.359 238.946 115.346L238.45 115.039C238.403 115.008 238.345 114.995 238.289 115.003C238.233 115.012 238.182 115.04 238.145 115.083L237.979 115.283C237.942 115.326 237.923 115.382 237.924 115.438C237.926 115.495 237.948 115.55 237.988 115.591L238.371 116.031C238.388 116.051 238.398 116.076 238.399 116.102C238.401 116.128 238.395 116.154 238.381 116.176C238.342 116.237 238.306 116.301 238.273 116.365C238.26 116.388 238.241 116.406 238.217 116.418C238.194 116.429 238.167 116.433 238.141 116.428L237.569 116.317C237.514 116.304 237.455 116.312 237.405 116.339C237.355 116.365 237.317 116.41 237.297 116.463L237.207 116.707C237.188 116.761 237.188 116.82 237.209 116.873C237.229 116.926 237.269 116.969 237.319 116.995L237.83 117.279C237.853 117.292 237.871 117.312 237.882 117.336C237.893 117.359 237.895 117.386 237.89 117.412L237.884 117.44C237.873 117.503 237.862 117.562 237.851 117.625C237.848 117.651 237.836 117.675 237.818 117.693C237.8 117.712 237.777 117.724 237.751 117.729L237.175 117.822C237.119 117.829 237.067 117.856 237.03 117.899C236.992 117.941 236.971 117.996 236.97 118.052V118.312C236.97 118.369 236.991 118.424 237.029 118.467C237.067 118.509 237.119 118.536 237.176 118.542L237.751 118.635C237.777 118.639 237.801 118.652 237.819 118.67C237.838 118.689 237.849 118.714 237.852 118.74C237.863 118.81 237.875 118.884 237.89 118.953C237.896 118.978 237.893 119.005 237.882 119.028C237.871 119.052 237.854 119.071 237.832 119.084L237.321 119.368C237.27 119.394 237.231 119.438 237.21 119.491C237.19 119.544 237.189 119.603 237.209 119.656L237.299 119.9C237.318 119.954 237.357 119.998 237.407 120.025C237.457 120.052 237.515 120.06 237.571 120.046L238.143 119.935C238.169 119.931 238.195 119.934 238.219 119.946C238.242 119.957 238.262 119.975 238.274 119.998C238.308 120.061 238.344 120.124 238.381 120.187C238.395 120.209 238.402 120.235 238.4 120.262C238.398 120.288 238.388 120.313 238.372 120.333L237.99 120.773C237.951 120.814 237.929 120.868 237.926 120.925C237.924 120.982 237.943 121.038 237.979 121.082L238.145 121.281C238.182 121.325 238.233 121.354 238.289 121.362C238.345 121.371 238.403 121.358 238.45 121.326L238.951 121.025C238.974 121.012 239 121.006 239.025 121.009C239.051 121.011 239.075 121.022 239.095 121.039C239.15 121.088 239.207 121.135 239.26 121.178C239.28 121.194 239.295 121.216 239.302 121.241C239.309 121.266 239.308 121.293 239.299 121.317L239.091 121.864C239.068 121.917 239.066 121.975 239.083 122.029C239.101 122.083 239.138 122.129 239.188 122.157L239.414 122.288C239.463 122.317 239.521 122.326 239.577 122.314C239.633 122.303 239.682 122.271 239.716 122.225L240.087 121.769C240.118 121.73 240.168 121.713 240.204 121.728C240.282 121.76 240.334 121.778 240.427 121.809C240.452 121.817 240.473 121.833 240.488 121.854C240.503 121.875 240.511 121.9 240.511 121.926L240.502 122.51C240.499 122.567 240.517 122.624 240.552 122.668C240.588 122.713 240.638 122.744 240.694 122.754L240.951 122.799C241.007 122.809 241.064 122.798 241.113 122.768C241.161 122.739 241.197 122.693 241.214 122.638L241.405 122.083C241.414 122.058 241.43 122.037 241.452 122.022C241.473 122.007 241.499 122 241.525 122.001H241.744C241.77 122.001 241.795 122.008 241.816 122.023C241.838 122.038 241.854 122.059 241.863 122.083L242.052 122.637C242.067 122.685 242.097 122.727 242.137 122.756C242.178 122.786 242.226 122.803 242.277 122.803C242.29 122.803 242.303 122.801 242.317 122.799L242.574 122.754C242.63 122.744 242.68 122.714 242.715 122.669C242.75 122.625 242.768 122.569 242.766 122.512L242.757 121.926C242.756 121.9 242.765 121.875 242.78 121.854C242.795 121.833 242.816 121.817 242.841 121.809C242.927 121.78 242.987 121.757 243.041 121.736L243.054 121.731C243.123 121.707 243.157 121.736 243.177 121.761L243.552 122.223C243.586 122.269 243.635 122.301 243.691 122.312C243.746 122.324 243.804 122.315 243.853 122.286L244.079 122.156C244.129 122.127 244.166 122.081 244.184 122.027C244.201 121.973 244.199 121.914 244.176 121.862L243.969 121.316C243.96 121.292 243.958 121.265 243.965 121.24C243.972 121.215 243.986 121.193 244.007 121.176C244.061 121.132 244.117 121.087 244.173 121.037C244.192 121.02 244.216 121.009 244.242 121.006C244.268 121.004 244.293 121.01 244.316 121.023L244.818 121.324C244.865 121.355 244.922 121.367 244.979 121.359C245.035 121.351 245.086 121.322 245.123 121.279L245.289 121.079C245.325 121.036 245.345 120.98 245.343 120.923C245.342 120.867 245.319 120.812 245.28 120.771L244.898 120.33C244.881 120.31 244.871 120.285 244.869 120.259C244.867 120.233 244.874 120.207 244.888 120.185C244.926 120.124 244.963 120.06 244.996 119.996C245.008 119.973 245.028 119.955 245.051 119.943C245.075 119.932 245.101 119.928 245.127 119.933L245.698 120.044C245.754 120.058 245.812 120.05 245.862 120.023C245.913 119.996 245.951 119.952 245.971 119.898L246.059 119.654C246.079 119.601 246.079 119.542 246.058 119.489C246.037 119.436 245.998 119.392 245.947 119.366L245.436 119.082C245.413 119.07 245.395 119.05 245.385 119.026C245.374 119.002 245.372 118.976 245.377 118.95L245.383 118.922C245.394 118.859 245.405 118.8 245.416 118.737C245.419 118.711 245.431 118.688 245.449 118.669C245.467 118.65 245.49 118.638 245.516 118.633L246.092 118.54C246.148 118.533 246.2 118.506 246.238 118.464C246.276 118.421 246.297 118.367 246.297 118.31V118.047ZM239.965 120.155C239.937 120.203 239.898 120.245 239.851 120.275C239.804 120.306 239.75 120.325 239.694 120.33C239.639 120.336 239.582 120.329 239.53 120.309C239.478 120.288 239.431 120.256 239.394 120.214C238.888 119.656 238.61 118.929 238.611 118.176C238.613 117.423 238.895 116.698 239.403 116.142C239.441 116.1 239.488 116.068 239.54 116.048C239.592 116.028 239.649 116.02 239.705 116.026C239.761 116.032 239.814 116.052 239.861 116.083C239.908 116.113 239.947 116.155 239.975 116.204L240.998 118.005C241.029 118.059 241.045 118.12 241.045 118.182C241.045 118.244 241.029 118.304 240.998 118.358L239.965 120.155ZM241.634 121.213C241.42 121.213 241.208 121.19 240.999 121.145C240.945 121.133 240.894 121.108 240.851 121.073C240.808 121.038 240.774 120.993 240.752 120.942C240.729 120.891 240.719 120.835 240.722 120.779C240.726 120.724 240.742 120.67 240.77 120.622L241.801 118.828C241.832 118.774 241.877 118.729 241.931 118.698C241.985 118.667 242.046 118.65 242.108 118.65H244.174C244.23 118.65 244.285 118.663 244.334 118.688C244.384 118.713 244.427 118.75 244.46 118.794C244.493 118.839 244.515 118.891 244.524 118.946C244.533 119.001 244.529 119.057 244.513 119.11C244.121 120.328 242.979 121.213 241.634 121.213ZM241.802 117.538L240.782 115.741C240.754 115.693 240.738 115.639 240.735 115.583C240.733 115.528 240.743 115.472 240.765 115.421C240.788 115.37 240.822 115.326 240.865 115.29C240.908 115.255 240.959 115.231 241.013 115.219C241.217 115.176 241.425 115.154 241.634 115.154C242.979 115.154 244.121 116.038 244.512 117.257C244.529 117.31 244.533 117.366 244.523 117.421C244.514 117.476 244.492 117.528 244.459 117.573C244.426 117.618 244.383 117.654 244.334 117.679C244.284 117.704 244.229 117.717 244.173 117.717H242.111C242.048 117.717 241.986 117.701 241.932 117.669C241.878 117.638 241.833 117.592 241.802 117.538Z" fill="white"/>
<rect x="199.389" y="72.7876" width="40.1515" height="8.60953" rx="4.30476" fill="#C9BDFD"/>
<g clipPath="url(#clip2_2382_53902)">
<path d="M203.128 75.4285C202.859 75.4285 202.596 75.5083 202.373 75.6578C202.149 75.8074 201.975 76.0199 201.872 76.2685C201.769 76.5172 201.742 76.7908 201.795 77.0548C201.847 77.3187 201.977 77.5612 202.167 77.7515C202.357 77.9418 202.599 78.0714 202.863 78.1239C203.127 78.1764 203.4 78.1495 203.649 78.0465C203.897 77.9435 204.11 77.7691 204.259 77.5453C204.408 77.3215 204.488 77.0584 204.488 76.7893C204.488 76.4284 204.345 76.0823 204.09 75.8271C203.835 75.5719 203.489 75.4285 203.128 75.4285V75.4285Z" stroke="white" strokeWidth="0.403201" stroke-miterlimit="10"/>
<path d="M204.143 77.8046L205.093 78.755" stroke="white" strokeWidth="0.403201" stroke-miterlimit="10" stroke-linecap="round"/>
</g>
<line x1="206.559" y1="74.0919" x2="206.559" y2="80.0925" stroke="white" strokeWidth="0.260895"/>
<path d="M213.748 80.6845C213.837 80.4681 214.143 80.4681 214.232 80.6845L214.856 82.2141C214.882 82.279 214.934 82.3305 214.998 82.3571L216.527 82.9817C216.744 83.0701 216.744 83.3764 216.527 83.4648L214.998 84.0894C214.934 84.1159 214.882 84.1675 214.856 84.2324L214.232 85.7619C214.143 85.9784 213.837 85.9784 213.748 85.7619L213.124 84.2324C213.098 84.1675 213.046 84.1159 212.981 84.0894L211.452 83.4648C211.236 83.3764 211.236 83.0701 211.452 82.9817L212.981 82.3571C213.046 82.3305 213.098 82.279 213.124 82.2141L213.748 80.6845Z" fill="white"/>
<path d="M221.71 63.2396C221.843 62.9149 222.302 62.9149 222.435 63.2396L223.371 65.5339C223.411 65.6313 223.488 65.7086 223.585 65.7483L225.879 66.6853C226.203 66.8179 226.203 67.2773 225.879 67.4099L223.585 68.3469C223.488 68.3867 223.411 68.4639 223.371 68.5613L222.435 70.8556C222.302 71.1803 221.843 71.1803 221.71 70.8556L220.774 68.5613C220.734 68.4639 220.657 68.3867 220.56 68.3469L218.266 67.4099C217.942 67.2773 217.942 66.8179 218.266 66.6853L220.56 65.7483C220.657 65.7086 220.734 65.6313 220.774 65.5339L221.71 63.2396Z" fill="white"/>
<path d="M271.369 61.6391C271.457 61.4226 271.763 61.4226 271.852 61.6391L272.476 63.1686C272.502 63.2335 272.554 63.2851 272.619 63.3116L274.148 63.9362C274.364 64.0246 274.364 64.3309 274.148 64.4193L272.619 65.0439C272.554 65.0705 272.502 65.122 272.476 65.1869L271.852 66.7165C271.763 66.9329 271.457 66.9329 271.369 66.7165L270.744 65.1869C270.718 65.122 270.667 65.0705 270.602 65.0439L269.073 64.4193C268.856 64.3309 268.856 64.0246 269.073 63.9362L270.602 63.3116C270.667 63.2851 270.718 63.2335 270.744 63.1686L271.369 61.6391Z" fill="white"/>
<path d="M233.824 56.6821C233.913 56.4656 234.219 56.4656 234.307 56.6821L234.932 58.2116C234.958 58.2765 235.01 58.3281 235.074 58.3546L236.603 58.9792C236.82 59.0676 236.82 59.3739 236.603 59.4623L235.074 60.0869C235.01 60.1135 234.958 60.165 234.932 60.2299L234.307 61.7595C234.219 61.9759 233.913 61.9759 233.824 61.7595L233.2 60.2299C233.174 60.165 233.122 60.1135 233.057 60.0869L231.528 59.4623C231.312 59.3739 231.312 59.0676 231.528 58.9792L233.057 58.3546C233.122 58.3281 233.174 58.2765 233.2 58.2116L233.824 56.6821Z" fill="white"/>
<path d="M282.218 66.5819C282.344 66.2752 282.778 66.2752 282.903 66.5819L283.787 68.7487C283.824 68.8407 283.897 68.9137 283.989 68.9512L286.155 69.8362C286.462 69.9614 286.462 70.3953 286.155 70.5205L283.989 71.4054C283.897 71.443 283.824 71.516 283.787 71.608L282.903 73.7748C282.778 74.0815 282.344 74.0815 282.218 73.7748L281.334 71.608C281.297 71.516 281.224 71.443 281.132 71.4054L278.966 70.5205C278.659 70.3953 278.659 69.9614 278.966 69.8362L281.132 68.9512C281.224 68.9137 281.297 68.8407 281.334 68.7487L282.218 66.5819Z" fill="white"/>
<path d="M290.221 70.573C290.28 70.4287 290.484 70.4287 290.543 70.573L290.959 71.5927C290.977 71.636 291.011 71.6704 291.055 71.688L292.074 72.1045C292.218 72.1634 292.218 72.3676 292.074 72.4265L291.055 72.843C291.011 72.8606 290.977 72.895 290.959 72.9383L290.543 73.958C290.484 74.1023 290.28 74.1023 290.221 73.958L289.805 72.9383C289.788 72.895 289.753 72.8606 289.71 72.843L288.691 72.4265C288.546 72.3676 288.546 72.1634 288.691 72.1045L289.71 71.688C289.753 71.6704 289.788 71.636 289.805 71.5927L290.221 70.573Z" fill="white"/>
<ellipse cx="226.766" cy="101.747" rx="3.12869" ry="3.13074" fill="#62CFD7"/>
<g clipPath="url(#clip3_2382_53902)">
<path d="M256.939 94.6867L253.78 95.4732L253.161 95.6274L253.304 95.0054L253.949 92.2154L253.928 92.1866L253.924 92.1802L253.919 92.1737C253.214 91.1042 252.838 89.8512 252.838 88.57M256.939 94.6867L259.612 81.9183C257.772 81.9183 256.049 82.6286 254.762 83.9191L254.762 83.9193C253.517 85.1688 252.833 86.8218 252.838 88.57M256.939 94.6867C257.011 94.714 257.429 94.8734 257.876 94.9983L257.876 94.9984C258.264 95.1065 259.067 95.2696 259.715 95.2696C261.519 95.2696 263.208 94.5695 264.465 93.2968L264.465 93.2967C265.711 92.0349 266.396 90.3565 266.396 88.5729L256.939 94.6867ZM252.838 88.57C252.838 88.5698 252.838 88.5696 252.838 88.5694L253.229 88.5694L252.838 88.5706C252.838 88.5704 252.838 88.5702 252.838 88.57ZM263.911 83.4263L263.912 83.427C265.106 84.3883 265.937 85.73 266.251 87.2078C266.348 87.6564 266.396 88.114 266.396 88.5728L263.911 83.4263ZM263.911 83.4263C262.691 82.4494 261.175 81.9175 259.612 81.9183L263.911 83.4263ZM256.511 88.3325L256.234 88.0558L256.511 88.3325C256.584 88.2595 256.677 88.2099 256.778 88.1898C256.879 88.1696 256.984 88.18 257.079 88.2194C257.174 88.2589 257.255 88.3257 257.313 88.4115C257.37 88.4973 257.401 88.5983 257.401 88.7015C257.401 88.84 257.346 88.9727 257.248 89.0706C257.15 89.1684 257.018 89.2233 256.879 89.2233C256.776 89.2233 256.676 89.1927 256.59 89.1354C256.504 89.0781 256.437 88.9967 256.398 88.9013C256.358 88.8059 256.348 88.7009 256.368 88.5997C256.388 88.4984 256.438 88.4054 256.511 88.3325ZM262.788 88.4115L263.113 88.1942L262.788 88.4115C262.845 88.4973 262.876 88.5983 262.876 88.7015C262.876 88.84 262.821 88.9727 262.723 89.0706C262.625 89.1684 262.493 89.2233 262.355 89.2233C262.252 89.2233 262.151 89.1927 262.065 89.1354C261.979 89.0781 261.913 88.9967 261.873 88.9013C261.834 88.8059 261.823 88.7009 261.843 88.5997C261.864 88.4984 261.913 88.4054 261.986 88.3325C262.059 88.2595 262.152 88.2099 262.253 88.1898C262.354 88.1696 262.459 88.18 262.554 88.2194C262.649 88.2589 262.731 88.3257 262.788 88.4115ZM259.617 89.2233C259.514 89.2233 259.413 89.1927 259.328 89.1354C259.242 89.0781 259.175 88.9967 259.136 88.9013C259.096 88.8059 259.086 88.7009 259.106 88.5997C259.126 88.4984 259.176 88.4054 259.249 88.3325C259.321 88.2595 259.414 88.2099 259.515 88.1898C259.616 88.1696 259.721 88.18 259.816 88.2194C259.912 88.2589 259.993 88.3257 260.05 88.4115C260.108 88.4973 260.138 88.5983 260.138 88.7015C260.138 88.84 260.083 88.9727 259.985 89.0706C259.888 89.1684 259.755 89.2233 259.617 89.2233Z" fill="#37CE86" stroke="white" strokeWidth="0.782684"/>
</g>
<path d="M21.9815 67.2727V76H20.4134V68.5852H16.5952V76H15.027V67.2727H21.9815ZM26.7021 76.1278C26.0458 76.1278 25.479 75.9915 25.0018 75.7188C24.5273 75.4432 24.1623 75.054 23.9066 74.5511C23.6509 74.0455 23.5231 73.4503 23.5231 72.7656C23.5231 72.0923 23.6509 71.5014 23.9066 70.9929C24.1651 70.4815 24.5259 70.0838 24.989 69.7997C25.4521 69.5128 25.9961 69.3693 26.6211 69.3693C27.0245 69.3693 27.4052 69.4347 27.7631 69.5653C28.1239 69.6932 28.4421 69.892 28.7177 70.1619C28.9961 70.4318 29.2148 70.7756 29.3739 71.1932C29.533 71.608 29.6126 72.1023 29.6126 72.6761V73.1491H24.2475V72.1094H28.1339C28.131 71.8139 28.0671 71.5511 27.9421 71.321C27.8171 71.0881 27.6424 70.9048 27.418 70.7713C27.1964 70.6378 26.9379 70.571 26.6424 70.571C26.3271 70.571 26.0501 70.6477 25.8114 70.8011C25.5728 70.9517 25.3867 71.1506 25.2532 71.3977C25.1225 71.642 25.0558 71.9105 25.0529 72.2031V73.1108C25.0529 73.4915 25.1225 73.8182 25.2617 74.0909C25.4009 74.3608 25.5955 74.5682 25.8455 74.7131C26.0955 74.8551 26.3881 74.9261 26.7234 74.9261C26.9478 74.9261 27.1509 74.8949 27.3327 74.8324C27.5146 74.767 27.6722 74.6719 27.8058 74.5469C27.9393 74.4219 28.0401 74.267 28.1083 74.0824L29.5487 74.2443C29.4577 74.625 29.2844 74.9574 29.0288 75.2415C28.7759 75.5227 28.4521 75.7415 28.0572 75.8977C27.6623 76.0511 27.2106 76.1278 26.7021 76.1278ZM30.9176 78.4545V69.4545H32.4347V70.5369H32.5241C32.6037 70.3778 32.7159 70.2088 32.8608 70.0298C33.0057 69.848 33.2017 69.6932 33.4489 69.5653C33.696 69.4347 34.0114 69.3693 34.3949 69.3693C34.9006 69.3693 35.3565 69.4986 35.7628 69.7571C36.1719 70.0128 36.4957 70.392 36.7344 70.8949C36.9759 71.3949 37.0966 72.0085 37.0966 72.7358C37.0966 73.4545 36.9787 74.0653 36.7429 74.5682C36.5071 75.071 36.1861 75.4545 35.7798 75.7188C35.3736 75.983 34.9134 76.1151 34.3991 76.1151C34.0241 76.1151 33.7131 76.0526 33.4659 75.9276C33.2188 75.8026 33.0199 75.652 32.8693 75.4759C32.7216 75.2969 32.6065 75.1278 32.5241 74.9688H32.4602V78.4545H30.9176ZM32.4304 72.7273C32.4304 73.1506 32.4901 73.5213 32.6094 73.8395C32.7315 74.1577 32.9063 74.4062 33.1335 74.5852C33.3636 74.7614 33.642 74.8494 33.9688 74.8494C34.3097 74.8494 34.5952 74.7585 34.8253 74.5767C35.0554 74.392 35.2287 74.1406 35.3452 73.8224C35.4645 73.5014 35.5241 73.1364 35.5241 72.7273C35.5241 72.321 35.4659 71.9602 35.3494 71.6449C35.233 71.3295 35.0597 71.0824 34.8295 70.9034C34.5994 70.7244 34.3125 70.6349 33.9688 70.6349C33.6392 70.6349 33.3594 70.7216 33.1293 70.8949C32.8991 71.0682 32.7244 71.3111 32.6051 71.6236C32.4886 71.9361 32.4304 72.304 32.4304 72.7273ZM41.3153 76.1278C40.6591 76.1278 40.0923 75.9915 39.6151 75.7188C39.1406 75.4432 38.7756 75.054 38.5199 74.5511C38.2642 74.0455 38.1364 73.4503 38.1364 72.7656C38.1364 72.0923 38.2642 71.5014 38.5199 70.9929C38.7784 70.4815 39.1392 70.0838 39.6023 69.7997C40.0653 69.5128 40.6094 69.3693 41.2344 69.3693C41.6378 69.3693 42.0185 69.4347 42.3764 69.5653C42.7372 69.6932 43.0554 69.892 43.331 70.1619C43.6094 70.4318 43.8281 70.7756 43.9872 71.1932C44.1463 71.608 44.2259 72.1023 44.2259 72.6761V73.1491H38.8608V72.1094H42.7472C42.7443 71.8139 42.6804 71.5511 42.5554 71.321C42.4304 71.0881 42.2557 70.9048 42.0312 70.7713C41.8097 70.6378 41.5511 70.571 41.2557 70.571C40.9403 70.571 40.6634 70.6477 40.4247 70.8011C40.1861 70.9517 40 71.1506 39.8665 71.3977C39.7358 71.642 39.669 71.9105 39.6662 72.2031V73.1108C39.6662 73.4915 39.7358 73.8182 39.875 74.0909C40.0142 74.3608 40.2088 74.5682 40.4588 74.7131C40.7088 74.8551 41.0014 74.9261 41.3366 74.9261C41.5611 74.9261 41.7642 74.8949 41.946 74.8324C42.1278 74.767 42.2855 74.6719 42.419 74.5469C42.5526 74.4219 42.6534 74.267 42.7216 74.0824L44.1619 74.2443C44.071 74.625 43.8977 74.9574 43.642 75.2415C43.3892 75.5227 43.0653 75.7415 42.6705 75.8977C42.2756 76.0511 41.8239 76.1278 41.3153 76.1278ZM45.5309 76V69.4545H48.2795C49.055 69.4545 49.6673 69.6094 50.1161 69.919C50.5678 70.2287 50.7937 70.6605 50.7937 71.2145C50.7937 71.581 50.6658 71.8807 50.4102 72.1136C50.1573 72.3437 49.8121 72.4986 49.3746 72.5781C49.7184 72.6065 50.0195 72.6932 50.2781 72.8381C50.5394 72.983 50.744 73.1733 50.8917 73.4091C51.0394 73.6449 51.1133 73.9162 51.1133 74.223C51.1133 74.5838 51.0181 74.8977 50.8278 75.1648C50.6403 75.429 50.3661 75.6349 50.0053 75.7827C49.6474 75.9276 49.2127 76 48.7013 76H45.5309ZM46.9755 74.7855H48.7013C48.9854 74.7855 49.2085 74.7187 49.3704 74.5852C49.5323 74.4489 49.6133 74.2642 49.6133 74.0312C49.6133 73.7614 49.5323 73.5497 49.3704 73.3963C49.2085 73.2401 48.9854 73.1619 48.7013 73.1619H46.9755V74.7855ZM46.9755 72.1648H48.3093C48.5195 72.1648 48.6999 72.1349 48.8505 72.0753C49.0011 72.0128 49.1161 71.9261 49.1957 71.8153C49.2752 71.7017 49.315 71.5668 49.315 71.4105C49.315 71.1861 49.2227 71.0099 49.038 70.8821C48.8562 70.7543 48.6033 70.6903 48.2795 70.6903H46.9755V72.1648ZM55.2841 76.1278C54.6278 76.1278 54.0611 75.9915 53.5838 75.7188C53.1094 75.4432 52.7443 75.054 52.4886 74.5511C52.233 74.0455 52.1051 73.4503 52.1051 72.7656C52.1051 72.0923 52.233 71.5014 52.4886 70.9929C52.7472 70.4815 53.108 70.0838 53.571 69.7997C54.0341 69.5128 54.5781 69.3693 55.2031 69.3693C55.6065 69.3693 55.9872 69.4347 56.3452 69.5653C56.706 69.6932 57.0241 69.892 57.2997 70.1619C57.5781 70.4318 57.7969 70.7756 57.956 71.1932C58.1151 71.608 58.1946 72.1023 58.1946 72.6761V73.1491H52.8295V72.1094H56.7159C56.7131 71.8139 56.6491 71.5511 56.5241 71.321C56.3991 71.0881 56.2244 70.9048 56 70.7713C55.7784 70.6378 55.5199 70.571 55.2244 70.571C54.9091 70.571 54.6321 70.6477 54.3935 70.8011C54.1548 70.9517 53.9688 71.1506 53.8352 71.3977C53.7045 71.642 53.6378 71.9105 53.6349 72.2031V73.1108C53.6349 73.4915 53.7045 73.8182 53.8438 74.0909C53.983 74.3608 54.1776 74.5682 54.4276 74.7131C54.6776 74.8551 54.9702 74.9261 55.3054 74.9261C55.5298 74.9261 55.733 74.8949 55.9148 74.8324C56.0966 74.767 56.2543 74.6719 56.3878 74.5469C56.5213 74.4219 56.6222 74.267 56.6903 74.0824L58.1307 74.2443C58.0398 74.625 57.8665 74.9574 57.6108 75.2415C57.358 75.5227 57.0341 75.7415 56.6392 75.8977C56.2443 76.0511 55.7926 76.1278 55.2841 76.1278ZM58.9201 77.9006V74.7301H59.44C59.5792 74.6222 59.6957 74.4759 59.7894 74.2912C59.8832 74.1037 59.9599 73.8835 60.0195 73.6307C60.082 73.375 60.1332 73.0895 60.1729 72.7741C60.2127 72.456 60.2482 72.1136 60.2795 71.7472L60.467 69.4545H65.1971V74.7301H66.2113V77.9006H64.7198V76H60.4371V77.9006H58.9201ZM61.0252 74.7301H63.7227V70.6989H61.805L61.7028 71.7472C61.646 72.4403 61.5707 73.0341 61.4769 73.5284C61.3832 74.0227 61.2326 74.4233 61.0252 74.7301ZM70.2607 76.1278C69.6044 76.1278 69.0376 75.9915 68.5604 75.7188C68.0859 75.4432 67.7209 75.054 67.4652 74.5511C67.2095 74.0455 67.0817 73.4503 67.0817 72.7656C67.0817 72.0923 67.2095 71.5014 67.4652 70.9929C67.7237 70.4815 68.0845 70.0838 68.5476 69.7997C69.0107 69.5128 69.5547 69.3693 70.1797 69.3693C70.5831 69.3693 70.9638 69.4347 71.3217 69.5653C71.6825 69.6932 72.0007 69.892 72.2763 70.1619C72.5547 70.4318 72.7734 70.7756 72.9325 71.1932C73.0916 71.608 73.1712 72.1023 73.1712 72.6761V73.1491H67.8061V72.1094H71.6925C71.6896 71.8139 71.6257 71.5511 71.5007 71.321C71.3757 71.0881 71.201 70.9048 70.9766 70.7713C70.755 70.6378 70.4964 70.571 70.201 70.571C69.8857 70.571 69.6087 70.6477 69.37 70.8011C69.1314 70.9517 68.9453 71.1506 68.8118 71.3977C68.6811 71.642 68.6143 71.9105 68.6115 72.2031V73.1108C68.6115 73.4915 68.6811 73.8182 68.8203 74.0909C68.9595 74.3608 69.1541 74.5682 69.4041 74.7131C69.6541 74.8551 69.9467 74.9261 70.282 74.9261C70.5064 74.9261 70.7095 74.8949 70.8913 74.8324C71.0732 74.767 71.2308 74.6719 71.3643 74.5469C71.4979 74.4219 71.5987 74.267 71.6669 74.0824L73.1072 74.2443C73.0163 74.625 72.843 74.9574 72.5874 75.2415C72.3345 75.5227 72.0107 75.7415 71.6158 75.8977C71.2209 76.0511 70.7692 76.1278 70.2607 76.1278ZM78.2433 74.206L80.1864 69.4545H81.4308L78.7844 76H77.7063L75.1197 69.4545H76.3512L78.2433 74.206ZM75.9634 69.4545V76H74.4762V69.4545H75.9634ZM80.587 76V69.4545H82.0614V76H80.587ZM86.2354 70.7202V69.4545H91.9627V70.7202H89.8448V76H88.3533V70.7202H86.2354ZM93.1911 76V69.4545H95.9396C96.7152 69.4545 97.3274 69.6094 97.7763 69.919C98.228 70.2287 98.4538 70.6605 98.4538 71.2145C98.4538 71.581 98.326 71.8807 98.0703 72.1136C97.8175 72.3437 97.4723 72.4986 97.0348 72.5781C97.3786 72.6065 97.6797 72.6932 97.9382 72.8381C98.1996 72.983 98.4041 73.1733 98.5518 73.4091C98.6996 73.6449 98.7734 73.9162 98.7734 74.223C98.7734 74.5838 98.6783 74.8977 98.4879 75.1648C98.3004 75.429 98.0263 75.6349 97.6655 75.7827C97.3075 75.9276 96.8729 76 96.3615 76H93.1911ZM94.6357 74.7855H96.3615C96.6456 74.7855 96.8686 74.7187 97.0305 74.5852C97.1925 74.4489 97.2734 74.2642 97.2734 74.0312C97.2734 73.7614 97.1925 73.5497 97.0305 73.3963C96.8686 73.2401 96.6456 73.1619 96.3615 73.1619H94.6357V74.7855ZM94.6357 72.1648H95.9695C96.1797 72.1648 96.3601 72.1349 96.5107 72.0753C96.6612 72.0128 96.7763 71.9261 96.8558 71.8153C96.9354 71.7017 96.9751 71.5668 96.9751 71.4105C96.9751 71.1861 96.8828 71.0099 96.6982 70.8821C96.5163 70.7543 96.2635 70.6903 95.9396 70.6903H94.6357V72.1648ZM102.902 76.1278C102.262 76.1278 101.708 75.9872 101.24 75.706C100.771 75.4247 100.407 75.0312 100.149 74.5256C99.8931 74.0199 99.7653 73.429 99.7653 72.7528C99.7653 72.0767 99.8931 71.4844 100.149 70.9759C100.407 70.4673 100.771 70.0724 101.24 69.7912C101.708 69.5099 102.262 69.3693 102.902 69.3693C103.541 69.3693 104.095 69.5099 104.564 69.7912C105.032 70.0724 105.395 70.4673 105.65 70.9759C105.909 71.4844 106.038 72.0767 106.038 72.7528C106.038 73.429 105.909 74.0199 105.65 74.5256C105.395 75.0312 105.032 75.4247 104.564 75.706C104.095 75.9872 103.541 76.1278 102.902 76.1278ZM102.91 74.892C103.257 74.892 103.547 74.7969 103.779 74.6065C104.012 74.4134 104.186 74.1548 104.299 73.831C104.416 73.5071 104.474 73.1463 104.474 72.7486C104.474 72.348 104.416 71.9858 104.299 71.6619C104.186 71.3352 104.012 71.0753 103.779 70.8821C103.547 70.6889 103.257 70.5923 102.91 70.5923C102.555 70.5923 102.26 70.6889 102.024 70.8821C101.791 71.0753 101.616 71.3352 101.5 71.6619C101.386 71.9858 101.329 72.348 101.329 72.7486C101.329 73.1463 101.386 73.5071 101.5 73.831C101.616 74.1548 101.791 74.4134 102.024 74.6065C102.26 74.7969 102.555 74.892 102.91 74.892ZM108.835 73.9119L111.455 69.4545H113.04V76H111.549V71.5384L108.937 76H107.347V69.4545H108.835V73.9119ZM117.175 76L119.591 72.6207L117.196 69.4545H118.978L120.84 72.0923H121.206V69.4545H122.749V72.0923H123.107L124.969 69.4545H126.75L124.368 72.6207L126.772 76H124.952L123.09 73.358H122.749V76H121.206V73.358H120.865L118.995 76H117.175ZM130.577 76.1278C129.921 76.1278 129.354 75.9915 128.877 75.7188C128.402 75.4432 128.037 75.054 127.782 74.5511C127.526 74.0455 127.398 73.4503 127.398 72.7656C127.398 72.0923 127.526 71.5014 127.782 70.9929C128.04 70.4815 128.401 70.0838 128.864 69.7997C129.327 69.5128 129.871 69.3693 130.496 69.3693C130.9 69.3693 131.28 69.4347 131.638 69.5653C131.999 69.6932 132.317 69.892 132.593 70.1619C132.871 70.4318 133.09 70.7756 133.249 71.1932C133.408 71.608 133.488 72.1023 133.488 72.6761V73.1491H128.123V72.1094H132.009C132.006 71.8139 131.942 71.5511 131.817 71.321C131.692 71.0881 131.517 70.9048 131.293 70.7713C131.071 70.6378 130.813 70.571 130.517 70.571C130.202 70.571 129.925 70.6477 129.686 70.8011C129.448 70.9517 129.262 71.1506 129.128 71.3977C128.998 71.642 128.931 71.9105 128.928 72.2031V73.1108C128.928 73.4915 128.998 73.8182 129.137 74.0909C129.276 74.3608 129.471 74.5682 129.721 74.7131C129.971 74.8551 130.263 74.9261 130.598 74.9261C130.823 74.9261 131.026 74.8949 131.208 74.8324C131.39 74.767 131.547 74.6719 131.681 74.5469C131.814 74.4219 131.915 74.267 131.983 74.0824L133.424 74.2443C133.333 74.625 133.159 74.9574 132.904 75.2415C132.651 75.5227 132.327 75.7415 131.932 75.8977C131.537 76.0511 131.086 76.1278 130.577 76.1278ZM134.341 76L134.332 74.7301H134.558C134.729 74.7301 134.872 74.6918 134.989 74.6151C135.105 74.5384 135.202 74.4105 135.278 74.2315C135.355 74.0497 135.415 73.8054 135.457 73.4986C135.5 73.1918 135.53 72.8097 135.547 72.3523L135.662 69.4545H140.435V76H138.943V70.7202H137.064L136.962 72.8295C136.936 73.375 136.875 73.848 136.778 74.2486C136.685 74.6463 136.551 74.9744 136.378 75.233C136.207 75.4915 135.993 75.6847 135.734 75.8125C135.476 75.9375 135.17 76 134.818 76H134.341ZM143.871 76.1321C143.457 76.1321 143.083 76.0582 142.751 75.9105C142.421 75.7599 142.16 75.5384 141.967 75.2457C141.776 74.9531 141.681 74.5923 141.681 74.1634C141.681 73.794 141.749 73.4886 141.886 73.2472C142.022 73.0057 142.208 72.8125 142.444 72.6676C142.68 72.5227 142.945 72.4134 143.241 72.3395C143.539 72.2628 143.847 72.2074 144.165 72.1733C144.549 72.1335 144.86 72.098 145.099 72.0668C145.337 72.0327 145.511 71.9815 145.619 71.9134C145.729 71.8423 145.785 71.733 145.785 71.5852V71.5597C145.785 71.2386 145.69 70.9901 145.499 70.8139C145.309 70.6378 145.035 70.5497 144.677 70.5497C144.299 70.5497 143.999 70.6321 143.778 70.7969C143.559 70.9616 143.411 71.1562 143.335 71.3807L141.894 71.1761C142.008 70.7784 142.195 70.446 142.457 70.179C142.718 69.9091 143.038 69.7074 143.415 69.5739C143.793 69.4375 144.211 69.3693 144.668 69.3693C144.984 69.3693 145.298 69.4062 145.61 69.4801C145.923 69.554 146.208 69.6761 146.467 69.8466C146.725 70.0142 146.933 70.2429 147.089 70.5327C147.248 70.8224 147.327 71.1847 147.327 71.6193V76H145.844V75.1009H145.793C145.7 75.2827 145.567 75.4531 145.397 75.6122C145.229 75.7685 145.018 75.8949 144.762 75.9915C144.509 76.0852 144.212 76.1321 143.871 76.1321ZM144.272 74.9986C144.582 74.9986 144.85 74.9375 145.077 74.8153C145.305 74.6903 145.479 74.5256 145.602 74.321C145.727 74.1165 145.789 73.8935 145.789 73.652V72.8807C145.741 72.9205 145.658 72.9574 145.542 72.9915C145.428 73.0256 145.3 73.0554 145.158 73.081C145.016 73.1065 144.876 73.1293 144.737 73.1491C144.597 73.169 144.477 73.1861 144.374 73.2003C144.144 73.2315 143.938 73.2827 143.756 73.3537C143.575 73.4247 143.431 73.5241 143.326 73.652C143.221 73.777 143.168 73.9389 143.168 74.1378C143.168 74.4219 143.272 74.6364 143.479 74.7812C143.687 74.9261 143.951 74.9986 144.272 74.9986ZM153.374 72.0881V73.3537H149.888V72.0881H153.374ZM150.366 69.4545V76H148.879V69.4545H150.366ZM154.384 69.4545V76H152.901V69.4545H154.384ZM157.432 73.9119L160.053 69.4545H161.638V76H160.147V71.5384L157.534 76H155.945V69.4545H157.432V73.9119ZM167.092 76V70.7074H165.694C165.339 70.7074 165.066 70.7898 164.876 70.9545C164.685 71.1193 164.592 71.3239 164.594 71.5682C164.592 71.8125 164.681 72.0142 164.863 72.1733C165.045 72.3324 165.305 72.4119 165.643 72.4119H167.577V73.5369H165.643C165.12 73.5369 164.668 73.4545 164.288 73.2898C163.907 73.125 163.614 72.892 163.41 72.5909C163.205 72.2898 163.103 71.9375 163.103 71.5341C163.103 71.1136 163.207 70.7486 163.414 70.4389C163.624 70.1264 163.923 69.8849 164.309 69.7145C164.698 69.5412 165.16 69.4545 165.694 69.4545H168.536V76H167.092ZM162.864 76L164.692 72.642H166.214L164.381 76H162.864ZM19.2884 88.0881V89.3537H15.8026V88.0881H19.2884ZM16.2798 85.4545V92H14.7926V85.4545H16.2798ZM20.2983 85.4545V92H18.8153V85.4545H20.2983ZM23.7425 92.1321C23.3278 92.1321 22.9542 92.0582 22.6218 91.9105C22.2923 91.7599 22.0309 91.5384 21.8377 91.2457C21.6474 90.9531 21.5522 90.5923 21.5522 90.1634C21.5522 89.794 21.6204 89.4886 21.7567 89.2472C21.8931 89.0057 22.0792 88.8125 22.315 88.6676C22.5508 88.5227 22.8164 88.4134 23.1119 88.3395C23.4102 88.2628 23.7184 88.2074 24.0366 88.1733C24.4201 88.1335 24.7312 88.098 24.9698 88.0668C25.2085 88.0327 25.3817 87.9815 25.4897 87.9134C25.6005 87.8423 25.6559 87.733 25.6559 87.5852V87.5597C25.6559 87.2386 25.5607 86.9901 25.3704 86.8139C25.18 86.6378 24.9059 86.5497 24.5479 86.5497C24.1701 86.5497 23.8704 86.6321 23.6488 86.7969C23.43 86.9616 23.2823 87.1562 23.2056 87.3807L21.7653 87.1761C21.8789 86.7784 22.0664 86.446 22.3278 86.179C22.5891 85.9091 22.9087 85.7074 23.2866 85.5739C23.6644 85.4375 24.082 85.3693 24.5394 85.3693C24.8548 85.3693 25.1687 85.4062 25.4812 85.4801C25.7937 85.554 26.0792 85.6761 26.3377 85.8466C26.5962 86.0142 26.8036 86.2429 26.9599 86.5327C27.119 86.8224 27.1985 87.1847 27.1985 87.6193V92H25.7156V91.1009H25.6644C25.5707 91.2827 25.4386 91.4531 25.2681 91.6122C25.1005 91.7685 24.8888 91.8949 24.6332 91.9915C24.3803 92.0852 24.0835 92.1321 23.7425 92.1321ZM24.1431 90.9986C24.4528 90.9986 24.7212 90.9375 24.9485 90.8153C25.1758 90.6903 25.3505 90.5256 25.4727 90.321C25.5977 90.1165 25.6602 89.8935 25.6602 89.652V88.8807C25.6119 88.9205 25.5295 88.9574 25.413 88.9915C25.2994 89.0256 25.1715 89.0554 25.0295 89.081C24.8874 89.1065 24.7468 89.1293 24.6076 89.1491C24.4684 89.169 24.3477 89.1861 24.2454 89.2003C24.0153 89.2315 23.8093 89.2827 23.6275 89.3537C23.4457 89.4247 23.3022 89.5241 23.1971 89.652C23.092 89.777 23.0394 89.9389 23.0394 90.1378C23.0394 90.4219 23.1431 90.6364 23.3505 90.7812C23.5579 90.9261 23.8221 90.9986 24.1431 90.9986ZM35.5955 92V86.7074H34.1978C33.8427 86.7074 33.57 86.7898 33.3796 86.9545C33.1893 87.1193 33.0955 87.3239 33.0984 87.5682C33.0955 87.8125 33.185 88.0142 33.3668 88.1733C33.5487 88.3324 33.8086 88.4119 34.1467 88.4119H36.0813V89.5369H34.1467C33.6239 89.5369 33.1722 89.4545 32.7915 89.2898C32.4109 89.125 32.1183 88.892 31.9137 88.5909C31.7092 88.2898 31.6069 87.9375 31.6069 87.5341C31.6069 87.1136 31.7106 86.7486 31.918 86.4389C32.1282 86.1264 32.4265 85.8849 32.8129 85.7145C33.2021 85.5412 33.6637 85.4545 34.1978 85.4545H37.0401V92H35.5955ZM31.3683 92L33.1964 88.642H34.7177L32.8853 92H31.3683ZM38.2312 90.206H39.761C39.7752 90.4503 39.8846 90.6392 40.0891 90.7727C40.2937 90.9062 40.5593 90.973 40.886 90.973C41.2184 90.973 41.4982 90.9006 41.7255 90.7557C41.9556 90.608 42.0707 90.3849 42.0707 90.0866C42.0707 89.9105 42.0266 89.7557 41.9386 89.6222C41.8505 89.4858 41.7269 89.3807 41.5678 89.3068C41.4087 89.233 41.2212 89.196 41.0053 89.196H40.0039V88.1009H41.0053C41.3263 88.1009 41.5692 88.027 41.734 87.8793C41.9016 87.7315 41.9854 87.5455 41.9854 87.321C41.9854 87.0795 41.8974 86.8835 41.7212 86.733C41.5479 86.5824 41.3079 86.5071 41.0011 86.5071C40.6942 86.5071 40.4386 86.5767 40.234 86.7159C40.0323 86.8551 39.9272 87.0341 39.9187 87.2528H38.3974C38.4031 86.8722 38.5167 86.5412 38.7383 86.2599C38.9627 85.9787 39.2638 85.7599 39.6417 85.6037C40.0224 85.4474 40.4513 85.3693 40.9286 85.3693C41.44 85.3693 41.8817 85.446 42.2539 85.5994C42.6261 85.7528 42.913 85.9673 43.1147 86.2429C43.3164 86.5156 43.4173 86.8366 43.4173 87.206C43.4173 87.5611 43.3065 87.8551 43.0849 88.0881C42.8633 88.3182 42.565 88.483 42.19 88.5824V88.6506C42.4485 88.6648 42.6815 88.7386 42.8888 88.8722C43.0962 89.0028 43.261 89.1804 43.3832 89.4048C43.5053 89.6293 43.5664 89.8892 43.5664 90.1847C43.5664 90.5852 43.4513 90.9318 43.2212 91.2244C42.9911 91.5142 42.6744 91.7372 42.271 91.8935C41.8704 92.0497 41.4116 92.1278 40.8945 92.1278C40.3917 92.1278 39.9414 92.0526 39.5437 91.902C39.1488 91.7486 38.8349 91.5284 38.6019 91.2415C38.369 90.9545 38.2454 90.6094 38.2312 90.206ZM45.8249 87.5852H47.7553C48.5906 87.5852 49.2369 87.7884 49.6942 88.1946C50.1516 88.6009 50.3817 89.1335 50.3846 89.7926C50.3817 90.2216 50.2766 90.6023 50.0692 90.9347C49.8647 91.267 49.5664 91.5284 49.1744 91.7188C48.7852 91.9062 48.3121 92 47.7553 92H44.7809V85.4545H46.2681V90.7344H47.7553C48.0906 90.7344 48.3661 90.6491 48.582 90.4787C48.7979 90.3054 48.9059 90.0838 48.9059 89.8139C48.9059 89.5298 48.7979 89.2983 48.582 89.1193C48.3661 88.9403 48.0906 88.8509 47.7553 88.8509H45.8249V87.5852ZM51.1985 92V85.4545H52.7411V92H51.1985ZM54.3317 92V85.4545H55.8743V88.0966H56.4368L58.4055 85.4545H60.2635L57.8388 88.6676L60.2891 92H58.4226L56.6286 89.5327H55.8743V92H54.3317ZM63.5607 93.9006V90.7301H64.0806C64.2198 90.6222 64.3363 90.4759 64.43 90.2912C64.5238 90.1037 64.6005 89.8835 64.6602 89.6307C64.7227 89.375 64.7738 89.0895 64.8136 88.7741C64.8533 88.456 64.8888 88.1136 64.9201 87.7472L65.1076 85.4545H69.8377V90.7301H70.8519V93.9006H69.3604V92H65.0778V93.9006H63.5607ZM65.6658 90.7301H68.3633V86.6989H66.4457L66.3434 87.7472C66.2866 88.4403 66.2113 89.0341 66.1175 89.5284C66.0238 90.0227 65.8732 90.4233 65.6658 90.7301ZM73.4908 89.9119L76.1115 85.4545H77.6967V92H76.2053V87.5384L73.593 92H72.0036V85.4545H73.4908V89.9119ZM82.136 92.1278C81.4826 92.1278 80.9215 91.9844 80.4528 91.6974C79.9869 91.4105 79.6275 91.0142 79.3746 90.5085C79.1246 90 78.9996 89.4148 78.9996 88.7528C78.9996 88.0881 79.1275 87.5014 79.3832 86.9929C79.6388 86.4815 79.9996 86.0838 80.4656 85.7997C80.9343 85.5128 81.4883 85.3693 82.1275 85.3693C82.6587 85.3693 83.1289 85.4673 83.538 85.6634C83.9499 85.8565 84.2781 86.1307 84.5224 86.4858C84.7667 86.8381 84.9059 87.25 84.94 87.7216H83.4656C83.4059 87.4062 83.2638 87.1435 83.0394 86.9332C82.8178 86.7202 82.521 86.6136 82.1488 86.6136C81.8335 86.6136 81.5565 86.6989 81.3178 86.8693C81.0792 87.0369 80.8931 87.2784 80.7596 87.5938C80.6289 87.9091 80.5636 88.2869 80.5636 88.7273C80.5636 89.1733 80.6289 89.5568 80.7596 89.8778C80.8903 90.196 81.0735 90.4418 81.3093 90.6151C81.5479 90.7855 81.8278 90.8707 82.1488 90.8707C82.3761 90.8707 82.5792 90.8281 82.7582 90.7429C82.94 90.6548 83.092 90.5284 83.2141 90.3636C83.3363 90.1989 83.4201 89.9986 83.4656 89.7628H84.94C84.9031 90.2259 84.7667 90.6364 84.5309 90.9943C84.2951 91.3494 83.9741 91.6278 83.5678 91.8295C83.1616 92.0284 82.6843 92.1278 82.136 92.1278ZM91.7337 85.4545V90.8494H92.7351V94.1051H91.2266V92H86.2067V85.4545H87.6939V90.7344H90.2592V85.4545H91.7337ZM95.4869 89.9119L98.1076 85.4545H99.6928V92H98.2013V87.5384L95.5891 92H93.9996V85.4545H95.4869V89.9119ZM101.277 92V85.4545H106.804V92H105.317V86.7202H102.751V92H101.277ZM107.939 92L107.93 90.7301H108.156C108.326 90.7301 108.47 90.6918 108.586 90.6151C108.703 90.5384 108.799 90.4105 108.876 90.2315C108.953 90.0497 109.012 89.8054 109.055 89.4986C109.098 89.1918 109.127 88.8097 109.145 88.3523L109.26 85.4545H114.032V92H112.541V86.7202H110.662L110.559 88.8295C110.534 89.375 110.473 89.848 110.376 90.2486C110.282 90.6463 110.149 90.9744 109.975 91.233C109.805 91.4915 109.591 91.6847 109.332 91.8125C109.074 91.9375 108.768 92 108.416 92H107.939ZM117.073 89.9119L119.694 85.4545H121.279V92H119.787V87.5384L117.175 92H115.586V85.4545H117.073V89.9119ZM127.359 88.0881V89.3537H123.873V88.0881H127.359ZM124.35 85.4545V92H122.863V85.4545H124.35ZM128.369 85.4545V92H126.886V85.4545H128.369Z" fill="#1F1F22"/>
<path d="M43.7831 133.421C44.3245 133.366 44.711 134.036 44.3926 134.477L42.6864 136.842C42.5909 136.974 42.5536 137.146 42.5828 137.318L43.1053 140.395C43.2027 140.969 42.594 141.32 42.1456 140.949L39.7422 138.958C39.6076 138.846 39.4403 138.793 39.2779 138.809L36.3772 139.105C35.8358 139.16 35.4493 138.49 35.7677 138.049L37.4739 135.685C37.5694 135.552 37.6067 135.381 37.5775 135.208L37.055 132.132C36.9576 131.558 37.5663 131.206 38.0147 131.578L40.4181 133.568C40.5527 133.68 40.72 133.733 40.8824 133.717L43.7831 133.421Z" fill="#8533FF"/>
<path d="M176.804 32.7307C177.395 32.645 177.845 33.3584 177.513 33.8553L175.734 36.5186C175.634 36.6677 175.6 36.857 175.639 37.0438L176.332 40.3807C176.461 41.0034 175.807 41.4159 175.301 41.0311L172.587 38.969C172.435 38.8536 172.25 38.803 172.072 38.8287L168.903 39.2877C168.311 39.3734 167.861 38.66 168.193 38.163L169.972 35.4997C170.072 35.3506 170.106 35.1613 170.067 34.9745L169.375 31.6377C169.245 31.015 169.899 30.6025 170.405 30.9873L173.119 33.0494C173.271 33.1648 173.456 33.2154 173.634 33.1897L176.804 32.7307Z" fill="#F9CF6B"/>
<path d="M303.923 14.2621C304.257 13.813 304.926 14.0011 304.977 14.5587L305.438 19.6156C305.454 19.7829 305.532 19.9344 305.656 20.0359L309.411 23.1047C309.825 23.4431 309.625 24.1559 309.095 24.2285L304.29 24.8872C304.131 24.909 303.985 24.9972 303.885 25.1319L300.852 29.2047C300.518 29.6538 299.85 29.4657 299.799 28.9081L299.337 23.8512C299.322 23.6839 299.243 23.5324 299.119 23.4309L295.364 20.3621C294.95 20.0237 295.151 19.3109 295.681 19.2383L300.485 18.5796C300.644 18.5578 300.79 18.4696 300.89 18.3349L303.923 14.2621Z" fill="#C766D7"/>
<path d="M163.991 111.687C164.445 111.179 165.204 111.479 165.187 112.161L165.077 116.594C165.072 116.799 165.144 116.991 165.276 117.128L168.133 120.087C168.573 120.542 168.239 121.385 167.607 121.416L163.498 121.618C163.309 121.627 163.125 121.718 162.989 121.871L160.035 125.178C159.58 125.687 158.821 125.387 158.838 124.705L158.948 120.271C158.953 120.067 158.882 119.875 158.75 119.738L155.892 116.779C155.452 116.324 155.786 115.481 156.418 115.45L160.527 115.248C160.716 115.239 160.9 115.148 161.036 114.995L163.991 111.687Z" fill="#C766D7"/>
<path d="M270.282 140.327C270.246 139.728 270.955 139.387 271.4 139.79L275.438 143.44C275.571 143.56 275.748 143.622 275.927 143.611L281.36 143.282C281.959 143.246 282.3 143.955 281.897 144.4L278.248 148.438C278.127 148.571 278.065 148.748 278.076 148.927L278.405 154.36C278.441 154.959 277.732 155.3 277.287 154.897L273.25 151.248C273.116 151.127 272.94 151.065 272.76 151.076L267.327 151.405C266.728 151.441 266.387 150.732 266.79 150.287L270.44 146.25C270.56 146.116 270.622 145.94 270.611 145.76L270.282 140.327Z" fill="#8CC9EC"/>
<g opacity="0.5">
<path d="M36.5666 31.1222C36.5748 31.1222 36.5829 31.1221 36.5911 31.122C36.967 31.1178 37.3194 31.016 37.6243 30.8409C38.0543 30.5938 38.3897 30.2009 38.5631 29.7296C38.5764 29.6934 38.5887 29.6567 38.6001 29.6196C38.6606 29.4223 38.6931 29.2128 38.6931 28.9956C38.6931 28.7377 38.6472 28.4905 38.5631 28.2617C38.2642 27.4489 37.4831 26.8691 36.5666 26.8691C36.1171 26.8691 35.7001 27.0086 35.3567 27.2466C34.8028 27.6305 34.44 28.2707 34.44 28.9956C34.44 29.185 34.4648 29.3685 34.5112 29.5433C34.6426 30.0375 34.9475 30.4611 35.3567 30.7447C35.6097 30.92 35.9027 31.0419 36.2191 31.0939C36.3322 31.1125 36.4482 31.1222 36.5666 31.1222Z" fill="#F23C5B"/>
<path d="M30.2572 38.185C32.274 38.185 33.9515 36.7322 34.3002 34.816C34.3439 34.5758 34.3667 34.3284 34.3667 34.0756C34.3667 34.0594 34.3666 34.0433 34.3664 34.0271C34.3591 33.3979 34.2105 32.8027 33.9507 32.2718C33.4978 31.3462 32.7073 30.616 31.7395 30.2416C31.6154 30.1936 31.4884 30.1514 31.3588 30.1155C31.1679 30.0625 30.9714 30.0229 30.7704 29.9979C30.6023 29.9769 30.431 29.9661 30.2572 29.9661C29.8341 29.9661 29.4259 30.0301 29.0418 30.1488C27.5665 30.6049 26.4463 31.8696 26.199 33.4251C26.1653 33.637 26.1478 33.8542 26.1478 34.0756C26.1478 34.2134 26.1546 34.3496 26.1678 34.484C26.2377 35.1921 26.4873 35.8473 26.8703 36.4036C27.6114 37.4796 28.8519 38.185 30.2572 38.185Z" fill="#F23C5B"/>
<path d="M34.5112 29.5433C34.4648 29.3685 34.44 29.185 34.44 28.9956C34.44 28.2707 34.8028 27.6305 35.3567 27.2466C34.5914 27.5951 34.3449 28.7898 34.3098 29.3623C34.2703 30.0071 33.7968 30.5865 32.8958 30.4145C32.3681 30.3137 31.8311 30.2022 31.3588 30.1155C31.4884 30.1514 31.6154 30.1936 31.7395 30.2416C32.7073 30.616 33.4978 31.3462 33.9507 32.2718C34.2105 32.8027 34.3591 33.3979 34.3664 34.0271C34.4068 33.3616 34.3164 32.9005 34.3098 32.3169C34.3002 31.4634 35.0784 31.1222 35.5951 31.1222C35.5951 31.1222 36.0744 31.0984 36.3539 31.1117C36.3086 31.1072 36.2636 31.1012 36.2191 31.0939C35.9027 31.0419 35.6097 30.92 35.3567 30.7447C34.9475 30.4611 34.6426 30.0375 34.5112 29.5433Z" fill="#F23C5B"/>
</g>
<g opacity="0.5">
<path d="M36.5666 31.1222C36.5748 31.1222 36.5829 31.1221 36.5911 31.122C36.967 31.1178 37.3194 31.016 37.6243 30.8409C38.0543 30.5938 38.3897 30.2009 38.5631 29.7296C38.5764 29.6934 38.5887 29.6567 38.6001 29.6196C38.6606 29.4223 38.6931 29.2128 38.6931 28.9956C38.6931 28.7377 38.6472 28.4905 38.5631 28.2617C38.2642 27.4489 37.4831 26.8691 36.5666 26.8691C36.1171 26.8691 35.7001 27.0086 35.3567 27.2466C34.8028 27.6305 34.44 28.2707 34.44 28.9956C34.44 29.185 34.4648 29.3685 34.5112 29.5433C34.6426 30.0375 34.9475 30.4611 35.3567 30.7447C35.6097 30.92 35.9027 31.0419 36.2191 31.0939C36.3322 31.1125 36.4482 31.1222 36.5666 31.1222Z" fill="white"/>
<path d="M30.2572 38.185C32.274 38.185 33.9515 36.7322 34.3002 34.816C34.3439 34.5758 34.3667 34.3284 34.3667 34.0756C34.3667 34.0594 34.3666 34.0433 34.3664 34.0271C34.3591 33.3979 34.2105 32.8027 33.9507 32.2718C33.4978 31.3462 32.7073 30.616 31.7395 30.2416C31.6154 30.1936 31.4884 30.1514 31.3588 30.1155C31.1679 30.0625 30.9714 30.0229 30.7704 29.9979C30.6023 29.9769 30.431 29.9661 30.2572 29.9661C29.8341 29.9661 29.4259 30.0301 29.0418 30.1488C27.5665 30.6049 26.4463 31.8696 26.199 33.4251C26.1653 33.637 26.1478 33.8542 26.1478 34.0756C26.1478 34.2134 26.1546 34.3496 26.1678 34.484C26.2377 35.1921 26.4873 35.8473 26.8703 36.4036C27.6114 37.4796 28.8519 38.185 30.2572 38.185Z" fill="white"/>
<path d="M34.5112 29.5433C34.4648 29.3685 34.44 29.185 34.44 28.9956C34.44 28.2707 34.8028 27.6305 35.3567 27.2466C34.5914 27.5951 34.3449 28.7898 34.3098 29.3623C34.2703 30.0071 33.7968 30.5865 32.8958 30.4145C32.3681 30.3137 31.8311 30.2022 31.3588 30.1155C31.4884 30.1514 31.6154 30.1936 31.7395 30.2416C32.7073 30.616 33.4978 31.3462 33.9507 32.2718C34.2105 32.8027 34.3591 33.3979 34.3664 34.0271C34.4068 33.3616 34.3164 32.9005 34.3098 32.3169C34.3002 31.4634 35.0784 31.1222 35.5951 31.1222C35.5951 31.1222 36.0744 31.0984 36.3539 31.1117C36.3086 31.1072 36.2636 31.1012 36.2191 31.0939C35.9027 31.0419 35.6097 30.92 35.3567 30.7447C34.9475 30.4611 34.6426 30.0375 34.5112 29.5433Z" fill="white"/>
</g>
<path d="M35.0979 30.779C35.106 30.779 35.1142 30.779 35.1224 30.7789C35.4982 30.7746 35.8507 30.6729 36.1556 30.4977C36.5856 30.2507 36.921 29.8577 37.0943 29.3864C37.1076 29.3502 37.12 29.3135 37.1314 29.2765C37.1918 29.0791 37.2244 28.8696 37.2244 28.6525C37.2244 28.3946 37.1785 28.1473 37.0943 27.9186C36.7954 27.1058 36.0144 26.526 35.0979 26.526C34.6484 26.526 34.2314 26.6654 33.888 26.9035C33.3341 27.2873 32.9713 27.9275 32.9713 28.6525C32.9713 28.8418 32.9961 29.0254 33.0425 29.2001C33.1739 29.6944 33.4788 30.1179 33.888 30.4015C34.141 30.5769 34.4339 30.6988 34.7504 30.7508C34.8635 30.7694 34.9795 30.779 35.0979 30.779Z" fill="url(#paint0_linear_2382_53902)"/>
<path d="M16.2653 36.7967C17.3737 36.7967 18.2722 35.8981 18.2722 34.7897C18.2722 34.6644 18.2608 34.5418 18.2388 34.4229C18.2334 34.3934 18.2273 34.3642 18.2206 34.3352C18.0543 33.6171 17.5027 33.0466 16.7953 32.8535C16.6264 32.8074 16.4487 32.7827 16.2653 32.7827C16.057 32.7827 15.8561 32.8145 15.6672 32.8734C14.8509 33.1279 14.2583 33.8896 14.2583 34.7897C14.2583 35.8981 15.1569 36.7967 16.2653 36.7967Z" fill="url(#paint1_linear_2382_53902)"/>
<path d="M28.7885 37.8419C30.8053 37.8419 32.4828 36.3891 32.8314 34.4729C32.8752 34.2327 32.898 33.9852 32.898 33.7325C32.898 33.7163 32.8979 33.7001 32.8977 33.684C32.8904 33.0548 32.7417 32.4596 32.482 31.9286C32.0291 31.0031 31.2385 30.2729 30.2708 29.8985C30.1467 29.8504 30.0197 29.8083 29.8901 29.7723C29.6992 29.7193 29.5027 29.6798 29.3017 29.6547C29.1336 29.6338 28.9623 29.623 28.7885 29.623C28.3654 29.623 27.9572 29.6869 27.5731 29.8057C26.0978 30.2618 24.9776 31.5265 24.7302 33.082C24.6966 33.2938 24.6791 33.5111 24.6791 33.7325C24.6791 33.8703 24.6858 34.0065 24.6991 34.1408C24.7689 34.8489 25.0185 35.5042 25.4016 36.0605C26.1427 37.1365 27.3832 37.8419 28.7885 37.8419Z" fill="url(#paint2_linear_2382_53902)"/>
<path d="M20.7778 32.1675C20.3319 32.1722 19.9004 32.0941 19.5044 31.9474C19.4607 31.9312 19.4175 31.9142 19.3746 31.8964C18.4226 31.5004 17.6798 30.7026 17.3578 29.7147C17.2446 29.3675 17.1834 28.9968 17.1834 28.6117C17.1834 29.7147 17.631 30.3632 17.757 30.8038C17.883 31.2444 17.7376 32.2241 16.904 32.5835C16.5898 32.719 15.9985 32.727 15.6672 32.8734C15.8561 32.8145 16.057 32.7827 16.2653 32.7827C16.4487 32.7827 16.6264 32.8074 16.7953 32.8535C17.5027 33.0466 18.0543 33.6171 18.2206 34.3352C18.2273 34.3642 18.2334 34.3934 18.2388 34.4229C18.1861 34.0713 18.0925 33.6825 18.12 33.4349C18.1807 32.8888 18.5424 32.2336 19.1263 32.0993C19.5374 32.0048 20.1805 32.1738 20.7778 32.1675Z" fill="url(#paint3_linear_2382_53902)"/>
<path d="M20.7394 25.0558C18.7755 25.0558 17.1834 26.6478 17.1834 28.6117C17.1834 28.9968 17.2446 29.3675 17.3578 29.7147C17.6798 30.7026 18.4226 31.5004 19.3746 31.8964C19.4206 31.9125 19.464 31.9297 19.5044 31.9474C19.9004 32.0941 20.3319 32.1722 20.7778 32.1675C21.2573 32.125 21.7169 32.066 22.1604 31.8724C22.9076 31.5463 23.5211 30.9709 23.8957 30.2512C24.151 29.7606 24.2954 29.203 24.2954 28.6117C24.2954 28.3241 24.2612 28.0444 24.1967 27.7766C24.0951 27.3544 23.9182 26.9616 23.681 26.6132C23.0411 25.6731 21.9623 25.0558 20.7394 25.0558Z" fill="url(#paint4_linear_2382_53902)"/>
<path d="M19.3746 31.8964C19.4175 31.9142 19.4607 31.9312 19.5044 31.9474C19.464 31.9297 19.4206 31.9125 19.3746 31.8964Z" fill="url(#paint5_linear_2382_53902)"/>
<path d="M27.5731 29.8057C27.9572 29.6869 28.3654 29.623 28.7885 29.623C28.9623 29.623 29.1336 29.6338 29.3017 29.6547C28.0344 29.4597 26.7759 30.062 26.0909 30.2512C25.4059 30.4404 24.4808 30.1168 24.4808 29.0646C24.4808 28.3069 24.1389 26.9955 23.681 26.6132C23.9182 26.9616 24.0951 27.3544 24.1967 27.7766C24.2612 28.0444 24.2954 28.3241 24.2954 28.6117C24.2954 29.203 24.151 29.7606 23.8957 30.2512C23.5211 30.9709 22.9076 31.5463 22.1604 31.8724C21.7169 32.066 21.2573 32.125 20.7778 32.1675C21.2688 32.1675 22.2633 31.9331 22.7153 31.7591C23.8957 31.3046 24.6327 31.9991 24.5749 32.6134C24.5172 33.2277 24.5749 34.9619 25.4016 36.0605C25.0185 35.5042 24.7689 34.8489 24.6991 34.1408C24.6858 34.0065 24.6791 33.8703 24.6791 33.7325C24.6791 33.5111 24.6966 33.2938 24.7302 33.082C24.9776 31.5265 26.0978 30.2618 27.5731 29.8057Z" fill="url(#paint6_linear_2382_53902)"/>
<path d="M40.1822 33.1815C40.1822 34.1385 39.4064 34.9142 38.4495 34.9142C37.6672 34.9142 37.0061 34.3959 36.7907 33.684C36.7426 33.5249 36.7168 33.3563 36.7168 33.1815C36.7168 32.2246 37.4925 31.4488 38.4495 31.4488C38.8344 31.4488 39.2095 31.5887 39.4777 31.7867C39.905 32.1023 40.1822 32.6095 40.1822 33.1815Z" fill="url(#paint7_linear_2382_53902)"/>
<path d="M33.0425 29.2001C32.9961 29.0254 32.9713 28.8418 32.9713 28.6525C32.9713 27.9275 33.3341 27.2873 33.888 26.9035C33.1227 27.2519 32.8762 28.4467 32.8411 29.0192C32.8016 29.664 32.3281 30.2433 31.427 30.0713C30.8994 29.9706 30.3624 29.859 29.8901 29.7723C30.0197 29.8083 30.1467 29.8504 30.2708 29.8985C31.2385 30.2729 32.0291 31.0031 32.482 31.9286C32.7417 32.4596 32.8904 33.0548 32.8977 33.684C32.9381 33.0185 32.8477 32.5574 32.8411 31.9737C32.8314 31.1203 33.6097 30.779 34.1264 30.779C34.1264 30.779 34.5634 30.7658 34.8428 30.779C35.1051 30.7915 35.5124 30.8407 35.5124 30.8407C36.0123 30.9323 36.9678 31.3502 36.7907 32.2885C36.6136 33.2268 36.6929 33.3607 36.7907 33.684C36.7426 33.5249 36.7168 33.3563 36.7168 33.1815C36.7168 32.2246 37.4925 31.4488 38.4495 31.4488C38.8344 31.4488 39.2095 31.5887 39.4777 31.7867C39.4389 31.7589 39.2629 31.4488 37.939 31.3396C37.5397 31.3067 36.828 30.8249 37.0036 29.8925C37.0539 29.6256 37.0971 29.4306 37.1314 29.2765C37.12 29.3135 37.1076 29.3502 37.0943 29.3864C36.921 29.8577 36.5856 30.2507 36.1556 30.4977C35.8507 30.6729 35.4982 30.7746 35.1224 30.7789C35.1142 30.779 35.106 30.779 35.0979 30.779C34.9795 30.779 34.8635 30.7694 34.7504 30.7508C34.4339 30.6988 34.141 30.5769 33.888 30.4015C33.4788 30.1179 33.1739 29.6944 33.0425 29.2001Z" fill="url(#paint8_linear_2382_53902)"/>
<ellipse opacity="0.5" cx="21.593" cy="27.3352" rx="3.42321" ry="3.36034" fill="#F23C5B"/>
<ellipse opacity="0.5" cx="21.593" cy="27.3352" rx="3.42321" ry="3.36034" fill="white"/>
<path d="M48.2119 28.2838V33H47.5003V28.2838H48.2119ZM49.0156 28.8963V28.2838H52.6656V28.8963H51.1941V33H50.4848V28.8963H49.0156ZM53.4721 28.2838H54.3357L55.8372 31.9499H55.8924L57.3939 28.2838H58.2574V33H57.5804V29.5872H57.5367L56.1457 32.9931H55.5838L54.1929 29.5849H54.1492V33H53.4721V28.2838ZM63.3887 30.6419C63.3887 31.1454 63.2966 31.5784 63.1124 31.9407C62.9282 32.3015 62.6756 32.5793 62.3548 32.7743C62.0354 32.9678 61.6724 33.0645 61.2655 33.0645C60.8572 33.0645 60.4925 32.9678 60.1717 32.7743C59.8523 32.5793 59.6006 32.3007 59.4163 31.9384C59.2321 31.5761 59.14 31.1439 59.14 30.6419C59.14 30.1383 59.2321 29.7062 59.4163 29.3454C59.6006 28.9831 59.8523 28.7052 60.1717 28.5118C60.4925 28.3168 60.8572 28.2193 61.2655 28.2193C61.6724 28.2193 62.0354 28.3168 62.3548 28.5118C62.6756 28.7052 62.9282 28.9831 63.1124 29.3454C63.2966 29.7062 63.3887 30.1383 63.3887 30.6419ZM62.6841 30.6419C62.6841 30.2581 62.6219 29.9349 62.4975 29.6724C62.3747 29.4083 62.2058 29.2088 61.9909 29.0737C61.7775 28.937 61.5357 28.8687 61.2655 28.8687C60.9938 28.8687 60.7512 28.937 60.5378 29.0737C60.3244 29.2088 60.1556 29.4083 60.0312 29.6724C59.9084 29.9349 59.847 30.2581 59.847 30.6419C59.847 31.0257 59.9084 31.3496 60.0312 31.6137C60.1556 31.8762 60.3244 32.0758 60.5378 32.2124C60.7512 32.3475 60.9938 32.4151 61.2655 32.4151C61.5357 32.4151 61.7775 32.3475 61.9909 32.2124C62.2058 32.0758 62.3747 31.8762 62.4975 31.6137C62.6219 31.3496 62.6841 31.0257 62.6841 30.6419ZM64.3767 33.0438C64.2508 33.0438 64.1425 32.9992 64.052 32.9102C63.9614 32.8196 63.9161 32.7106 63.9161 32.5832C63.9161 32.4573 63.9614 32.3498 64.052 32.2608C64.1425 32.1702 64.2508 32.1249 64.3767 32.1249C64.5025 32.1249 64.6108 32.1702 64.7014 32.2608C64.7919 32.3498 64.8372 32.4573 64.8372 32.5832C64.8372 32.6676 64.8157 32.7452 64.7727 32.8158C64.7313 32.8849 64.676 32.9401 64.6069 32.9816C64.5379 33.023 64.4611 33.0438 64.3767 33.0438ZM65.3605 28.8963V28.2838H69.0105V28.8963H67.539V33H66.8297V28.8963H65.3605ZM69.8171 33V28.2838H71.4982C71.8636 28.2838 72.1668 28.3467 72.4078 28.4726C72.6504 28.5985 72.8315 28.7728 72.9513 28.9954C73.071 29.2164 73.1309 29.4721 73.1309 29.7622C73.1309 30.0508 73.0702 30.3049 72.949 30.5245C72.8292 30.7425 72.6481 30.9121 72.4055 31.0334C72.1645 31.1547 71.8613 31.2153 71.4959 31.2153H70.2224V30.6027H71.4314C71.6617 30.6027 71.849 30.5697 71.9933 30.5037C72.1391 30.4377 72.2458 30.3418 72.3134 30.2159C72.3809 30.09 72.4147 29.9388 72.4147 29.7622C72.4147 29.5841 72.3802 29.4298 72.3111 29.2993C72.2435 29.1688 72.1368 29.0691 71.991 29C71.8467 28.9294 71.6571 28.894 71.4222 28.894H70.5287V33H69.8171ZM72.1453 30.8722L73.3105 33H72.4999L71.3577 30.8722H72.1453ZM74.3951 33H73.6398L75.337 28.2838H76.1591L77.8563 33H77.101L75.7676 29.1404H75.7308L74.3951 33ZM74.5218 31.1531H76.972V31.7519H74.5218V31.1531ZM82.2328 29.8175H81.5144C81.4867 29.664 81.4353 29.5289 81.3601 29.4122C81.2848 29.2955 81.1927 29.1965 81.0837 29.1151C80.9747 29.0337 80.8527 28.9723 80.7176 28.9309C80.584 28.8894 80.442 28.8687 80.2916 28.8687C80.0198 28.8687 79.7765 28.937 79.5616 29.0737C79.3482 29.2103 79.1793 29.4106 79.0549 29.6747C78.9321 29.9388 78.8707 30.2612 78.8707 30.6419C78.8707 31.0257 78.9321 31.3496 79.0549 31.6137C79.1793 31.8778 79.3489 32.0773 79.5639 32.2124C79.7788 32.3475 80.0206 32.4151 80.2893 32.4151C80.4382 32.4151 80.5794 32.3951 80.713 32.3552C80.8481 32.3138 80.9701 32.2531 81.0791 32.1733C81.1881 32.0935 81.2802 31.996 81.3555 31.8808C81.4322 31.7641 81.4852 31.6306 81.5144 31.4801L82.2328 31.4824C82.1945 31.7142 82.12 31.9276 82.0095 32.1226C81.9005 32.3161 81.76 32.4834 81.5881 32.6246C81.4176 32.7643 81.2227 32.8726 81.0031 32.9493C80.7836 33.0261 80.5441 33.0645 80.2846 33.0645C79.8763 33.0645 79.5124 32.9678 79.1931 32.7743C78.8738 32.5793 78.622 32.3007 78.4378 31.9384C78.2551 31.5761 78.1637 31.1439 78.1637 30.6419C78.1637 30.1383 78.2558 29.7062 78.4401 29.3454C78.6243 28.9831 78.8761 28.7052 79.1954 28.5118C79.5147 28.3168 79.8778 28.2193 80.2846 28.2193C80.5349 28.2193 80.7682 28.2554 80.9847 28.3275C81.2027 28.3982 81.3985 28.5026 81.5719 28.6407C81.7454 28.7774 81.889 28.9447 82.0026 29.1427C82.1162 29.3393 82.1929 29.5642 82.2328 29.8175ZM83.0843 33V28.2838H83.7959V30.536H83.8535L85.8316 28.2838H86.7274L84.8253 30.407L86.7343 33H85.8777L84.3532 30.8929L83.7959 31.5331V33H83.0843Z" fill="#363636"/>
<defs>
<linearGradient id="paint0_linear_2382_53902" x1="14.2583" y1="31.4488" x2="34.0248" y2="31.4488" gradientUnits="userSpaceOnUse">
<stop stop-color="#FE462D"/>
<stop offset="0.520833" stop-color="#E33091"/>
<stop offset="1" stop-color="#8D34FF"/>
</linearGradient>
<linearGradient id="paint1_linear_2382_53902" x1="14.2583" y1="31.4488" x2="34.0248" y2="31.4488" gradientUnits="userSpaceOnUse">
<stop stop-color="#FE462D"/>
<stop offset="0.520833" stop-color="#E33091"/>
<stop offset="1" stop-color="#8D34FF"/>
</linearGradient>
<linearGradient id="paint2_linear_2382_53902" x1="14.2583" y1="31.4488" x2="34.0248" y2="31.4488" gradientUnits="userSpaceOnUse">
<stop stop-color="#FE462D"/>
<stop offset="0.520833" stop-color="#E33091"/>
<stop offset="1" stop-color="#8D34FF"/>
</linearGradient>
<linearGradient id="paint3_linear_2382_53902" x1="14.2583" y1="31.4488" x2="34.0248" y2="31.4488" gradientUnits="userSpaceOnUse">
<stop stop-color="#FE462D"/>
<stop offset="0.520833" stop-color="#E33091"/>
<stop offset="1" stop-color="#8D34FF"/>
</linearGradient>
<linearGradient id="paint4_linear_2382_53902" x1="14.2583" y1="31.4488" x2="34.0248" y2="31.4488" gradientUnits="userSpaceOnUse">
<stop stop-color="#FE462D"/>
<stop offset="0.520833" stop-color="#E33091"/>
<stop offset="1" stop-color="#8D34FF"/>
</linearGradient>
<linearGradient id="paint5_linear_2382_53902" x1="14.2583" y1="31.4488" x2="34.0248" y2="31.4488" gradientUnits="userSpaceOnUse">
<stop stop-color="#FE462D"/>
<stop offset="0.520833" stop-color="#E33091"/>
<stop offset="1" stop-color="#8D34FF"/>
</linearGradient>
<linearGradient id="paint6_linear_2382_53902" x1="14.2583" y1="31.4488" x2="34.0248" y2="31.4488" gradientUnits="userSpaceOnUse">
<stop stop-color="#FE462D"/>
<stop offset="0.520833" stop-color="#E33091"/>
<stop offset="1" stop-color="#8D34FF"/>
</linearGradient>
<linearGradient id="paint7_linear_2382_53902" x1="14.2583" y1="31.4488" x2="34.0248" y2="31.4488" gradientUnits="userSpaceOnUse">
<stop stop-color="#FE462D"/>
<stop offset="0.520833" stop-color="#E33091"/>
<stop offset="1" stop-color="#8D34FF"/>
</linearGradient>
<linearGradient id="paint8_linear_2382_53902" x1="14.2583" y1="31.4488" x2="34.0248" y2="31.4488" gradientUnits="userSpaceOnUse">
<stop stop-color="#FE462D"/>
<stop offset="0.520833" stop-color="#E33091"/>
<stop offset="1" stop-color="#8D34FF"/>
</linearGradient>
<clipPath id="clip0_2382_53902">
<rect width="11.4794" height="11.4794" fill="white" transform="translate(283.607 48.0018)"/>
</clipPath>
<clipPath id="clip1_2382_53902">
<rect width="11.4794" height="11.4794" fill="white" transform="translate(215.297 43.5669)"/>
</clipPath>
<clipPath id="clip2_2382_53902">
<rect width="4.43231" height="4.43521" fill="white" transform="translate(201.215 74.8746)"/>
</clipPath>
<clipPath id="clip3_2382_53902">
<rect width="14.6006" height="14.6101" fill="white" transform="translate(252.317 81.3968)"/>
</clipPath>
</defs>
</svg>
