<?xml version="1.0" encoding="UTF-8"?> <!-- Generator: Adobe Illustrator 24.1.2, SVG Export Plug-In . SVG Version: 6.00 Build 0) --> <svg xmlns="http://www.w3.org/2000/svg" xmlns:xlink="http://www.w3.org/1999/xlink" version="1.1" id="Layer_1" viewBox="0 0 381.7 84.1" style="enable-background:new 0 0 381.7 84.1;" xml:space="preserve"> <style type="text/css"> .st0{fill:#FEFEFE;} .st1{fill:#33CC66;} </style> <g> <g> <path class="st0" d="M86,55.8h-5.9L79.6,43l-7.4,10.4h-0.8L64,43l-0.7,12.8h-5.9l1.4-25.1h1.7l11.2,15l11.1-15h1.7L86,55.8z"></path> <path class="st0" d="M105.1,39.4c1.3,1.2,2,3.1,2,5.7V55c-3.2,0.9-6.2,1.4-8.9,1.4c-5.9,0-8.9-1.9-8.9-5.8c0-3.8,3-5.6,8-5.6 c1,0,2.4,0.1,4.4,0.4v-0.4c0-1.2-0.3-2-1-2.4c-0.7-0.4-1.8-0.6-3.3-0.6c-1.8,0-3.7,0.3-5.7,0.8l-0.6-3.9c2.7-0.7,5.1-1.1,7.4-1.1 C101.6,37.7,103.8,38.3,105.1,39.4z M98.4,52.4c1.1,0,2.2-0.1,3.3-0.2v-3.5c-1.4-0.2-2.6-0.3-3.6-0.3c-2.3,0-3.5,0.7-3.5,2 C94.6,51.8,95.7,52.4,98.4,52.4z"></path> <path class="st0" d="M123.6,38.2l-0.9,4.2c-1.5-0.3-2.8-0.4-4-0.3c-0.5,0-1.3,0.2-2.3,0.4v13.3H111v-16c3.1-1.4,6.1-2.1,8.9-2.1 C121.5,37.6,122.7,37.8,123.6,38.2z"></path> <path class="st0" d="M139,55.8l-5-8h-2v8h-5.4V28.5l5.4-0.3v15.4h2.1l4.8-5.4h6l-6.7,7.3l7,10.4H139z"></path> <path class="st0" d="M151.3,48.4c0.4,2.5,2.2,3.7,5.4,3.7c1.6,0,3.6-0.3,6-0.8l0.6,3.5c-0.7,0.4-1.8,0.7-3.1,1 c-1.3,0.3-2.7,0.5-4.1,0.5c-3.1,0-5.6-0.9-7.5-2.6c-1.8-1.7-2.8-3.9-2.8-6.6c0-2.7,0.9-5,2.7-6.7c1.8-1.8,4.1-2.6,7-2.6 c2.7,0,4.8,0.8,6.5,2.3c1.7,1.6,2.5,3.6,2.5,6c0,0.8-0.1,1.6-0.2,2.3H151.3z M159.2,44.9c0-0.8-0.3-1.6-0.9-2.2 c-0.6-0.6-1.6-0.9-3-0.9c-2.1,0-3.5,1-4,3.1H159.2z"></path> <path class="st0" d="M179.7,51.4l0.4,3.8c-1.8,0.6-3.6,0.9-5.4,0.9c-1.6,0-2.9-0.5-3.9-1.4c-1-0.9-1.4-2.4-1.4-4.4v-8.2h-2.8 l0.3-4h2.5v-4.5l5.4-0.7v5.2h5.4l-0.3,4h-5.1v7.6c0,1.3,0.5,1.8,1.9,1.8C177.6,51.6,178.6,51.6,179.7,51.4z"></path> <path class="st0" d="M220.5,55.8h-5.9L214.1,43l-7.4,10.4h-0.8L198.6,43l-0.7,12.8H192l1.4-25.1h1.7l11.2,15l11.1-15h1.7 L220.5,55.8z"></path> <path class="st0" d="M239.6,39.4c1.3,1.2,2,3.1,2,5.7V55c-3.2,0.9-6.2,1.4-8.9,1.4c-5.9,0-8.9-1.9-8.9-5.8c0-3.8,3-5.6,8-5.6 c1,0,2.4,0.1,4.4,0.4v-0.4c0-1.2-0.3-2-1-2.4c-0.7-0.4-1.8-0.6-3.3-0.6c-1.8,0-3.7,0.3-5.7,0.8l-0.6-3.9c2.7-0.7,5.1-1.1,7.4-1.1 C236.1,37.7,238.3,38.3,239.6,39.4z M232.9,52.4c1.1,0,2.2-0.1,3.3-0.2v-3.5c-1.4-0.2-2.6-0.3-3.6-0.3c-2.3,0-3.5,0.7-3.5,2 C229.2,51.8,230.3,52.4,232.9,52.4z"></path> <path class="st0" d="M258.1,55.8l-5-8h-2v8h-5.4V28.5l5.4-0.3v15.4h2.1l4.8-5.4h6l-6.7,7.3l7,10.4H258.1z"></path> <path class="st0" d="M272.3,35.1h-5.5v-5.4h5.5V35.1z M272.2,55.8h-5.4V38.2h5.4V55.8z"></path> <path class="st0" d="M294.2,44.3v11.5h-5.4V45.5c0-1.3-0.2-2.2-0.5-2.7c-0.4-0.5-1.1-0.8-2.3-0.8c-1.3,0-2.6,0.2-4.1,0.5v13.4 h-5.4v-16c3.3-1.4,6.6-2.1,10.1-2.1C291.4,37.7,294.2,40,294.2,44.3z"></path> <path class="st0" d="M316,57.9c0,1.9-0.9,3.5-2.8,4.7c-1.9,1.2-4.4,1.8-7.6,1.8c-2.8,0-5.1-0.5-6.7-1.4c-1.7-1-2.5-2.2-2.5-3.7 c0-1.6,0.9-2.9,2.6-4c-0.6-0.6-1-1.5-1-2.5c0-1.3,0.7-2.4,2.2-3.3c-1.5-1.2-2.3-2.9-2.3-5c0-2.1,0.8-3.8,2.3-5 c1.5-1.2,3.5-1.8,6-1.8c1.1,0,2.2,0.1,3.2,0.4c0.7-2.8,2.4-4.2,5-4.2h1.2l0.1,4.2h-1.1c-1.1,0-1.9,0.5-2.3,1.5 c1.3,1.2,2,2.8,2,4.8c0,2.1-0.7,3.7-2.2,4.9c-1.5,1.2-3.5,1.9-6,1.9c-1.1,0-2.2-0.1-3.1-0.4c-0.3,0.2-0.4,0.5-0.4,0.9 c0,0.5,0.3,0.8,1,0.9c0.1,0,1,0.1,2.5,0.2c1.5,0.2,3.1,0.3,4.6,0.5C314.2,53.7,316,55.2,316,57.9z M310.6,58.6 c0-0.9-0.6-1.3-2-1.5l-6-0.6c-0.6,0.6-1,1.2-1,1.8c0,1.3,1.4,2.2,4.3,2.2C309,60.5,310.6,59.8,310.6,58.6z M303.3,44.5 c0,1.8,1.1,2.9,2.7,2.9c1.8,0,2.7-1.1,2.7-2.9c0-1.8-0.9-2.7-2.7-2.7C304.2,41.7,303.3,42.8,303.3,44.5z"></path> <path class="st0" d="M345.6,38c0,2.7-0.9,4.9-2.8,6.6c-1.9,1.7-4.6,2.6-8.1,2.6c-0.9,0-1.9,0-3.1-0.1v8.7h-3.4V30.8 c0.5,0,1.8-0.1,3.9-0.1c2.1-0.1,3.5-0.1,4.2-0.1C342.5,30.6,345.7,33,345.6,38z M342.1,38.2c0-1.7-0.5-2.9-1.4-3.6 c-0.9-0.7-2.5-1.1-4.8-1.1c-0.3,0-1.8,0.1-4.3,0.2V44c1.3,0.1,2.4,0.1,3.3,0.1C339.7,44.1,342.1,42.1,342.1,38.2z"></path> <path class="st0" d="M360.4,38.1l-0.1,3c-1.5-0.2-2.9-0.2-4.1-0.1c-0.8,0.1-1.9,0.3-3.2,0.8v14.1h-3.3V40.1 c1.6-0.8,3.1-1.4,4.3-1.8c1.2-0.3,2.6-0.5,4-0.5C358.4,37.8,359.2,37.9,360.4,38.1z"></path> <path class="st0" d="M365.2,53.6c-1.8-1.7-2.7-3.9-2.7-6.6c0-2.6,0.9-4.8,2.8-6.5c1.8-1.8,4.1-2.6,6.8-2.6c2.8,0,5.2,0.9,6.9,2.6 c1.8,1.7,2.7,3.9,2.7,6.6c0,2.6-0.9,4.8-2.8,6.5c-1.9,1.8-4.1,2.6-6.8,2.6C369.2,56.2,366.9,55.3,365.2,53.6z M372.1,53.4 c1.8,0,3.3-0.6,4.5-1.8c1.1-1.2,1.7-2.7,1.7-4.5c0-1.8-0.6-3.3-1.7-4.5c-1.1-1.2-2.6-1.8-4.5-1.8c-1.9,0-3.4,0.6-4.5,1.8 c-1.1,1.2-1.7,2.7-1.7,4.5s0.6,3.3,1.7,4.5C368.8,52.8,370.3,53.4,372.1,53.4z"></path> </g> <polygon class="st1" points="37,29.1 37,18.7 36.4,18.7 36.4,29.1 32,29.1 32,29.1 32,29.1 25.3,35.8 25.3,15.8 21,15.8 21,0 20.4,0 20.4,15.8 16,15.8 16,35.8 9.3,29.1 9.3,29.1 9.3,29.1 9.3,29.1 9.3,29.1 4.9,29.1 4.9,18.7 4.3,18.7 4.3,29.1 0,29.1 0,56 4.3,56 4.3,70.6 4.9,70.6 4.9,56 9.3,56 9.3,40.2 16,46.9 16,63.9 20.4,63.9 20.4,84.1 21,84.1 21,63.9 25.3,63.9 25.3,46.9 32,40.2 32,56 36.4,56 36.4,70.6 37,70.6 37,56 41.3,56 41.3,29.1 "></polygon> </g> </svg>
