<svg width="28" height="28" viewBox="0 0 28 28" fill="none" xmlns="http://www.w3.org/2000/svg">
    <path d="M12.6113 1.40187C13.1192 0.157851 14.8808 0.157848 15.3887 1.40187L18.4004 8.77837C18.5528 9.15156 18.8489 9.44773 19.2221 9.6001L26.5986 12.6118C27.8426 13.1197 27.8426 14.8813 26.5986 15.3892L19.2221 18.4009C18.8489 18.5532 18.5528 18.8494 18.4004 19.2226L15.3887 26.5991C14.8808 27.8431 13.1192 27.8431 12.6113 26.5991L9.59961 19.2226C9.44724 18.8494 9.15108 18.5532 8.77788 18.4009L1.40138 15.3892C0.157362 14.8813 0.15736 13.1197 1.40138 12.6118L8.77788 9.6001C9.15108 9.44773 9.44724 9.15157 9.59961 8.77837L12.6113 1.40187Z"
          fill="#F9CF6B"/>
</svg>
