<svg width="16" height="16" viewBox="0 0 16 16" fill="none" xmlns="http://www.w3.org/2000/svg">
<path fillRule="evenodd" clipRule="evenodd" d="M14.4804 2.1864C14.6757 2.38167 14.6757 2.69825 14.4804 2.89351L13.6871 3.68684C13.4918 3.88211 13.1752 3.88211 12.98 3.68684C12.7847 3.49158 12.7847 3.175 12.98 2.97974L13.7733 2.1864C13.9686 1.99114 14.2852 1.99114 14.4804 2.1864Z" fill="white"/>
<path fillRule="evenodd" clipRule="evenodd" d="M3.02042 9.6464C3.21568 9.84167 3.21568 10.1582 3.02042 10.3535L2.22709 11.1468C2.03183 11.3421 1.71524 11.3421 1.51998 11.1468C1.32472 10.9516 1.32472 10.635 1.51998 10.4397L2.31332 9.6464C2.50858 9.45114 2.82516 9.45114 3.02042 9.6464Z" fill="white"/>
<path fillRule="evenodd" clipRule="evenodd" d="M2.18665 1.51974C2.38191 1.32448 2.69849 1.32448 2.89376 1.51974L3.68709 2.31307C3.88235 2.50833 3.88235 2.82492 3.68709 3.02018C3.49183 3.21544 3.17524 3.21544 2.97998 3.02018L2.18665 2.22684C1.99139 2.03158 1.99139 1.715 2.18665 1.51974Z" fill="white"/>
<path fillRule="evenodd" clipRule="evenodd" d="M12.98 9.6464C13.1752 9.45114 13.4918 9.45114 13.6871 9.6464L14.4804 10.4397C14.6757 10.635 14.6757 10.9516 14.4804 11.1468C14.2852 11.3421 13.9686 11.3421 13.7733 11.1468L12.98 10.3535C12.7847 10.1582 12.7847 9.84167 12.98 9.6464Z" fill="white"/>
<path fillRule="evenodd" clipRule="evenodd" d="M13.5002 6.66662C13.5002 6.39048 13.7241 6.16662 14.0002 6.16662H15.1269C15.403 6.16662 15.6269 6.39048 15.6269 6.66662C15.6269 6.94277 15.403 7.16662 15.1269 7.16662H14.0002C13.7241 7.16662 13.5002 6.94277 13.5002 6.66662Z" fill="white"/>
<path fillRule="evenodd" clipRule="evenodd" d="M0.373535 6.66662C0.373535 6.39048 0.597393 6.16662 0.873535 6.16662H2.0002C2.27634 6.16662 2.5002 6.39048 2.5002 6.66662C2.5002 6.94277 2.27634 7.16662 2.0002 7.16662H0.873535C0.597393 7.16662 0.373535 6.94277 0.373535 6.66662Z" fill="white"/>
<path fillRule="evenodd" clipRule="evenodd" d="M7.45866 2.19849C10.1846 1.87861 12.5002 4.00272 12.5002 6.66643C12.5002 8.1864 11.7443 9.52688 10.5934 10.3401C10.5208 10.3914 10.5002 10.4498 10.5002 10.4884V12.3331C10.5002 13.5299 9.5303 14.4998 8.33349 14.4998H7.66683C6.47002 14.4998 5.50016 13.5299 5.50016 12.3331V10.4911C5.50016 10.4499 5.47838 10.3904 5.40561 10.3388C4.07477 9.39833 3.27541 7.75365 3.5561 5.94828C3.86152 3.98709 5.48966 2.42917 7.45866 2.19849ZM6.51199 12.5C6.59291 13.0654 7.07896 13.4998 7.66683 13.4998H8.33349C8.92136 13.4998 9.40742 13.0654 9.48833 12.5H6.51199Z" fill="white"/>
</svg>
