<svg width="16" height="16" viewBox="0 0 16 16" fill="none" xmlns="http://www.w3.org/2000/svg">
    <path d="M2.6665 11.4167L2.6665 12.9167C2.6665 13.1156 2.74552 13.3064 2.88617 13.447C3.02683 13.5877 3.21759 13.6667 3.4165 13.6667L12.9165 13.6667C13.1154 13.6667 13.3062 13.5877 13.4468 13.447C13.5875 13.3064 13.6665 13.1156 13.6665 12.9167L13.6665 11.4167C13.6665 11.2178 13.5875 11.027 13.4468 10.8864C13.3062 10.7457 13.1154 10.6667 12.9165 10.6667L3.4165 10.6667C3.21759 10.6667 3.02683 10.7457 2.88617 10.8864C2.74552 11.027 2.6665 11.2178 2.6665 11.4167Z" fill="#8533FF"/>
    <path d="M2.6665 8.91669L2.6665 7.41669C2.6665 7.21777 2.74552 7.02701 2.88617 6.88636C3.02683 6.7457 3.21759 6.66669 3.4165 6.66669L10.4165 6.66669C10.6154 6.66669 10.8062 6.74571 10.9468 6.88636C11.0875 7.02701 11.1665 7.21777 11.1665 7.41669L11.1665 8.91669C11.1665 9.1156 11.0875 9.30636 10.9468 9.44702C10.8062 9.58767 10.6154 9.66669 10.4165 9.66669L3.4165 9.66669C3.21759 9.66669 3.02683 9.58767 2.88617 9.44702C2.74552 9.30636 2.6665 9.1156 2.6665 8.91669Z" fill="#8533FF"/>
    <path d="M2.6665 4.91669L2.6665 3.41669C2.6665 3.21777 2.74552 3.02701 2.88617 2.88636C3.02683 2.74571 3.21759 2.66669 3.4165 2.66669L12.9165 2.66669C13.1154 2.66669 13.3062 2.74571 13.4468 2.88636C13.5875 3.02701 13.6665 3.21777 13.6665 3.41669L13.6665 4.91669C13.6665 5.1156 13.5875 5.30636 13.4468 5.44702C13.3062 5.58767 13.1154 5.66669 12.9165 5.66669L3.4165 5.66669C3.21759 5.66669 3.02683 5.58767 2.88617 5.44702C2.74552 5.30636 2.6665 5.1156 2.6665 4.91669Z" fill="#8533FF"/>
</svg>
