<svg width="16" height="16" viewBox="0 0 16 16" fill="none" xmlns="http://www.w3.org/2000/svg">
<path d="M2.66667 3.41666L2.66667 4.91666C2.66667 5.11558 2.74569 5.30634 2.88634 5.44699C3.02699 5.58764 3.21776 5.66666 3.41667 5.66666L12.9167 5.66666C13.1156 5.66666 13.3063 5.58764 13.447 5.44699C13.5877 5.30634 13.6667 5.11558 13.6667 4.91666L13.6667 3.41666C13.6667 3.21775 13.5877 3.02699 13.447 2.88633C13.3063 2.74568 13.1156 2.66666 12.9167 2.66666L3.41667 2.66666C3.21776 2.66666 3.02699 2.74568 2.88634 2.88633C2.74569 3.02699 2.66667 3.21775 2.66667 3.41666ZM2.66667 7.41666L2.66667 8.91666C2.66667 9.11558 2.74569 9.30634 2.88634 9.44699C3.02699 9.58765 3.21776 9.66666 3.41667 9.66666L10.4167 9.66666C10.6156 9.66666 10.8063 9.58765 10.947 9.44699C11.0877 9.30634 11.1667 9.11558 11.1667 8.91666L11.1667 7.41666C11.1667 7.21775 11.0877 7.02699 10.947 6.88633C10.8063 6.74568 10.6156 6.66666 10.4167 6.66666L3.41667 6.66666C3.21776 6.66666 3.02699 6.74568 2.88634 6.88633C2.74569 7.02699 2.66667 7.21775 2.66667 7.41666ZM2.66667 11.4167L2.66667 12.9167C2.66667 13.1156 2.74569 13.3063 2.88634 13.447C3.02699 13.5876 3.21776 13.6667 3.41667 13.6667L12.9167 13.6667C13.1156 13.6667 13.3063 13.5876 13.447 13.447C13.5877 13.3063 13.6667 13.1156 13.6667 12.9167L13.6667 11.4167C13.6667 11.2178 13.5877 11.027 13.447 10.8863C13.3064 10.7457 13.1156 10.6667 12.9167 10.6667L3.41667 10.6667C3.21776 10.6667 3.02699 10.7457 2.88634 10.8863C2.74569 11.027 2.66667 11.2178 2.66667 11.4167Z" fill="#8533FF"/>
</svg>
