<svg width="10"  height="10" viewBox="0 0 10 10" fill="none" xmlns="http://www.w3.org/2000/svg">
<path d="M5.76808 5.7679L8.89801 5.7679C9.10173 5.76808 9.29718 5.68733 9.44137 5.54342C9.58555 5.39951 9.66665 5.20422 9.66683 5.00052C9.66701 4.79682 9.58625 4.60139 9.44232 4.45723C9.2984 4.31306 9.10309 4.23197 8.89936 4.23179H5.76944L5.76944 1.10272C5.76944 0.898837 5.68844 0.703307 5.54426 0.559141C5.40008 0.414976 5.20452 0.333984 5.00062 0.333984C4.79671 0.333984 4.60116 0.414976 4.45698 0.559141C4.3128 0.703307 4.23179 0.898837 4.23179 1.10272L4.23179 4.23179L1.10232 4.23179C0.898415 4.23179 0.702861 4.31278 0.558679 4.45694C0.414497 4.60111 0.333496 4.79664 0.333496 5.00052C0.333496 5.2044 0.414497 5.39993 0.558679 5.5441C0.702862 5.68827 0.898415 5.76926 1.10232 5.76926L4.23179 5.76926V8.89858C4.23179 9.10246 4.3128 9.29799 4.45698 9.44216C4.60116 9.58632 4.79671 9.66732 5.00062 9.66732C5.20452 9.66732 5.40008 9.58632 5.54426 9.44216C5.68844 9.29799 5.76944 9.10246 5.76944 8.89858L5.76808 5.7679Z" fill="#1F1F22"/>
</svg>
