<svg width="16" height="520" viewBox="0 0 16 520" fill="none" xmlns="http://www.w3.org/2000/svg" preserveAspectRatio="none">
<path d="M12.125 14C11.5564 14 11.0005 13.8314 10.5277 13.5155C10.0549 13.1996 9.68645 12.7506 9.46885 12.2252C9.25125 11.6999 9.19431 11.1218 9.30524 10.5641C9.41618 10.0065 9.68999 9.49417 10.0921 9.0921C10.4941 8.69002 11.0064 8.41621 11.5641 8.30527C12.1218 8.19434 12.6999 8.25128 13.2252 8.46888C13.7506 8.68648 14.1996 9.05498 14.5155 9.52777C14.8314 10.0006 15 10.5564 15 11.125C14.9992 11.8873 14.696 12.6181 14.157 13.1571C13.618 13.696 12.8872 13.9992 12.125 14ZM12.125 9.25003C11.7542 9.25003 11.3916 9.36 11.0833 9.56603C10.775 9.77205 10.5346 10.0649 10.3927 10.4075C10.2508 10.7501 10.2137 11.1271 10.286 11.4908C10.3584 11.8545 10.537 12.1886 10.7992 12.4509C11.0614 12.7131 11.3955 12.8917 11.7592 12.964C12.1229 13.0364 12.4999 12.9992 12.8425 12.8573C13.1851 12.7154 13.478 12.4751 13.684 12.1667C13.89 11.8584 14 11.4959 14 11.125C13.9994 10.6279 13.8017 10.1514 13.4502 9.79985C13.0987 9.44834 12.6221 9.25061 12.125 9.25003ZM3.875 14C3.30638 14 2.75053 13.8314 2.27774 13.5155C1.80495 13.1996 1.43645 12.7506 1.21885 12.2252C1.00125 11.6999 0.944311 11.1218 1.05524 10.5641C1.16618 10.0065 1.43999 9.49417 1.84207 9.0921C2.24415 8.69002 2.75642 8.41621 3.31412 8.30527C3.87181 8.19434 4.44988 8.25128 4.97522 8.46888C5.50055 8.68648 5.94957 9.05498 6.26548 9.52777C6.58139 10.0006 6.75 10.5564 6.75 11.125C6.74917 11.8873 6.44601 12.6181 5.90702 13.1571C5.36803 13.696 4.63724 13.9992 3.875 14ZM3.875 9.25003C3.50416 9.25003 3.14165 9.36 2.83331 9.56603C2.52497 9.77205 2.28464 10.0649 2.14273 10.4075C2.00081 10.7501 1.96368 11.1271 2.03603 11.4908C2.10838 11.8545 2.28695 12.1886 2.54918 12.4509C2.8114 12.7131 3.14549 12.8917 3.50921 12.964C3.87292 13.0364 4.24992 12.9992 4.59253 12.8573C4.93514 12.7154 5.22798 12.4751 5.43401 12.1667C5.64003 11.8584 5.75 11.4959 5.75 11.125C5.74942 10.6279 5.55169 10.1514 5.20019 9.79985C4.84868 9.44834 4.3721 9.25061 3.875 9.25003ZM10 4.00003C10.1317 4.00049 10.2622 3.97483 10.3839 3.92454C10.5057 3.87425 10.6162 3.80033 10.7092 3.70705C10.8022 3.61377 10.8758 3.50298 10.9257 3.38109C10.9756 3.25919 11.0009 3.12862 11 2.99691C11.0015 2.86585 10.9768 2.73583 10.9274 2.61443C10.878 2.49302 10.8049 2.38269 10.7124 2.28987C10.6199 2.19705 10.5097 2.12361 10.3885 2.07384C10.2673 2.02408 10.1373 1.99898 10.0063 2.00003C9.87493 1.99962 9.74481 2.02508 9.62333 2.07496C9.50185 2.12483 9.39138 2.19815 9.29823 2.29071C9.20508 2.38328 9.13108 2.49329 9.08044 2.61446C9.02981 2.73563 9.00354 2.86558 9.00313 2.99691C9.00272 3.12823 9.02818 3.25835 9.07805 3.37983C9.12793 3.50131 9.20124 3.61178 9.29381 3.70493C9.38638 3.79808 9.49639 3.87208 9.61756 3.92272C9.73872 3.97335 9.86868 3.99962 10 4.00003Z" fill="#8533FF"/>
<path d="M11.4859 6.00003H10.1184C10.096 6.00004 10.074 5.994 10.0547 5.98257C10.0354 5.97113 10.0195 5.95471 10.0088 5.93503L9.01688 4.11722C8.94699 3.98213 8.84628 3.86539 8.72289 3.77646C8.5995 3.68753 8.45691 3.62889 8.30665 3.60531C8.15639 3.58173 8.00269 3.59386 7.85799 3.64072C7.71329 3.68758 7.58166 3.76785 7.47375 3.87503L5.29063 6.07503C5.10722 6.26223 5.00311 6.51298 5 6.77503C5 7.31878 5.39375 7.51253 5.57813 7.62191C6.46875 8.13503 7.09594 8.51034 7.44 8.71878C7.45829 8.72992 7.47342 8.74556 7.48392 8.76422C7.49443 8.78288 7.49997 8.80393 7.5 8.82534V10.9853C7.5 11.2544 7.70688 11.4853 7.97594 11.4988C8.04349 11.502 8.111 11.4916 8.17439 11.468C8.23777 11.4444 8.29571 11.4082 8.3447 11.3616C8.39369 11.3149 8.43271 11.2589 8.45941 11.1967C8.4861 11.1346 8.49991 11.0677 8.5 11V8.31253C8.50005 8.23316 8.48119 8.15491 8.445 8.08427C8.40881 8.01363 8.35632 7.95262 8.29188 7.90628L7.13563 7.07472C7.12111 7.06433 7.10899 7.05096 7.10008 7.0355C7.09116 7.02004 7.08566 7.00285 7.08394 6.98509C7.08223 6.96733 7.08433 6.9494 7.09012 6.93252C7.09591 6.91564 7.10525 6.90019 7.1175 6.88722L8.43 5.48753C8.44346 5.47313 8.46013 5.46212 8.47866 5.45539C8.49718 5.44866 8.51703 5.44641 8.5366 5.44881C8.55616 5.45122 8.57487 5.45822 8.59122 5.46924C8.60756 5.48026 8.62106 5.49499 8.63063 5.51222L9.3125 6.74284C9.35584 6.82085 9.41926 6.88585 9.4962 6.93107C9.57313 6.97629 9.66076 7.00011 9.75 7.00003H11.5C11.5677 7.00011 11.6348 6.98642 11.6971 6.95981C11.7594 6.93319 11.8156 6.89419 11.8623 6.84518C11.9091 6.79617 11.9454 6.73818 11.9691 6.67471C11.9927 6.61124 12.0033 6.54363 12 6.47597C11.9869 6.20691 11.755 6.00003 11.4859 6.00003Z" fill="#8533FF"/>
<path fill-rule="evenodd" clip-rule="evenodd" d="M5 25C5 26.6569 6.34315 28 8 28C9.65685 28 11 26.6569 11 25C11 23.3431 9.65685 22 8 22C6.34315 22 5 23.3431 5 25ZM3 25C3 27.7614 5.23858 30 8 30C10.7614 30 13 27.7614 13 25C13 22.2386 10.7614 20 8 20C5.23858 20 3 22.2386 3 25Z" fill="#F9CF6B"/>
<path fill-rule="evenodd" clip-rule="evenodd" d="M5 495C5 496.657 6.34315 498 8 498C9.65685 498 11 496.657 11 495C11 493.343 9.65685 492 8 492C6.34315 492 5 493.343 5 495ZM3 495C3 497.761 5.23858 500 8 500C10.7614 500 13 497.761 13 495C13 492.239 10.7614 490 8 490C5.23858 490 3 492.239 3 495Z" fill="#F9CF6B"/>
<line x1="8" y1="31" x2="8.00002" y2="489" stroke="#F9CF6B" stroke-width="2" stroke-linecap="round" stroke-dasharray="5 5"/>
<path fill-rule="evenodd" clip-rule="evenodd" d="M12.725 268.311C13.1054 268.712 13.0892 269.345 12.6887 269.725L8.47822 273.725C8.28576 273.908 8.02851 274.007 7.76315 274C7.49778 273.993 7.24608 273.88 7.06352 273.688L3.27404 269.688C2.89421 269.287 2.91132 268.654 3.31225 268.274C3.71319 267.894 4.34612 267.911 4.72595 268.312L7.82673 271.585L11.3112 268.275C11.7117 267.895 12.3446 267.911 12.725 268.311Z" fill="#F9CF6B"/>
<path fill-rule="evenodd" clip-rule="evenodd" d="M12.725 402.311C13.1054 402.712 13.0892 403.345 12.6887 403.725L8.47822 407.725C8.28576 407.908 8.02851 408.007 7.76315 408C7.49778 407.993 7.24608 407.88 7.06352 407.688L3.27404 403.688C2.89421 403.287 2.91132 402.654 3.31225 402.274C3.71319 401.894 4.34612 401.911 4.72595 402.312L7.82673 405.585L11.3112 402.275C11.7117 401.895 12.3446 401.911 12.725 402.311Z" fill="#F9CF6B"/>
<path fill-rule="evenodd" clip-rule="evenodd" d="M12.725 135.311C13.1054 135.712 13.0892 136.345 12.6887 136.725L8.47822 140.725C8.28576 140.908 8.02851 141.007 7.76315 141C7.49778 140.993 7.24608 140.88 7.06352 140.688L3.27404 136.688C2.89421 136.287 2.91132 135.654 3.31225 135.274C3.71319 134.894 4.34612 134.911 4.72595 135.312L7.82673 138.585L11.3112 135.275C11.7117 134.895 12.3446 134.911 12.725 135.311Z" fill="#F9CF6B"/>
<path d="M2.5 519C2.36739 519 2.24021 518.947 2.14645 518.854C2.05268 518.76 2 518.633 2 518.5V506.129C2.00004 505.998 2.03439 505.869 2.09963 505.756C2.16487 505.642 2.25874 505.548 2.37188 505.482C2.75 505.262 3.51188 505 5 505C6.16281 505 7.46344 505.46 8.61094 505.865C9.535 506.192 10.4078 506.5 11 506.5C11.7623 506.498 12.5166 506.344 13.2188 506.047C13.3043 506.011 13.3974 505.996 13.4898 506.005C13.5822 506.014 13.671 506.045 13.7484 506.096C13.8257 506.148 13.8892 506.217 13.9331 506.299C13.977 506.381 14 506.472 14 506.565V513.42C13.9999 513.542 13.9643 513.66 13.8977 513.762C13.8311 513.864 13.7364 513.944 13.625 513.992C13.3528 514.111 12.3591 514.5 11 514.5C10.2456 514.5 9.30062 514.277 8.30031 514.04C7.17594 513.775 6.01344 513.5 5 513.5C3.84781 513.5 3.25813 513.674 3 513.785V518.5C3 518.633 2.94732 518.76 2.85355 518.854C2.75979 518.947 2.63261 519 2.5 519Z" fill="#8533FF"/>
</svg>
