<svg width="10" height="10" viewBox="0 0 10 10" fill="none" xmlns="http://www.w3.org/2000/svg">
<path d="M6.06095 5.00014L9.0297 2.03139C9.1706 1.89074 9.24985 1.69989 9.25002 1.5008C9.2502 1.30172 9.17128 1.11073 9.03064 0.969829C8.88999 0.828933 8.69913 0.749679 8.50005 0.749503C8.30097 0.749328 8.10997 0.828244 7.96907 0.968891L5.00032 3.93764L2.03157 0.968891C1.89068 0.827995 1.69958 0.74884 1.50032 0.74884C1.30107 0.74884 1.10997 0.827995 0.969074 0.968891C0.828178 1.10979 0.749023 1.30088 0.749023 1.50014C0.749023 1.6994 0.828178 1.89049 0.969074 2.03139L3.93782 5.00014L0.969074 7.96889C0.828178 8.10979 0.749023 8.30088 0.749023 8.50014C0.749023 8.6994 0.828178 8.89049 0.969074 9.03139C1.10997 9.17229 1.30107 9.25144 1.50032 9.25144C1.69958 9.25144 1.89068 9.17229 2.03157 9.03139L5.00032 6.06264L7.96907 9.03139C8.10997 9.17229 8.30107 9.25144 8.50032 9.25144C8.69958 9.25144 8.89068 9.17229 9.03157 9.03139C9.17247 8.89049 9.25163 8.6994 9.25163 8.50014C9.25163 8.30088 9.17247 8.10979 9.03157 7.96889L6.06095 5.00014Z" fill="#1F1F22"/>
</svg>
