<svg width="238" height="128" viewBox="0 0 238 128" fill="none" xmlns="http://www.w3.org/2000/svg">
<rect x="0.5" y="17.5" width="164" height="32" rx="16" fill="#C9BDFD" stroke="#1F1F22"/>
<path d="M20.3409 27.125C19.3093 27.125 18.3008 27.4309 17.4431 28.004C16.5853 28.5772 15.9168 29.3918 15.522 30.3448C15.1273 31.2979 15.024 32.3467 15.2252 33.3584C15.4265 34.3702 15.9232 35.2996 16.6527 36.0291C17.3822 36.7585 18.3115 37.2553 19.3233 37.4565C20.3351 37.6578 21.3838 37.5545 22.3369 37.1597C23.29 36.7649 24.1046 36.0964 24.6777 35.2387C25.2508 34.3809 25.5568 33.3725 25.5568 32.3409C25.5567 30.9576 25.0071 29.6309 24.029 28.6528C23.0508 27.6746 21.7242 27.1251 20.3409 27.125V27.125Z" stroke="white" stroke-width="1.54545" stroke-miterlimit="10"/>
<path d="M24.2324 36.2325L27.8751 39.8752" stroke="white" stroke-width="1.54545" stroke-miterlimit="10" stroke-linecap="round"/>
<rect x="41.5" y="36.5" width="178" height="91" rx="11.5" fill="white"/>
<path d="M53.799 54.7273H55.1307L57.446 60.3807H57.5312L59.8466 54.7273H61.1783V62H60.1342V56.7372H60.0668L57.9219 61.9893H57.0554L54.9105 56.7337H54.843V62H53.799V54.7273ZM64.986 62.1101C64.4746 62.1101 64.0283 61.9929 63.6472 61.7585C63.266 61.5241 62.9701 61.1963 62.7594 60.7749C62.5487 60.3535 62.4434 59.861 62.4434 59.2976C62.4434 58.7318 62.5487 58.237 62.7594 57.8132C62.9701 57.3894 63.266 57.0604 63.6472 56.826C64.0283 56.5916 64.4746 56.4744 64.986 56.4744C65.4973 56.4744 65.9436 56.5916 66.3248 56.826C66.7059 57.0604 67.0018 57.3894 67.2125 57.8132C67.4232 58.237 67.5286 58.7318 67.5286 59.2976C67.5286 59.861 67.4232 60.3535 67.2125 60.7749C67.0018 61.1963 66.7059 61.5241 66.3248 61.7585C65.9436 61.9929 65.4973 62.1101 64.986 62.1101ZM64.9895 61.2188C65.321 61.2188 65.5956 61.1312 65.8134 60.956C66.0312 60.7808 66.1922 60.5476 66.2963 60.2564C66.4029 59.9652 66.4561 59.6444 66.4561 59.294C66.4561 58.946 66.4029 58.6264 66.2963 58.3352C66.1922 58.0417 66.0312 57.8061 65.8134 57.6286C65.5956 57.451 65.321 57.3622 64.9895 57.3622C64.6557 57.3622 64.3787 57.451 64.1586 57.6286C63.9408 57.8061 63.7786 58.0417 63.6721 58.3352C63.5679 58.6264 63.5158 58.946 63.5158 59.294C63.5158 59.6444 63.5679 59.9652 63.6721 60.2564C63.7786 60.5476 63.9408 60.7808 64.1586 60.956C64.3787 61.1312 64.6557 61.2188 64.9895 61.2188ZM69.7543 60.5121L72.1584 56.5455H73.3018V62H72.2614V58.0298L69.8679 62H68.7138V56.5455H69.7543V60.5121ZM71.7038 54.6989H72.5774C72.5774 55.099 72.4354 55.4245 72.1513 55.6754C71.8696 55.924 71.4884 56.0483 71.0078 56.0483C70.5296 56.0483 70.1496 55.924 69.8679 55.6754C69.5862 55.4245 69.4453 55.099 69.4453 54.6989H70.3153C70.3153 54.8764 70.3674 55.0339 70.4716 55.1712C70.5758 55.3061 70.7545 55.3736 71.0078 55.3736C71.2564 55.3736 71.4339 55.3061 71.5405 55.1712C71.6494 55.0362 71.7038 54.8788 71.7038 54.6989ZM81.584 54.5142L82.0243 55.1854C81.861 55.3345 81.6751 55.4411 81.4668 55.505C81.2608 55.5665 81.0229 55.6056 80.753 55.6222C80.4831 55.6364 80.1742 55.6494 79.8262 55.6612C79.4332 55.6731 79.11 55.7583 78.8567 55.9169C78.6034 56.0732 78.4081 56.3052 78.2708 56.6129C78.1358 56.9183 78.0482 57.3018 78.008 57.7635H78.0755C78.253 57.425 78.4992 57.1716 78.8141 57.0036C79.1313 56.8355 79.4876 56.7514 79.883 56.7514C80.3233 56.7514 80.7151 56.852 81.0584 57.0533C81.4017 57.2545 81.6716 57.5492 81.8681 57.9375C82.0669 58.3234 82.1664 58.7957 82.1664 59.3544C82.1664 59.9202 82.0622 60.4091 81.8539 60.821C81.6479 61.233 81.3567 61.5514 80.9803 61.7763C80.6062 61.9988 80.1647 62.1101 79.6557 62.1101C79.1467 62.1101 78.7028 61.9953 78.324 61.7656C77.9476 61.5336 77.6552 61.1903 77.4469 60.7358C77.2409 60.2812 77.138 59.7202 77.138 59.0526V58.5128C77.138 57.2652 77.3605 56.3265 77.8056 55.6967C78.2507 55.067 78.9159 54.7438 79.8013 54.7273C80.0878 54.7202 80.3435 54.719 80.5684 54.7237C80.7933 54.7261 80.9898 54.7154 81.1578 54.6918C81.3283 54.6657 81.4703 54.6065 81.584 54.5142ZM79.6593 61.2188C79.9552 61.2188 80.2097 61.1442 80.4228 60.995C80.6382 60.8435 80.8039 60.6293 80.9199 60.3523C81.0359 60.0753 81.0939 59.7486 81.0939 59.3722C81.0939 59.0028 81.0359 58.6892 80.9199 58.4311C80.8039 58.1731 80.6382 57.9766 80.4228 57.8416C80.2073 57.7043 79.9493 57.6357 79.6486 57.6357C79.4261 57.6357 79.2272 57.6747 79.052 57.7528C78.8768 57.8286 78.7265 57.9411 78.601 58.0902C78.4779 58.2393 78.382 58.4216 78.3134 58.6371C78.2471 58.8501 78.2116 59.0952 78.2069 59.3722C78.2069 59.9356 78.3359 60.3842 78.5939 60.718C78.8543 61.0518 79.2095 61.2188 79.6593 61.2188ZM84.0236 64.0455C83.865 64.0455 83.7206 64.0324 83.5904 64.0064C83.4602 63.9827 83.3631 63.9567 83.2992 63.9283L83.5549 63.0582C83.749 63.1103 83.9218 63.1328 84.0733 63.1257C84.2248 63.1186 84.3586 63.0618 84.4746 62.9553C84.593 62.8487 84.6971 62.6747 84.7871 62.4332L84.9185 62.071L82.9228 56.5455H84.0591L85.4405 60.7784H85.4973L86.8787 56.5455H88.0186L85.7708 62.728C85.6666 63.0121 85.534 63.2524 85.373 63.4489C85.2121 63.6477 85.0203 63.7969 84.7978 63.8963C84.5752 63.9957 84.3172 64.0455 84.0236 64.0455ZM88.0346 63.5732V61.0803H88.4785C88.5922 60.9761 88.688 60.8518 88.7662 60.7074C88.8467 60.563 88.9141 60.3913 88.9686 60.1925C89.0254 59.9936 89.0727 59.7616 89.1106 59.4964C89.1485 59.2289 89.1816 58.9235 89.21 58.5803L89.3805 56.5455H93.0879V61.0803H93.926V63.5732H92.889V62H89.0858V63.5732H88.0346ZM89.6149 61.0803H92.051V57.4545H90.3322L90.2186 58.5803C90.1641 59.1532 90.0955 59.6503 90.0126 60.0717C89.9297 60.4908 89.7972 60.8269 89.6149 61.0803ZM95.6349 64.0455C95.4763 64.0455 95.3319 64.0324 95.2017 64.0064C95.0715 63.9827 94.9744 63.9567 94.9105 63.9283L95.1662 63.0582C95.3603 63.1103 95.5331 63.1328 95.6847 63.1257C95.8362 63.1186 95.9699 63.0618 96.0859 62.9553C96.2043 62.8487 96.3085 62.6747 96.3984 62.4332L96.5298 62.071L94.5341 56.5455H95.6705L97.0518 60.7784H97.1087L98.4901 56.5455H99.63L97.3821 62.728C97.2779 63.0121 97.1454 63.2524 96.9844 63.4489C96.8234 63.6477 96.6316 63.7969 96.4091 63.8963C96.1866 63.9957 95.9285 64.0455 95.6349 64.0455ZM108.444 61.0838L108.344 63.5625H107.304V62H106.626V61.0838H108.444ZM100.628 56.5455H101.668V61.0803H103.554V56.5455H104.594V61.0803H106.48V56.5455H107.521V62H100.628V56.5455ZM110.604 60.5121L113.008 56.5455H114.151V62H113.111V58.0298L110.718 62H109.563V56.5455H110.604V60.5121ZM116.619 60.5121L119.024 56.5455H120.167V62H119.127V58.0298L116.733 62H115.579V56.5455H116.619V60.5121ZM118.569 54.6989H119.443C119.443 55.099 119.301 55.4245 119.017 55.6754C118.735 55.924 118.354 56.0483 117.873 56.0483C117.395 56.0483 117.015 55.924 116.733 55.6754C116.451 55.4245 116.311 55.099 116.311 54.6989H117.181C117.181 54.8764 117.233 55.0339 117.337 55.1712C117.441 55.3061 117.62 55.3736 117.873 55.3736C118.122 55.3736 118.299 55.3061 118.406 55.1712C118.515 55.0362 118.569 54.8788 118.569 54.6989ZM127.938 58.8146V59.7344H124.983V58.8146H127.938ZM125.282 56.5455V62H124.241V56.5455H125.282ZM128.68 56.5455V62H127.643V56.5455H128.68ZM131.688 62.1207C131.342 62.1207 131.03 62.0568 130.75 61.929C130.471 61.7988 130.25 61.6106 130.086 61.3643C129.925 61.1181 129.845 60.8163 129.845 60.4588C129.845 60.151 129.904 59.8977 130.022 59.6989C130.141 59.5 130.301 59.3426 130.502 59.2266C130.703 59.1106 130.928 59.023 131.176 58.9638C131.425 58.9046 131.678 58.8596 131.936 58.8288C132.263 58.791 132.528 58.7602 132.732 58.7365C132.935 58.7105 133.083 58.669 133.176 58.6122C133.268 58.5554 133.314 58.4631 133.314 58.3352V58.3104C133.314 58.0002 133.227 57.7599 133.051 57.5895C132.879 57.419 132.621 57.3338 132.277 57.3338C131.92 57.3338 131.638 57.4131 131.432 57.5717C131.229 57.728 131.088 57.902 131.01 58.0938L130.012 57.8665C130.13 57.535 130.303 57.2675 130.53 57.0639C130.76 56.858 131.024 56.7088 131.322 56.6165C131.62 56.5218 131.934 56.4744 132.263 56.4744C132.481 56.4744 132.712 56.5005 132.956 56.5526C133.202 56.6023 133.431 56.6946 133.645 56.8295C133.86 56.9645 134.036 57.1574 134.174 57.4084C134.311 57.657 134.38 57.9801 134.38 58.3778V62H133.343V61.2543H133.3C133.231 61.3916 133.128 61.5265 132.991 61.6591C132.854 61.7917 132.677 61.9018 132.462 61.9893C132.247 62.0769 131.989 62.1207 131.688 62.1207ZM131.919 61.2685C132.212 61.2685 132.463 61.2105 132.672 61.0945C132.882 60.9785 133.042 60.8269 133.151 60.6399C133.262 60.4505 133.318 60.2481 133.318 60.0327V59.3295C133.28 59.3674 133.207 59.4029 133.098 59.4361C132.991 59.4669 132.869 59.4941 132.732 59.5178C132.595 59.5391 132.461 59.5592 132.331 59.5781C132.2 59.5947 132.092 59.6089 132.004 59.6207C131.798 59.6468 131.61 59.6906 131.439 59.7521C131.271 59.8137 131.136 59.9025 131.034 60.0185C130.935 60.1321 130.885 60.2836 130.885 60.473C130.885 60.7358 130.982 60.9347 131.176 61.0696C131.371 61.2022 131.618 61.2685 131.919 61.2685ZM135.794 62V56.5455H138.056C138.671 56.5455 139.159 56.6768 139.519 56.9396C139.879 57.2 140.059 57.554 140.059 58.0014C140.059 58.321 139.957 58.5743 139.753 58.7614C139.55 58.9484 139.28 59.0739 138.944 59.1378C139.188 59.1662 139.411 59.2396 139.615 59.358C139.818 59.474 139.982 59.6302 140.105 59.8267C140.23 60.0232 140.293 60.2576 140.293 60.5298C140.293 60.8187 140.219 61.0743 140.069 61.2969C139.92 61.517 139.704 61.6899 139.42 61.8153C139.138 61.9384 138.798 62 138.4 62H135.794ZM136.792 61.1122H138.4C138.663 61.1122 138.869 61.0495 139.018 60.924C139.167 60.7985 139.242 60.6281 139.242 60.4126C139.242 60.1593 139.167 59.9605 139.018 59.8161C138.869 59.6693 138.663 59.5959 138.4 59.5959H136.792V61.1122ZM136.792 58.8182H138.067C138.265 58.8182 138.436 58.7898 138.578 58.733C138.722 58.6761 138.832 58.5956 138.908 58.4915C138.986 58.3849 139.025 58.2595 139.025 58.1151C139.025 57.9044 138.939 57.7398 138.766 57.6214C138.593 57.5031 138.357 57.4439 138.056 57.4439H136.792V58.8182ZM142.257 58.4205H143.841C144.508 58.4205 145.022 58.5862 145.382 58.9176C145.742 59.2491 145.922 59.6764 145.922 60.1996C145.922 60.5405 145.841 60.8471 145.68 61.1193C145.519 61.3916 145.284 61.607 144.974 61.7656C144.663 61.9219 144.286 62 143.841 62H141.458V56.5455H142.498V61.0838H143.841C144.146 61.0838 144.397 61.0045 144.594 60.8459C144.79 60.6849 144.888 60.4801 144.888 60.2315C144.888 59.9687 144.79 59.7545 144.594 59.5888C144.397 59.4207 144.146 59.3366 143.841 59.3366H142.257V58.4205ZM146.696 62V56.5455H147.758V62H146.696ZM149.183 62V56.5455H150.244V58.8324H150.756L152.556 56.5455H153.87L151.757 59.1982L153.895 62H152.577L150.933 59.8196H150.244V62H149.183Z" fill="#1F1F22"/>
<rect x="53" y="76" width="80" height="8" rx="4" fill="#9592F3"/>
<rect x="137" y="76" width="71" height="8" rx="4" fill="#9592F3"/>
<rect x="53" y="90" width="37" height="8" rx="4" fill="#9592F3"/>
<rect x="94" y="90" width="71" height="8" rx="4" fill="#9592F3"/>
<rect x="169" y="90" width="39" height="8" rx="4" fill="#9592F3"/>
<rect x="53" y="104" width="80" height="8" rx="4" fill="#9592F3"/>
<rect x="137" y="104" width="71" height="8" rx="4" fill="#9592F3"/>
<rect x="41.5" y="36.5" width="178" height="91" rx="11.5" stroke="#1F1F22"/>
<path d="M213.151 2.07862C213.462 1.31839 214.538 1.31839 214.849 2.07862L217.043 7.45437C217.137 7.68243 217.318 7.86342 217.546 7.95653L222.921 10.1513C223.682 10.4617 223.682 11.5383 222.921 11.8487L217.546 14.0435C217.318 14.1366 217.137 14.3176 217.043 14.5456L214.849 19.9214C214.538 20.6816 213.462 20.6816 213.151 19.9214L210.957 14.5456C210.863 14.3176 210.682 14.1366 210.454 14.0435L205.079 11.8487C204.318 11.5383 204.318 10.4617 205.079 10.1513L210.454 7.95653C210.682 7.86342 210.863 7.68243 210.957 7.45437L213.151 2.07862Z" fill="#F9CF6B"/>
<path d="M229.346 28.3569C229.656 27.5967 230.733 27.5967 231.043 28.3569L232.264 31.346C232.357 31.5741 232.538 31.7551 232.766 31.8482L235.755 33.0686C236.515 33.3789 236.515 34.4555 235.755 34.7659L232.766 35.9862C232.538 36.0794 232.357 36.2603 232.264 36.4884L231.043 39.4775C230.733 40.2377 229.656 40.2377 229.346 39.4775L228.126 36.4884C228.032 36.2603 227.851 36.0794 227.623 35.9862L224.634 34.7659C223.874 34.4555 223.874 33.3789 224.634 33.0685L227.623 31.8482C227.851 31.7551 228.032 31.5741 228.126 31.346L229.346 28.3569Z" fill="#F9CF6B"/>
<path d="M20.1513 71.0786C20.4617 70.3184 21.5383 70.3184 21.8487 71.0786L24.0435 76.4544C24.1366 76.6824 24.3176 76.8634 24.5456 76.9565L29.9214 79.1513C30.6816 79.4617 30.6816 80.5383 29.9214 80.8487L24.5456 83.0435C24.3176 83.1366 24.1366 83.3176 24.0435 83.5456L21.8487 88.9214C21.5383 89.6816 20.4617 89.6816 20.1513 88.9214L17.9565 83.5456C17.8634 83.3176 17.6824 83.1366 17.4544 83.0435L12.0786 80.8487C11.3184 80.5383 11.3184 79.4617 12.0786 79.1513L17.4544 76.9565C17.6824 76.8634 17.8634 76.6824 17.9565 76.4544L20.1513 71.0786Z" fill="#F9CF6B"/>
</svg>
