<svg width="12" height="12" viewBox="0 0 12 12" fill="none" xmlns="http://www.w3.org/2000/svg">
<path d="M2.25 4.875H1.125C0.91875 4.875 0.75 4.70625 0.75 4.5C0.75 4.29375 0.91875 4.125 1.125 4.125H2.25C2.45625 4.125 2.625 4.29375 2.625 4.5C2.625 4.70625 2.45625 4.875 2.25 4.875ZM2.90859 3.28359C2.81016 3.28359 2.71406 3.24375 2.64375 3.17344L1.84922 2.37891C1.70391 2.23359 1.70391 1.99453 1.84922 1.84922C1.99453 1.70391 2.23359 1.70391 2.37891 1.84922L3.17344 2.64375C3.32109 2.78906 3.32109 3.02812 3.17344 3.17344C3.10312 3.24375 3.00937 3.28359 2.90859 3.28359ZM4.5 2.625C4.29375 2.625 4.125 2.45625 4.125 2.25V1.125C4.125 0.91875 4.29375 0.75 4.5 0.75C4.70625 0.75 4.875 0.91875 4.875 1.125V2.25C4.875 2.45625 4.70625 2.625 4.5 2.625ZM6.09141 3.28359C5.88516 3.28359 5.71641 3.11484 5.71641 2.90859C5.71641 2.81016 5.75625 2.71406 5.82656 2.64375L6.62109 1.84922C6.76641 1.70391 7.00547 1.70391 7.15078 1.84922C7.29609 1.99453 7.29609 2.23359 7.15078 2.37891L6.35625 3.17344C6.28594 3.24375 6.18984 3.28359 6.09141 3.28359ZM2.11406 7.26094C1.90781 7.26094 1.73906 7.09219 1.73906 6.88594C1.73906 6.7875 1.77891 6.69141 1.84922 6.62109L2.64375 5.82656C2.78906 5.68125 3.02812 5.68125 3.17344 5.82656C3.31875 5.97188 3.31875 6.21094 3.17344 6.35625L2.37891 7.15078C2.30859 7.22109 2.2125 7.26094 2.11406 7.26094ZM5.48906 3.91406C5.05781 3.47578 4.35234 3.46875 3.91406 3.89766C3.47578 4.32656 3.46875 5.03438 3.89766 5.47266L3.91406 5.48906L4.83984 6.41484C4.9125 6.4875 5.03203 6.4875 5.10469 6.41484L6.41484 5.10469C6.4875 5.03203 6.4875 4.9125 6.41484 4.83984L5.48906 3.91406ZM10.7109 9.13594L7.20938 5.63437C7.13672 5.56172 7.01719 5.56172 6.94453 5.63437L5.63437 6.94453C5.56172 7.01719 5.56172 7.13672 5.63437 7.20938L9.13594 10.7109C9.56719 11.1492 10.2727 11.1562 10.7109 10.7273C11.1492 10.2961 11.1562 9.59062 10.7273 9.15234C10.7227 9.14766 10.718 9.14062 10.7109 9.13594Z" fill="#8533FF"/>
</svg>
