<svg width="10" height="10" viewBox="0 0 10 10" fill="none" xmlns="http://www.w3.org/2000/svg">
<path d="M5.79998 4.70825L8.85511 1.65312C9.00011 1.50838 9.08167 1.31197 9.08185 1.1071C9.08203 0.902221 9.00082 0.705666 8.85608 0.560671C8.71134 0.415675 8.51493 0.334115 8.31005 0.333934C8.10518 0.333753 7.90862 0.414966 7.76363 0.559706L4.7085 3.61484L1.65337 0.559706C1.50837 0.41471 1.31171 0.333252 1.10666 0.333252C0.901602 0.333252 0.704946 0.41471 0.55995 0.559706C0.414954 0.704702 0.333496 0.901358 0.333496 1.10641C0.333496 1.31147 0.414954 1.50813 0.55995 1.65312L3.61508 4.70825L0.55995 7.76338C0.414954 7.90838 0.333496 8.10504 0.333496 8.31009C0.333496 8.51515 0.414954 8.7118 0.55995 8.8568C0.704946 9.00179 0.901602 9.08325 1.10666 9.08325C1.31171 9.08325 1.50837 9.00179 1.65337 8.8568L4.7085 5.80167L7.76363 8.8568C7.90862 9.00179 8.10528 9.08325 8.31034 9.08325C8.51539 9.08325 8.71205 9.00179 8.85704 8.8568C9.00204 8.7118 9.0835 8.51515 9.0835 8.31009C9.0835 8.10504 9.00204 7.90838 8.85704 7.76338L5.79998 4.70825Z" fill="#1F1F22"/>
</svg>
