<svg width="486" height="158" viewBox="0 0 486 158" fill="none" xmlns="http://www.w3.org/2000/svg">
  <g clip-path="url(#clip0_2436_57007)">
    <rect width="486" height="158" fill="#F3F3F8"/>
    <path d="M419.815 109.908C411.545 138.736 405.295 164.583 397.025 193.411H365.76C365.76 193.411 329.427 134.438 337.499 135.526C350.706 137.307 359.709 151.46 359.709 151.46C359.709 151.46 350.031 84.4962 356.687 89.1345C369.432 98.0162 370.402 135.526 370.402 135.526C370.402 135.526 374.637 80.9441 380.285 81.067C385.528 81.1811 387.747 137.14 387.747 137.14C387.747 137.14 398.801 71.6218 402.47 87.5208C405.495 100.63 403.075 110.719 402.47 120.803C401.865 130.888 400.857 141.577 400.857 141.577C400.857 141.577 428.085 81.0807 419.815 109.908Z" fill="#F9CF6B"/>
    <path d="M397.025 193.411C405.295 164.583 411.545 138.736 419.815 109.908C428.085 81.0807 400.857 141.577 400.857 141.577C400.857 141.577 401.865 130.888 402.47 120.803C403.075 110.719 405.495 100.63 402.47 87.5208C398.801 71.6218 387.747 137.14 387.747 137.14C387.747 137.14 385.528 81.1811 380.285 81.067C374.637 80.9441 370.402 135.526 370.402 135.526C370.402 135.526 369.432 98.0162 356.687 89.1345C350.031 84.4962 359.709 151.46 359.709 151.46M359.709 151.46C359.709 151.46 350.706 137.307 337.499 135.526C329.427 134.438 365.76 193.411 365.76 193.411M359.709 151.46C359.709 151.46 365.983 154.223 368.802 157.389C371.899 160.866 373.831 168.2 373.831 168.2" stroke="#1F1F22" stroke-width="1.32819" stroke-linecap="round" stroke-linejoin="round"/>
    <path d="M341.611 74.6127C336.709 77.409 327.619 85.567 330.48 95.8294" stroke="#F9CF6B" stroke-width="2.42024" stroke-linecap="round" stroke-linejoin="round"/>
    <path d="M351.717 76.5321C344.246 80.793 330.394 93.2243 334.755 108.862" stroke="#F9CF6B" stroke-width="2.42024" stroke-linecap="round" stroke-linejoin="round"/>
    <path d="M419.718 187.519C425.159 180.859 433.62 164.281 423.932 151.254" stroke="#F9CF6B" stroke-width="2.42024" stroke-linecap="round" stroke-linejoin="round"/>
    <path d="M310.534 2.30825C302.264 31.1358 296.014 56.9831 287.744 85.8106H256.479C256.479 85.8106 220.146 26.8382 228.217 27.9265C241.425 29.7072 250.428 43.8603 250.428 43.8603C250.428 43.8603 240.75 -23.1038 247.406 -18.4655C260.151 -9.58376 261.121 27.9265 261.121 27.9265C261.121 27.9265 265.356 -26.6559 271.003 -26.533C276.247 -26.4189 278.466 29.5405 278.466 29.5405C278.466 29.5405 289.52 -35.9782 293.189 -20.0791C296.214 -6.96948 293.794 3.11883 293.189 13.2032C292.584 23.2875 291.576 33.9771 291.576 33.9771C291.576 33.9771 318.804 -26.5193 310.534 2.30825Z" fill="#F9CF6B"/>
    <path d="M287.744 85.8106C296.014 56.9831 302.264 31.1358 310.534 2.30826C318.804 -26.5193 291.576 33.9771 291.576 33.9771C291.576 33.9771 292.584 23.2875 293.189 13.2032C293.794 3.11883 296.214 -6.96948 293.189 -20.0791C289.52 -35.9782 278.466 29.5405 278.466 29.5405C278.466 29.5405 276.247 -26.4189 271.003 -26.533C265.356 -26.6559 261.121 27.9265 261.121 27.9265C261.121 27.9265 260.151 -9.58376 247.406 -18.4655C240.75 -23.1038 250.428 43.8603 250.428 43.8603M250.428 43.8603C250.428 43.8603 241.425 29.7072 228.217 27.9265C220.146 26.8382 256.479 85.8106 256.479 85.8106M250.428 43.8603C250.428 43.8603 256.701 46.6233 259.521 49.7887C262.618 53.2659 264.549 60.5998 264.549 60.5998" stroke="#1F1F22" stroke-width="1.32819" stroke-linecap="round" stroke-linejoin="round"/>
    <path d="M320.556 78.0797C324.127 73.7089 329.679 62.83 323.321 54.2807" stroke="#F9CF6B" stroke-width="2.42024" stroke-linecap="round" stroke-linejoin="round"/>
    <path d="M242.435 -31.0678C234.965 -26.8069 221.113 -14.3757 225.474 1.26232" stroke="#F9CF6B" stroke-width="2.42024" stroke-linecap="round" stroke-linejoin="round"/>
    <path d="M310.436 79.9191C315.878 73.2588 324.338 56.6814 314.651 43.6539" stroke="#F9CF6B" stroke-width="2.42024" stroke-linecap="round" stroke-linejoin="round"/>
    <path d="M121.928 144.833C121.928 144.833 132.699 138.518 137.166 132.213C141.269 126.423 142.986 122.354 143.833 115.308C145.061 105.097 127.815 94.1107 137.166 89.8303C143.557 86.9052 149.115 90.5726 154.31 95.3068C160.395 100.853 160.977 115.308 160.977 115.308C160.977 115.308 186.438 104.54 191.931 115.308C194.059 119.479 193.36 127.213 193.36 127.213C193.36 127.213 197.61 131.225 197.884 134.594C198.151 137.882 194.788 142.452 194.788 142.452C194.788 142.452 199.338 146.353 199.074 149.595C198.801 152.943 193.36 156.024 193.36 156.024C193.36 156.024 196.035 158.608 196.455 160.786C197.063 163.94 193.36 168.406 193.36 168.406C193.36 168.406 182.329 174.511 174.549 176.025C166.791 177.534 154.31 176.025 154.31 176.025L134.071 184.121L121.928 144.833Z" fill="#F9CF6B"/>
    <path d="M193.36 127.213C193.36 127.213 194.059 119.479 191.931 115.308C186.438 104.54 160.977 115.308 160.977 115.308C160.977 115.308 160.395 100.853 154.31 95.3068C149.115 90.5726 143.557 86.9052 137.166 89.8303C127.815 94.1107 145.061 105.097 143.833 115.308C142.986 122.354 141.269 126.423 137.166 132.213C132.699 138.518 121.928 144.833 121.928 144.833L134.071 184.121L154.31 176.025C154.31 176.025 166.791 177.534 174.549 176.025C182.329 174.511 193.36 168.406 193.36 168.406M193.36 127.213L165.263 132.213M193.36 127.213C193.36 127.213 197.61 131.225 197.884 134.594C198.151 137.882 194.788 142.452 194.788 142.452M165.263 132.213C165.263 132.213 157.044 133.276 155.739 130.931C154.394 128.515 157.896 125.388 160.977 123.88C163.596 122.597 174.549 118.165 174.549 118.165M165.263 132.213C165.263 132.213 153.912 138.42 156.215 142.598C157.601 145.114 160.501 145.456 165.263 145.456C170.025 145.456 194.788 142.452 194.788 142.452M194.788 142.452C194.788 142.452 199.338 146.353 199.074 149.595C198.801 152.943 193.36 156.024 193.36 156.024M193.36 156.024C193.36 156.024 169.787 158.551 165.263 158.313C162.514 158.169 159.054 157.637 158.596 156.024C157.247 151.269 168.12 147.69 168.12 147.69M193.36 156.024C193.36 156.024 196.035 158.608 196.455 160.786C197.063 163.94 193.36 168.406 193.36 168.406M193.36 156.024L169.311 159.98C169.311 159.98 164.948 161.164 163.596 162.361C154.98 169.995 193.36 168.406 193.36 168.406" stroke="black" stroke-width="1.32819" stroke-linecap="round" stroke-linejoin="round"/>
    <path d="M168.336 68.2284C166.038 68.9488 160.967 71.7637 159.072 77.2604" stroke="#F9CF6B" stroke-width="1.90485" stroke-linecap="round" stroke-linejoin="round"/>
    <path d="M135.066 63.0705C133.485 64.8881 130.64 69.942 131.905 75.6166" stroke="#F9CF6B" stroke-width="1.90485" stroke-linecap="round" stroke-linejoin="round"/>
    <path d="M169.035 74.7773C166.667 75.9524 161.407 80.0847 159.306 87.213" stroke="#F9CF6B" stroke-width="1.90485" stroke-linecap="round" stroke-linejoin="round"/>
    <path d="M139.091 68.2836C137.447 69.7136 134.388 73.5039 135.301 77.2256" stroke="#F9CF6B" stroke-width="1.90485" stroke-linecap="round" stroke-linejoin="round"/>
    <path d="M113.362 110.391C116.476 108.191 124.263 104.71 130.497 108.393" stroke="#F9CF6B" stroke-width="1.90485" stroke-linecap="round" stroke-linejoin="round"/>
    <path d="M114.828 100.373C116.612 99.0316 121.457 97.4491 126.556 101.853" stroke="#F9CF6B" stroke-width="1.90485" stroke-linecap="round" stroke-linejoin="round"/>
    <path d="M458.178 55.7267C458.178 55.7267 468.949 49.4116 473.416 43.1071C477.519 37.3165 479.236 33.2476 480.083 26.2015C481.312 15.9905 464.065 5.00446 473.416 0.724061C479.807 -2.2011 485.365 1.46637 490.56 6.20052C496.646 11.7464 497.227 26.2015 497.227 26.2015C497.227 26.2015 522.688 15.4335 528.181 26.2015C530.309 30.3727 529.61 38.1068 529.61 38.1068C529.61 38.1068 533.86 42.1183 534.134 45.4881C534.401 48.7754 531.038 53.3456 531.038 53.3456C531.038 53.3456 535.589 57.2464 535.324 60.4888C535.051 63.8369 529.61 66.9177 529.61 66.9177C529.61 66.9177 532.285 69.5019 532.705 71.6799C533.313 74.8335 529.61 79.2993 529.61 79.2993C529.61 79.2993 518.579 85.405 510.799 86.9187C503.041 88.4282 490.56 86.9187 490.56 86.9187L470.321 95.0143L458.178 55.7267Z" fill="#F9CF6B"/>
    <path d="M529.61 38.1068C529.61 38.1068 530.309 30.3727 528.181 26.2015C522.688 15.4335 497.227 26.2015 497.227 26.2015C497.227 26.2015 496.645 11.7464 490.56 6.20052C485.365 1.46637 479.807 -2.2011 473.416 0.724061C464.065 5.00446 481.312 15.9905 480.083 26.2015C479.236 33.2476 477.519 37.3165 473.416 43.1071C468.949 49.4116 458.178 55.7267 458.178 55.7267L470.321 95.0143L490.56 86.9187C490.56 86.9187 503.041 88.4282 510.799 86.9187C518.579 85.405 529.61 79.2993 529.61 79.2993M529.61 38.1068L501.513 43.1071M529.61 38.1068C529.61 38.1068 533.86 42.1183 534.134 45.4881C534.401 48.7754 531.038 53.3456 531.038 53.3456M501.513 43.1071C501.513 43.1071 493.294 44.1699 491.989 41.8248C490.644 39.4089 494.146 36.2817 497.227 34.7733C499.846 33.491 510.799 29.0588 510.799 29.0588M501.513 43.1071C501.513 43.1071 490.162 49.3133 492.465 53.492C493.851 56.0073 496.751 56.3493 501.513 56.3493C506.275 56.3493 531.038 53.3456 531.038 53.3456M531.038 53.3456C531.038 53.3456 535.589 57.2464 535.324 60.4889C535.051 63.8369 529.61 66.9177 529.61 66.9177M529.61 66.9177C529.61 66.9177 506.037 69.4451 501.513 69.207C498.764 69.0624 495.304 68.5304 494.846 66.9177C493.497 62.1631 504.37 58.584 504.37 58.584M529.61 66.9177C529.61 66.9177 532.285 69.5019 532.705 71.6799C533.313 74.8335 529.61 79.2993 529.61 79.2993M529.61 66.9177L505.561 70.8738C505.561 70.8738 501.198 72.0576 499.846 73.2549C491.23 80.8884 529.61 79.2993 529.61 79.2993" stroke="black" stroke-width="1.32819" stroke-linecap="round" stroke-linejoin="round"/>
    <path d="M449.613 21.2851C452.726 19.0844 460.513 15.6036 466.747 19.2863" stroke="#F9CF6B" stroke-width="1.90485" stroke-linecap="round" stroke-linejoin="round"/>
    <path d="M451.078 11.2672C452.862 9.92544 457.707 8.34292 462.806 12.7467" stroke="#F9CF6B" stroke-width="1.90485" stroke-linecap="round" stroke-linejoin="round"/>
    <path d="M16.0088 60.7705C16.0088 60.7705 26.7804 54.4554 31.2477 48.1508C35.3507 42.3603 37.0672 38.2913 37.9146 31.2452C39.1427 21.0343 21.8961 10.0482 31.2477 5.76782C37.6383 2.84266 43.1966 6.51013 48.3913 11.2443C54.4767 16.7901 55.0583 31.2452 55.0583 31.2452C55.0583 31.2452 80.5189 20.4773 86.0122 31.2452C88.1402 35.4165 87.4408 43.1506 87.4408 43.1506C87.4408 43.1506 91.691 47.1621 91.9649 50.5319C92.2321 53.8191 88.8695 58.3894 88.8695 58.3894C88.8695 58.3894 93.4198 62.2902 93.1554 65.5326C92.8825 68.8806 87.4408 71.9615 87.4408 71.9615C87.4408 71.9615 90.1163 74.5457 90.5362 76.7236C91.1444 79.8773 87.4408 84.3431 87.4408 84.3431C87.4408 84.3431 76.4102 90.4488 68.6304 91.9625C60.872 93.472 48.3913 91.9625 48.3913 91.9625L28.1523 100.058L16.0088 60.7705Z" fill="#F9CF6B"/>
    <path d="M87.4408 43.1506C87.4408 43.1506 88.1402 35.4165 86.0122 31.2452C80.5189 20.4773 55.0583 31.2452 55.0583 31.2452C55.0583 31.2452 54.4767 16.7901 48.3913 11.2443C43.1966 6.51013 37.6383 2.84266 31.2477 5.76782C21.8961 10.0482 39.1427 21.0343 37.9146 31.2452C37.0672 38.2913 35.3507 42.3603 31.2477 48.1508C26.7804 54.4554 16.0088 60.7705 16.0088 60.7705L28.1523 100.058L48.3913 91.9625C48.3913 91.9625 60.872 93.472 68.6304 91.9625C76.4102 90.4488 87.4408 84.3431 87.4408 84.3431M87.4408 43.1506L59.3442 48.1508M87.4408 43.1506C87.4408 43.1506 91.691 47.1621 91.9649 50.5319C92.2321 53.8191 88.8695 58.3894 88.8695 58.3894M59.3442 48.1508C59.3442 48.1508 51.1249 49.2137 49.82 46.8685C48.4757 44.4527 51.9773 41.3255 55.0583 39.8171C57.6775 38.5348 68.6304 34.1025 68.6304 34.1025M59.3442 48.1508C59.3442 48.1508 47.993 54.3571 50.2962 58.5358C51.6826 61.0511 54.5821 61.393 59.3442 61.393C64.1064 61.393 88.8695 58.3894 88.8695 58.3894M88.8695 58.3894C88.8695 58.3894 93.4198 62.2902 93.1554 65.5326C92.8825 68.8806 87.4408 71.9615 87.4408 71.9615M87.4408 71.9615C87.4408 71.9615 63.8683 74.4889 59.3442 74.2508C56.5952 74.1061 53.1348 73.5742 52.6773 71.9615C51.3283 67.2069 62.2015 63.6278 62.2015 63.6278M87.4408 71.9615C87.4408 71.9615 90.1163 74.5457 90.5362 76.7236C91.1444 79.8773 87.4408 84.3431 87.4408 84.3431M87.4408 71.9615L63.3921 75.9175C63.3921 75.9175 59.0289 77.1013 57.6775 78.2986C49.0615 85.9322 87.4408 84.3431 87.4408 84.3431" stroke="black" stroke-width="1.32819" stroke-linecap="round" stroke-linejoin="round"/>
    <path d="M63.1158 -9.28521C60.7483 -8.1101 55.4881 -3.97779 53.3875 3.15052" stroke="#F9CF6B" stroke-width="1.90485" stroke-linecap="round" stroke-linejoin="round"/>
    <path d="M7.44372 26.3288C10.5576 24.1281 18.3439 20.6474 24.5784 24.3301" stroke="#F9CF6B" stroke-width="1.90485" stroke-linecap="round" stroke-linejoin="round"/>
    <path d="M8.90894 16.3109C10.6937 14.9691 15.5379 13.3866 20.6369 17.7904" stroke="#F9CF6B" stroke-width="1.90485" stroke-linecap="round" stroke-linejoin="round"/>
  </g>
  <defs>
    <clipPath id="clip0_2436_57007">
      <rect width="486" height="158" fill="white"/>
    </clipPath>
  </defs>
</svg>
