<svg width="14" height="14" viewBox="0 0 14 14" fill="none" xmlns="http://www.w3.org/2000/svg">
<path d="M6.25935 0.814071C6.53024 0.150593 7.46976 0.150592 7.74065 0.81407L9.19225 4.36949C9.27352 4.56853 9.43147 4.72648 9.63051 4.80775L13.1859 6.25935C13.8494 6.53024 13.8494 7.46976 13.1859 7.74065L9.63051 9.19225C9.43147 9.27352 9.27352 9.43147 9.19225 9.63051L7.74065 13.1859C7.46976 13.8494 6.53024 13.8494 6.25935 13.1859L4.80775 9.63051C4.72648 9.43147 4.56853 9.27352 4.36949 9.19225L0.814071 7.74065C0.150593 7.46976 0.150592 6.53024 0.81407 6.25935L4.36949 4.80775C4.56853 4.72648 4.72648 4.56853 4.80775 4.36949L6.25935 0.814071Z" fill="#F9CF6B"/>
</svg>
